<?xml version="1.0" standalone="no"?>
<!DOCTYPE svg PUBLIC "-//W3C//DTD SVG 20010904//EN"
 "http://www.w3.org/TR/2001/REC-SVG-20010904/DTD/svg10.dtd">
<svg version="1.0" xmlns="http://www.w3.org/2000/svg"
 width="800.000000pt" height="533.000000pt" viewBox="0 0 800.000000 533.000000"
 preserveAspectRatio="xMidYMid meet">
<metadata>
Created by potrace 1.16, written by Peter Selinger 2001-2019
</metadata>
<g transform="translate(0.000000,533.000000) scale(0.100000,-0.100000)"
fill="#000000" stroke="none">
<path d="M7350 5316 c0 -7 -15 -17 -32 -22 -41 -12 -51 -43 -14 -40 14 0 26 4
26 9 0 4 5 7 10 7 17 0 11 -28 -9 -42 -25 -17 -37 -64 -22 -82 6 -7 12 -45 13
-84 2 -61 -1 -74 -19 -94 -15 -16 -20 -31 -16 -49 4 -20 -1 -29 -21 -43 -31
-20 -33 -39 -6 -68 l20 -22 39 39 c22 22 37 43 34 48 -8 13 -22 7 -28 -13 -4
-11 -10 -18 -15 -15 -5 3 -15 -4 -23 -15 -13 -18 -15 -19 -21 -5 -11 30 -6 40
24 58 21 13 30 14 30 6 0 -7 11 -2 25 11 26 25 50 83 40 99 -3 6 6 18 21 28
26 17 27 19 21 96 -4 44 -13 90 -21 102 -10 16 -12 25 -4 33 7 7 5 20 -8 41
-19 32 -44 42 -44 17z"/>
<path d="M3714 5132 c-17 -12 -25 -42 -14 -62 8 -15 5 -20 -22 -29 -20 -7 -35
-8 -43 -1 -6 5 -14 8 -16 5 -3 -2 -3 12 -1 32 5 41 -12 39 -23 -4 -4 -19 -2
-31 9 -39 14 -10 9 -13 -28 -23 -54 -13 -76 -6 -76 24 0 13 -4 27 -10 30 -14
9 -24 -43 -11 -59 8 -10 8 -16 -4 -26 -8 -7 -15 -23 -15 -36 0 -13 -4 -24 -9
-24 -4 0 -6 12 -3 26 5 26 4 27 -32 20 -21 -4 -44 -10 -51 -12 -11 -5 -13 4
-10 40 3 34 0 44 -10 40 -14 -6 -25 -36 -25 -71 0 -17 -9 -25 -41 -33 -22 -6
-48 -14 -57 -16 -15 -5 -15 -4 -2 6 12 9 8 10 -20 4 -19 -3 -37 -8 -39 -10 -7
-6 12 -26 33 -34 20 -8 19 -9 -5 -9 -15 -1 -30 -8 -33 -17 -8 -21 -8 -21 13
-27 11 -2 21 -15 24 -28 4 -22 5 -21 12 9 4 17 12 32 17 32 6 0 7 -7 4 -16 -3
-9 -6 -22 -6 -29 0 -8 -18 -19 -40 -25 -43 -12 -49 -20 -25 -40 13 -11 37 -7
138 20 156 42 187 65 47 36 -14 -3 -2 2 25 12 28 9 55 20 61 24 14 10 24 0 17
-17 -3 -10 33 -4 129 22 150 40 172 49 164 69 -3 7 3 18 12 24 13 8 11 9 -11
4 -27 -6 -28 -5 -21 22 10 44 14 47 55 41 28 -4 39 -1 39 8 0 7 12 18 28 24
l27 11 -27 -4 c-19 -2 -28 1 -28 10 0 22 -20 16 -30 -8 -8 -22 -9 -22 -9 -2
-1 11 -10 29 -20 38 -11 10 -21 31 -23 47 -2 18 -7 26 -14 21z"/>
<path d="M4390 4995 c-91 -24 -167 -39 -170 -35 -9 15 -65 6 -65 -10 0 -10
-27 -22 -85 -37 -47 -13 -89 -21 -95 -20 -5 2 21 12 58 22 37 10 65 20 63 22
-2 2 -56 -10 -119 -26 -63 -17 -119 -31 -124 -32 -4 0 1 -5 12 -10 16 -7 14
-8 -10 -3 -16 3 -33 10 -36 16 -4 5 -9 3 -13 -7 -3 -9 -10 -14 -16 -10 -5 3
-20 -1 -32 -9 -13 -8 -38 -17 -57 -21 -25 -5 -30 -10 -20 -16 10 -7 6 -8 -11
-4 -14 3 -37 1 -50 -5 -24 -10 -24 -10 5 -5 25 4 27 3 12 -6 -10 -6 -26 -8
-35 -4 -18 7 -81 -8 -307 -71 -85 -23 -141 -43 -130 -46 11 -3 -5 -4 -35 -2
-36 1 -63 -3 -79 -13 -14 -9 -53 -17 -90 -19 -36 -2 -67 -8 -69 -14 -5 -13
-32 -13 -32 0 0 5 16 12 35 16 28 5 35 11 35 30 0 14 6 24 14 24 8 0 22 3 32
7 14 5 16 2 10 -20 -3 -15 -2 -27 3 -27 5 0 12 20 15 44 6 37 12 47 37 58 16
7 29 18 29 25 0 6 12 16 28 21 27 11 27 11 -8 10 -19 -1 -48 2 -63 7 -24 6
-29 4 -34 -13 -2 -11 -14 -22 -24 -25 -17 -5 -19 -1 -14 27 6 27 3 34 -17 43
-13 7 -17 12 -10 12 14 1 17 21 3 21 -10 0 -27 -39 -23 -52 1 -5 -4 -8 -12 -8
-8 0 -17 -14 -21 -31 -4 -17 -9 -28 -11 -26 -3 2 0 26 6 52 13 57 9 64 -19 36
-12 -12 -21 -16 -21 -11 0 13 -27 13 -35 0 -4 -6 -1 -18 6 -26 15 -18 17 -17
-60 -38 -67 -18 -81 -17 -56 4 20 17 19 39 -2 36 -10 -2 -19 -13 -21 -24 -4
-28 -22 -29 -22 -1 0 20 -2 20 -22 7 -29 -19 -37 -42 -12 -34 11 3 25 2 33 -3
11 -7 3 -12 -28 -21 -24 -6 -50 -9 -58 -6 -8 3 -11 1 -8 -4 3 -6 1 -10 -4 -10
-6 0 -11 -9 -11 -19 0 -11 -4 -23 -10 -26 -12 -8 -12 -8 -1 33 7 21 6 32 -1
32 -5 0 -7 7 -4 16 5 14 4 15 -8 5 -8 -7 -16 -22 -18 -34 -3 -18 -9 -22 -37
-19 -54 4 -68 -4 -46 -28 19 -21 13 -42 -10 -33 -18 6 -47 -15 -39 -28 3 -5
10 -7 15 -4 5 4 9 0 9 -7 0 -19 -48 -68 -68 -69 -14 0 -14 -2 2 -8 14 -5 16
-10 8 -15 -7 -4 -12 -13 -12 -19 0 -7 11 2 25 18 19 23 24 26 25 13 0 -12 8
-18 22 -18 27 0 90 22 101 35 5 6 7 1 5 -10 -2 -14 -18 -25 -53 -36 -38 -12
-45 -17 -30 -22 11 -3 4 -3 -15 -1 -19 3 -46 1 -60 -5 -20 -8 -21 -10 -6 -10
11 -1 17 -4 14 -7 -4 -3 -23 -1 -43 5 -30 8 -40 7 -52 -4 -13 -13 -12 -15 3
-15 10 0 15 -3 11 -6 -3 -3 -26 1 -50 9 -42 14 -45 14 -61 -4 -20 -24 -36 -17
-29 11 8 31 -7 23 -18 -10 -9 -24 -20 -32 -62 -44 -110 -32 -188 -48 -195 -42
-10 10 17 24 62 32 28 4 35 9 25 15 -9 6 -3 8 21 7 30 -3 35 0 38 20 2 12 10
22 17 22 9 0 12 -6 9 -15 -10 -26 12 -16 24 10 12 26 32 34 32 13 0 -7 5 -5
11 5 12 21 38 22 45 2 9 -21 26 -19 20 3 -5 13 1 21 21 30 27 11 26 11 -14 8
-45 -4 -68 10 -54 33 7 11 11 9 21 -5 10 -17 11 -17 6 4 -3 18 -1 22 10 18 8
-3 27 2 41 11 18 12 28 14 30 6 7 -19 43 -57 49 -50 3 3 -2 20 -13 37 -16 28
-21 31 -53 25 -19 -3 -55 -8 -79 -12 -39 -5 -42 -3 -38 13 3 11 9 36 13 57 5
30 4 36 -9 32 -9 -4 -16 -26 -20 -62 -3 -30 -8 -57 -10 -60 -3 -2 -17 8 -31
22 -29 29 -36 82 -23 180 5 34 0 23 -14 -35 -12 -47 -24 -79 -26 -73 -6 17
-43 -2 -43 -21 0 -8 -9 -39 -21 -68 -16 -44 -25 -54 -42 -54 -18 1 -22 -5 -22
-31 -1 -29 1 -31 15 -18 22 20 30 19 30 -2 0 -18 -50 -53 -76 -53 -8 0 -14 -5
-14 -11 0 -5 5 -7 10 -4 10 6 46 -22 38 -30 -2 -2 -21 -11 -41 -20 -37 -15
-48 -10 -24 14 10 10 8 11 -7 5 -13 -5 -24 0 -37 17 -14 19 -20 22 -30 12 -11
-11 -10 -13 2 -13 8 0 20 -5 26 -11 22 -22 -54 -64 -82 -47 -18 10 -57 -11
-53 -29 2 -10 7 -17 11 -15 5 2 18 -10 30 -25 12 -15 31 -39 43 -52 12 -13 20
-30 17 -38 -4 -9 0 -11 12 -6 12 4 23 0 31 -12 7 -10 20 -15 29 -12 29 12 15
-11 -22 -34 -50 -31 -57 -34 -48 -19 6 9 1 10 -16 5 -13 -5 -46 -9 -74 -9 -42
-1 -51 -5 -62 -26 -7 -14 -11 -32 -8 -40 4 -13 4 -13 -7 0 -7 8 -23 14 -35 12
-13 -2 -23 1 -23 7 0 6 -4 11 -10 11 -5 0 -10 -7 -10 -15 0 -16 -35 -38 -53
-32 -6 2 -18 -3 -26 -11 -13 -13 -12 -17 7 -32 29 -24 31 -55 2 -40 -11 6 -20
7 -20 2 0 -5 -18 -14 -40 -21 -21 -6 -42 -16 -46 -22 -3 -6 8 -26 26 -44 37
-38 34 -52 -16 -61 -31 -6 -54 -27 -42 -39 2 -2 30 3 62 11 l59 15 43 -43 c29
-29 39 -45 31 -50 -18 -12 -25 -10 -30 10 -4 16 -5 16 -6 0 0 -10 -8 -18 -17
-18 -10 0 -14 -6 -11 -14 3 -8 1 -17 -6 -20 -9 -3 -9 -5 1 -5 6 -1 12 -11 13
-23 1 -21 1 -21 10 3 8 21 18 28 44 31 30 3 35 1 36 -17 1 -16 2 -17 6 -2 2 9
9 17 15 17 5 0 0 16 -11 36 -12 20 -19 39 -16 42 3 3 6 3 8 1 1 -2 13 -25 27
-51 13 -27 27 -48 30 -48 3 0 11 -13 18 -30 10 -21 21 -30 37 -30 18 0 22 -4
18 -19 -3 -13 5 -26 27 -41 28 -20 30 -24 15 -32 -12 -7 -23 -4 -41 13 -26 25
-32 23 -37 -9 -5 -33 -15 -37 -37 -17 -20 18 -21 18 -27 -3 -6 -25 -41 -30
-61 -10 -10 10 -15 10 -22 -2 -8 -13 -14 -10 -37 13 -24 23 -26 29 -13 37 11
7 11 10 2 10 -10 0 -10 4 0 23 18 32 21 59 6 55 -7 -3 -14 -18 -16 -34 -2 -16
-8 -33 -13 -39 -5 -5 -9 -19 -9 -31 0 -37 -10 -52 -30 -47 -10 3 -61 -5 -114
-17 -79 -19 -94 -25 -85 -36 9 -11 6 -14 -20 -14 -49 0 -47 -23 5 -73 45 -42
47 -46 31 -62 -27 -26 -21 -37 17 -29 29 5 41 1 70 -23 20 -15 36 -37 36 -48
0 -14 3 -16 8 -7 7 9 13 8 27 -8 17 -18 17 -20 1 -20 -10 0 -14 -5 -10 -11 3
-6 0 -15 -7 -20 -9 -6 2 -7 29 -3 47 7 47 9 27 -66 -8 -30 -13 -55 -11 -57 1
-2 22 3 45 12 23 8 45 14 49 14 20 -3 23 3 11 19 -12 15 -11 15 8 -1 24 -21
50 -17 97 16 l28 20 -7 -34 c-6 -31 -6 -32 8 -15 7 10 19 16 24 13 14 -9 22
-66 11 -74 -15 -8 -69 49 -63 66 4 9 -5 5 -19 -8 -15 -14 -26 -29 -26 -35 0
-6 7 -3 14 6 12 16 14 16 34 -5 30 -32 28 -40 -13 -35 -23 3 -36 -1 -40 -10
-8 -21 -6 -32 5 -32 5 0 36 -24 67 -54 80 -74 119 -106 131 -106 5 0 13 -7 16
-16 9 -24 7 -29 -6 -16 -19 19 -48 15 -48 -7 0 -11 -5 -23 -10 -26 -7 -4 -8 9
-5 38 6 53 -3 60 -61 46 -69 -16 -76 -13 -69 24 4 17 11 37 16 43 12 15 -27
64 -51 64 -10 0 -20 -6 -23 -13 -3 -8 -34 -19 -69 -26 -106 -20 -123 -26 -123
-41 0 -10 -21 -18 -68 -26 -62 -10 -71 -9 -69 7 1 3 -13 19 -30 35 -19 18 -29
23 -25 12 7 -20 -17 -43 -34 -32 -8 4 -9 3 -5 -4 4 -7 18 -9 31 -6 16 4 30 0
41 -10 9 -10 15 -18 13 -20 -15 -12 -240 -54 -229 -43 16 15 83 47 90 42 5 -3
11 -1 14 4 11 18 -12 21 -47 6 -41 -17 -196 -43 -312 -53 l-80 -7 38 -24 c21
-13 47 -33 58 -44 10 -12 19 -18 19 -14 0 10 182 -112 197 -132 7 -9 13 -12
13 -8 0 9 113 -67 142 -95 21 -21 45 -23 51 -5 2 6 3 2 1 -9 -3 -17 3 -23 27
-28 36 -7 58 2 38 16 -10 7 -2 8 23 5 30 -5 36 -3 31 9 -4 12 0 14 23 8 16 -4
30 -11 32 -15 2 -5 10 -2 19 6 20 20 43 19 44 -2 0 -14 2 -13 9 5 13 30 53 29
70 -2 11 -21 10 -27 -4 -41 -9 -9 -16 -13 -16 -8 0 12 -20 -20 -20 -33 0 -6
11 -16 25 -22 17 -8 25 -8 25 -1 0 6 4 8 9 5 5 -3 21 6 35 19 31 29 41 32 32
9 -5 -12 -2 -15 12 -12 16 5 18 1 13 -26 -7 -34 -41 -47 -67 -26 -11 10 -14 9
-14 -4 0 -9 -5 -16 -11 -16 -6 0 -4 -7 4 -15 16 -15 33 -73 24 -81 -9 -9 -58
39 -53 52 3 8 -1 14 -9 14 -8 0 -18 7 -23 16 -8 14 -10 14 -21 0 -11 -13 -11
-16 -1 -16 22 0 0 -15 -23 -16 -65 -3 -204 -30 -215 -41 -7 -7 -28 -13 -45
-13 -18 0 -42 -3 -54 -6 -22 -6 -22 -7 -5 -30 9 -13 23 -24 29 -24 7 0 18 -9
25 -20 7 -11 16 -20 19 -20 4 0 26 -18 50 -40 l44 -40 -43 -171 c-23 -95 -40
-174 -38 -177 7 -7 9 -1 51 178 21 85 38 156 40 158 3 3 60 -34 85 -56 8 -7
28 -22 43 -33 16 -12 26 -27 23 -35 -3 -8 0 -11 10 -7 7 3 14 0 14 -6 0 -6
-15 -12 -32 -13 -18 -1 -40 -2 -48 -4 -8 -1 -21 -2 -28 -3 -7 -1 -10 -6 -6
-13 4 -6 -1 -17 -11 -25 -17 -12 -17 -13 -2 -13 9 0 17 5 17 10 0 18 19 11 56
-22 37 -32 37 -33 13 -39 -13 -4 -41 -7 -61 -8 -31 -1 -38 -5 -38 -21 0 -11
-5 -20 -11 -20 -8 0 -9 -11 -5 -31 3 -19 1 -38 -5 -46 -9 -10 -8 -16 3 -26 9
-7 18 -24 22 -38 5 -21 2 -28 -14 -32 -11 -3 -20 0 -20 6 0 9 -2 9 -8 1 -8
-13 -111 -30 -238 -39 -105 -8 -109 -9 -109 -20 -1 -10 32 -34 132 -101 l52
-34 -40 -152 c-22 -83 -38 -159 -36 -167 2 -9 20 56 41 144 21 88 40 162 42
164 2 2 23 -9 48 -25 34 -21 44 -34 40 -46 -3 -11 0 -18 7 -18 18 0 146 -87
162 -109 7 -11 24 -21 37 -24 22 -5 21 -5 -5 -5 -16 0 -41 -1 -55 -2 -21 -1
-22 -3 -7 -9 10 -4 18 -11 17 -16 -1 -16 82 -115 91 -109 5 3 9 -2 9 -10 0
-20 -9 -20 -32 1 -10 9 -18 11 -18 6 0 -6 -7 -14 -15 -17 -12 -4 -15 2 -13 29
1 24 -4 41 -17 54 -19 17 -25 18 -95 6 -70 -12 -72 -13 -27 -14 l48 -1 -24
-26 c-24 -25 -25 -25 -56 -10 -17 9 -29 21 -26 25 6 11 -20 33 -28 24 -15 -14
-6 -43 12 -43 11 0 23 -5 26 -10 3 -6 1 -10 -4 -10 -6 0 -11 -11 -11 -25 0
-18 -5 -25 -20 -25 -16 0 -19 5 -15 33 4 29 4 29 -6 -6 -13 -43 -32 -51 -24
-10 l5 28 -12 -27 c-12 -29 -12 -29 -157 -46 -35 -4 -66 -12 -68 -18 -2 -7 6
-10 24 -7 16 3 23 1 17 -4 -7 -4 -12 -21 -11 -38 0 -16 -3 -41 -7 -55 l-7 -25
20 24 c12 13 21 29 21 37 0 8 4 14 9 14 5 0 7 -9 4 -20 -4 -14 0 -20 11 -20
10 0 16 9 16 25 0 31 20 75 34 76 6 0 32 3 59 5 43 5 47 3 47 -16 0 -11 -6
-23 -12 -25 -8 -3 -13 -25 -14 -53 0 -28 -7 -59 -17 -72 -9 -14 -17 -19 -17
-13 0 8 -9 9 -27 4 -16 -4 -39 -5 -53 -1 -14 4 -29 4 -35 0 -5 -4 -27 -10 -47
-14 -33 -6 -38 -4 -38 13 0 17 -5 18 -43 14 -111 -13 -113 -11 62 -107 181
-101 168 -81 135 -205 -16 -56 -13 -71 10 -52 19 16 25 -12 14 -67 -6 -28 -14
-42 -25 -42 -12 0 -14 7 -10 35 6 37 4 39 -28 25 -17 -7 -17 -9 -2 -9 18 -1
21 -9 10 -37 -6 -16 -7 -16 -12 -1 -6 16 -8 15 -24 -3 -16 -19 -16 -20 4 -20
17 0 20 -5 17 -25 -6 -29 0 -32 17 -8 14 19 39 8 31 -13 -4 -10 2 -14 18 -14
13 0 39 -2 57 -6 l34 -5 -38 21 c-21 12 -37 27 -34 33 4 13 77 23 77 10 0 -4
4 -14 9 -22 7 -10 13 -11 31 -1 19 10 21 9 18 -7 -2 -10 -10 -17 -16 -16 -7 2
-12 -3 -12 -11 0 -9 26 -17 88 -25 109 -14 212 -14 212 -1 0 6 23 10 51 10 31
0 48 -4 44 -10 -4 -6 20 -10 65 -10 45 0 69 4 65 10 -4 6 -24 7 -48 4 -29 -5
-39 -3 -32 4 6 6 28 12 50 15 39 4 39 4 -10 6 -41 3 -46 4 -25 11 38 12 109
12 90 0 -12 -8 -12 -10 -1 -10 10 0 11 -3 2 -13 -18 -22 -2 -27 91 -27 69 0
87 3 82 12 -6 10 -5 10 8 0 12 -9 103 -12 404 -10 l389 3 2 35 c4 72 14 100
35 100 19 0 20 -4 13 -56 -10 -81 -5 -84 135 -84 105 0 119 2 123 17 4 17 5
17 6 1 1 -16 16 -18 173 -18 191 0 338 16 338 37 0 7 -5 13 -12 13 -8 0 -8 3
-2 9 5 5 31 11 59 12 42 3 50 0 53 -15 3 -15 10 -17 50 -11 93 12 111 17 109
28 -2 13 21 16 152 21 52 3 119 6 150 8 46 2 56 0 59 -14 4 -21 -33 -33 -93
-30 -22 0 -72 -6 -112 -15 -59 -14 -69 -18 -58 -30 18 -18 175 -19 175 0 0 8
4 7 10 -3 8 -12 10 -10 10 8 0 14 4 21 11 17 6 -4 8 -13 5 -21 -4 -12 21 -14
151 -14 l157 0 -39 40 c-47 48 -61 53 -114 41 -46 -10 -46 -10 -26 28 14 28
13 29 -42 85 -30 31 -59 56 -64 56 -5 0 -31 20 -59 45 -28 25 -47 45 -42 45
10 0 43 -26 176 -138 l86 -73 135 19 c107 15 139 23 150 38 13 17 14 17 15 2
0 -10 1 -18 3 -18 2 0 30 5 63 10 32 6 74 13 92 16 19 3 32 11 32 20 0 13 3
13 20 1 17 -12 41 -10 172 9 84 12 154 23 155 23 1 1 4 11 6 24 l4 22 2 -22
c1 -21 4 -22 49 -17 26 4 51 10 55 14 11 10 -184 229 -206 231 -7 1 -1 4 13 8
15 4 49 39 85 86 33 44 73 94 89 110 17 17 21 20 11 7 -15 -18 -16 -25 -7 -31
7 -4 10 -15 6 -24 -9 -24 -27 -21 -21 4 4 16 3 18 -9 8 -8 -6 -14 -17 -14 -23
0 -7 -20 -36 -45 -65 -47 -55 -52 -66 -35 -76 6 -4 8 -14 6 -23 -4 -11 16 -43
53 -90 33 -40 69 -84 80 -98 l20 -25 88 13 87 13 14 78 c8 42 18 77 23 77 12
0 11 -28 -2 -90 -10 -48 -6 -83 6 -46 3 9 8 24 12 34 7 20 9 30 12 57 3 36 22
-10 23 -55 0 -26 5 -40 13 -40 11 0 11 8 4 32 -11 41 -11 58 0 58 5 0 11 -18
15 -40 6 -39 7 -40 46 -40 39 0 39 1 34 30 -7 32 6 40 25 16 8 -10 9 -16 1
-21 -16 -10 -2 -25 23 -25 16 0 18 3 9 12 -8 8 -12 46 -12 104 0 75 3 93 16
98 28 11 34 -4 34 -92 1 -86 1 -87 17 -57 9 17 18 25 20 18 2 -7 0 -21 -6 -31
-6 -11 -8 -21 -6 -24 3 -3 55 3 115 12 106 16 110 16 115 -2 9 -27 1 -34 -46
-37 -23 -1 -46 -4 -50 -7 -4 -2 -31 -6 -61 -9 -106 -11 -109 -19 -38 -96 31
-34 50 -63 50 -78 0 -24 0 -24 -20 -6 -12 10 -30 34 -42 54 -28 45 -33 28 -14
-47 19 -70 19 -75 7 -68 -5 4 -12 25 -16 49 -14 82 -24 74 -25 -20 l0 -93 99
0 c90 0 99 2 104 20 6 25 25 27 23 2 -1 -15 13 -17 151 -20 l152 -3 4 33 4 33
1 -32 2 -32 346 -1 347 0 -7 31 c-3 17 -6 47 -6 67 l0 35 -132 -7 c-73 -4
-143 -10 -155 -12 -16 -4 -23 0 -28 16 -4 14 -2 25 5 30 7 4 70 11 140 15 174
9 165 -3 144 206 -9 90 -20 165 -24 167 -3 1 -4 16 -2 32 5 35 12 35 -181 16
-70 -6 -130 -10 -132 -7 -3 2 -5 12 -5 22 0 20 16 23 198 40 72 7 132 16 132
21 0 4 -4 8 -10 8 -5 0 -10 4 -10 10 0 5 6 7 14 4 11 -4 13 0 9 15 -3 12 -9
21 -14 21 -5 0 -9 5 -9 11 0 5 5 7 10 4 6 -3 10 -2 10 4 0 5 -5 11 -12 13 -6
2 -13 30 -16 62 -4 56 -4 58 19 54 22 -3 25 -9 34 -95 10 -92 27 -132 44 -104
6 8 10 9 12 2 3 -7 112 0 359 25 261 26 360 33 372 25 25 -16 51 -14 45 3 -4
11 12 15 71 20 149 13 160 16 167 43 5 23 33 28 28 5 -3 -13 77 -26 106 -17
21 6 21 10 21 345 0 261 -3 340 -12 344 -10 5 -10 7 0 12 9 4 12 79 12 323 l0
317 -55 -6 c-58 -6 -69 1 -32 22 23 14 29 15 65 17 l22 1 0 295 c0 291 0 295
-21 295 -11 0 -91 -11 -177 -25 -86 -14 -231 -36 -322 -50 -91 -14 -190 -29
-221 -35 -73 -13 -119 -13 -99 0 11 7 7 10 -17 10 -17 0 -33 -5 -35 -12 -2 -6
-10 -8 -16 -4 -24 14 -1 23 90 35 136 18 130 15 124 69 l-5 47 11 -48 c10 -46
12 -49 37 -44 15 3 66 11 115 18 58 8 90 17 93 26 4 11 8 12 13 3 6 -9 31 -8
108 5 56 9 111 14 123 10 13 -4 19 -3 15 3 -3 5 17 13 47 17 28 5 57 9 62 10
6 1 25 3 43 3 l34 2 -5 173 c-2 94 -7 183 -11 197 -6 19 -5 22 3 10 8 -11 11
38 11 177 l0 191 -37 -3 c-21 -2 -45 -5 -53 -8 -27 -10 -120 -27 -145 -27 -20
0 -25 5 -25 24 0 26 7 29 73 41 29 5 37 10 33 21 -3 9 -6 17 -6 18 0 1 -17 1
-37 0 l-38 -3 35 7 c38 8 40 16 26 81 -5 21 -5 31 2 27 5 -3 12 -24 15 -47 6
-47 11 -54 32 -46 18 8 20 40 3 59 -9 9 -11 28 -7 58 3 25 7 39 7 33 1 -8 19
-13 45 -14 23 -1 34 -3 25 -6 -10 -2 -18 -11 -18 -18 0 -7 8 -16 18 -18 11 -3
7 -7 -15 -12 -39 -9 -44 -26 -8 -23 24 2 75 48 75 67 0 5 -8 12 -17 14 -17 4
-17 5 0 6 15 1 17 17 17 184 l0 184 -97 -19 c-278 -53 -318 -63 -318 -78 0 -9
13 -17 35 -21 l35 -6 -32 -8 c-23 -5 -33 -13 -33 -26 0 -11 4 -19 10 -19 9 0
6 -57 -4 -67 -5 -5 -328 -70 -516 -103 -172 -31 -163 -27 -156 -55 3 -13 2
-27 -4 -30 -14 -9 -12 -25 3 -25 9 0 14 -12 14 -31 0 -17 4 -34 10 -37 11 -7
33 -75 33 -102 0 -13 -1 -13 -10 0 -8 12 -10 11 -10 -6 0 -11 9 -30 20 -42 24
-25 25 -38 5 -46 -11 -4 -13 -11 -6 -29 5 -13 6 -29 1 -36 -5 -8 -10 1 -15 26
-4 21 -10 43 -15 48 -5 6 -13 26 -18 45 l-10 35 -2 -50 c-1 -27 -4 -42 -7 -32
-2 9 -11 17 -20 17 -11 0 -14 -6 -10 -21 4 -14 -1 -22 -16 -28 l-21 -8 22 -5
c32 -9 31 -58 -1 -58 -21 0 -25 7 -36 78 -7 42 -15 93 -17 112 -2 19 -9 47
-15 62 -6 16 -9 36 -7 46 3 10 -1 27 -8 37 -12 17 -14 17 -14 2 0 -10 -8 -17
-20 -17 -11 0 -23 -6 -26 -13 -2 -7 -16 -14 -30 -15 -36 -3 -74 -24 -54 -30
28 -8 40 -36 39 -86 -1 -28 -4 -40 -6 -27 -4 21 -9 23 -40 18 -29 -5 -36 -3
-40 13 -6 21 -33 28 -33 9 0 -5 3 -8 8 -6 4 3 7 -16 7 -41 1 -33 5 -46 14 -44
14 3 5 -41 -10 -46 -5 -2 -9 -19 -9 -38 0 -19 -4 -34 -9 -34 -5 0 -7 -8 -4
-19 3 -12 -2 -20 -16 -24 -12 -3 -21 -10 -21 -16 0 -7 10 -9 26 -5 32 8 44 -7
44 -58 0 -21 5 -38 11 -38 6 0 9 -9 6 -19 -5 -21 19 -38 26 -18 6 17 14 7 22
-28 5 -23 4 -26 -4 -15 -9 13 -11 12 -12 -5 l0 -20 -9 20 c-5 11 -9 16 -9 10
-1 -5 -6 -3 -12 5 -9 13 -10 12 -5 -3 3 -10 0 -26 -6 -37 -12 -19 -3 -43 10
-25 4 6 19 10 33 10 20 1 25 -3 21 -17 -5 -21 -18 -24 -25 -5 -3 6 -6 4 -6 -7
-1 -10 -9 -25 -18 -32 -15 -10 -16 -15 -5 -25 9 -10 12 -10 12 -1 0 24 21 11
32 -20 12 -33 12 -33 19 -8 6 22 7 23 14 6 9 -21 -11 -38 -37 -30 -12 4 -15 0
-11 -15 4 -17 8 -19 27 -9 21 11 21 11 2 -10 -14 -16 -17 -30 -12 -57 5 -23 3
-35 -4 -35 -7 0 -9 -8 -5 -20 4 -11 2 -20 -4 -20 -6 0 -8 -6 -5 -14 3 -8 -4
-16 -18 -20 -13 -4 -18 -10 -11 -12 6 -3 24 -22 39 -42 16 -20 22 -32 14 -26
-9 6 -26 8 -40 3 -24 -7 -24 -7 -2 -8 12 -1 22 -7 22 -16 0 -20 -29 -19 -53 3
-19 16 -20 16 -8 -5 13 -25 10 -28 -41 -37 -21 -4 -38 -11 -38 -16 0 -6 -9 -2
-19 7 -11 9 -17 21 -14 26 3 5 9 3 14 -4 14 -23 10 6 -5 36 -15 28 -30 19 -31
-19 0 -16 -14 -24 -70 -38 -46 -12 -72 -15 -79 -8 -7 7 -3 10 12 10 32 0 27
17 -8 23 -20 5 -28 11 -24 21 3 8 1 24 -5 35 -10 17 -9 20 4 15 8 -4 15 -1 15
6 0 6 -11 10 -27 8 -19 -2 -29 -10 -34 -28 -6 -21 -7 -22 -10 -5 -1 11 -2 26
-1 34 1 25 -18 62 -28 56 -5 -3 -10 1 -10 9 0 9 5 16 10 16 14 0 13 37 -1 42
-15 5 -25 98 -10 98 13 0 15 32 2 46 -15 15 -26 114 -12 114 6 0 11 9 11 20 0
11 -4 20 -10 20 -5 0 -12 27 -16 60 -5 49 -10 60 -23 58 -13 -3 -16 -16 -15
-61 2 -72 -14 -76 -18 -4 -3 44 -6 52 -23 52 -18 0 -20 -5 -16 -62 2 -41 -1
-63 -8 -63 -7 0 -11 23 -11 60 0 54 -2 60 -21 60 -19 0 -20 -5 -17 -65 2 -47
0 -65 -9 -65 -7 0 -13 -12 -13 -27 0 -20 -3 -24 -11 -16 -13 13 -39 6 -39 -9
0 -5 5 -6 10 -3 6 4 10 -21 11 -67 2 -105 5 -133 18 -154 11 -17 12 -15 8 11
-3 17 -1 39 3 50 7 16 9 11 10 -20 0 -22 3 -62 5 -88 3 -34 1 -46 -7 -41 -8 5
-9 0 -4 -17 16 -58 19 -84 7 -73 -12 11 -15 22 -26 97 -4 25 -13 48 -21 51
-16 6 -19 43 -4 48 5 2 7 13 3 26 -3 14 -11 21 -19 18 -9 -3 -21 11 -34 42
-16 36 -23 43 -30 32 -7 -11 -10 -5 -10 22 0 20 -3 38 -7 40 -5 2 -16 19 -26
38 l-17 35 4 -40 c3 -22 3 -34 0 -27 -3 6 -10 12 -15 12 -6 0 -7 -5 -3 -12 4
-7 3 -8 -4 -4 -16 10 -15 36 1 36 9 0 9 2 0 8 -7 4 -12 16 -11 27 0 23 -9 96
-14 100 -2 2 -42 -34 -89 -78 -79 -74 -86 -84 -78 -106 10 -24 11 -24 77 40
l67 64 -55 -60 c-30 -33 -58 -61 -62 -63 -5 -2 -8 -10 -8 -17 0 -7 -6 -15 -12
-17 -10 -4 -10 -10 -1 -31 14 -31 7 -36 -13 -9 -12 15 -20 11 -84 -56 -39 -41
-73 -72 -75 -70 -2 2 30 39 70 82 41 43 72 82 69 87 -3 5 2 9 10 9 16 0 21 12
10 23 -11 11 -61 -18 -122 -72 -33 -30 -59 -58 -56 -63 3 -5 6 -41 6 -81 0
-50 5 -83 19 -112 11 -22 14 -32 6 -22 -8 9 -19 17 -25 17 -6 0 -9 7 -6 15 4
8 2 16 -2 16 -61 9 -61 9 -42 -70 13 -56 24 -65 34 -26 8 33 23 33 16 0 -3
-19 0 -25 14 -25 18 -1 18 -1 1 -11 -17 -10 -18 -22 -12 -141 4 -88 10 -139
21 -160 l16 -30 39 38 39 38 -7 98 c-4 63 -2 98 4 98 12 0 67 -52 81 -76 9
-16 12 -16 29 -4 11 9 9 4 -5 -12 -20 -22 -21 -26 -7 -32 9 -3 14 -10 11 -15
-3 -5 1 -11 8 -14 10 -4 15 -20 14 -46 0 -21 3 -44 6 -50 4 -6 3 -11 -3 -11
-14 0 -33 38 -26 50 6 9 -8 14 -27 11 -4 0 -12 9 -18 22 -11 21 -10 21 4 3 17
-21 22 -10 6 14 -8 13 -11 13 -25 0 -19 -19 -33 -110 -16 -110 6 0 11 -4 11
-9 0 -5 -9 -7 -20 -4 -15 4 -20 14 -20 41 l0 37 -36 -37 -37 -36 22 -37 c11
-20 21 -48 21 -63 l-1 -27 -15 28 c-8 15 -19 25 -24 22 -5 -3 -16 7 -24 22 -8
15 -24 38 -35 50 -12 13 -21 25 -21 28 1 22 -3 26 -22 23 -23 -3 -23 -6 -24
-145 0 -131 1 -143 18 -143 10 0 18 -7 18 -15 0 -9 -6 -12 -15 -9 -8 4 -15 1
-15 -5 0 -6 5 -11 10 -11 6 0 11 -10 11 -22 1 -20 2 -21 6 -3 3 10 11 28 18
40 7 11 18 37 25 57 14 46 36 65 25 22 -4 -16 -7 -65 -6 -109 1 -55 -2 -75 -9
-65 -5 8 -7 30 -5 49 7 56 -6 56 -29 0 -12 -30 -26 -54 -31 -54 -6 0 -16 -4
-22 -8 -12 -8 -19 18 -14 47 1 5 -5 4 -13 -4 -19 -15 -19 -15 -6 30 15 50 22
196 13 254 l-8 49 -62 -82 c-64 -84 -71 -99 -52 -118 8 -8 8 -13 -1 -18 -6 -4
-17 1 -25 11 -12 17 -14 18 -20 2 -4 -10 8 -40 34 -80 23 -36 35 -65 29 -67
-13 -4 -40 29 -67 82 l-19 37 -16 -25 c-9 -13 -16 -26 -16 -29 0 -3 -15 -21
-33 -41 -31 -34 -33 -40 -26 -78 5 -23 8 -45 9 -49 0 -13 18 -9 34 8 10 9 16
11 16 4 0 -11 14 -11 117 7 22 3 30 9 26 19 -6 16 13 19 22 4 14 -23 27 -9 22
25 -5 30 -3 35 14 35 12 0 19 -7 19 -20 0 -11 7 -20 15 -20 9 0 15 -9 15 -24
0 -13 8 -34 19 -47 l18 -23 7 22 c4 12 4 26 1 32 -3 5 0 10 8 10 8 0 18 10 23
23 6 18 8 13 11 -26 2 -26 9 -47 14 -47 5 0 4 -6 -3 -14 -11 -12 -15 -9 -24
18 l-11 31 -8 -38 c-8 -43 8 -74 25 -47 7 11 10 6 10 -19 0 -32 -1 -33 -13
-16 -8 10 -19 15 -25 11 -5 -3 -20 6 -31 21 -20 28 -20 28 -21 5 0 -13 4 -20
10 -17 6 3 10 -2 10 -11 0 -14 -3 -15 -12 -6 -30 30 -40 14 -54 -81 -6 -44 -5
-49 11 -45 12 2 19 13 19 31 1 15 -1 27 -4 27 -4 0 -5 14 -2 30 5 32 22 42 22
13 4 -239 4 -323 -2 -323 -5 0 -9 33 -9 73 -3 135 -2 132 -24 132 -13 0 -22
-10 -29 -32 -10 -38 -26 -44 -27 -10 l0 22 -11 -22 c-16 -33 -32 -28 -24 7 4
20 2 30 -7 30 -9 0 -9 2 0 8 7 4 21 43 30 87 10 43 24 80 31 83 13 4 13 -5 -7
-88 -13 -57 -14 -73 0 -65 5 4 8 12 6 18 -2 7 2 27 9 45 7 18 13 36 13 40 -3
21 3 75 8 65 10 -26 23 -12 23 25 0 25 -3 33 -9 23 -6 -9 -56 -20 -153 -32
-143 -18 -143 -18 -160 3 -18 20 -18 20 -18 -6 0 -14 -4 -26 -9 -26 -5 0 -7
10 -4 23 l5 22 -19 -21 c-17 -20 -94 -37 -273 -59 -25 -3 -71 -10 -103 -16
-31 -5 -61 -7 -66 -4 -6 3 -13 0 -17 -6 -4 -8 -9 -7 -15 2 -6 10 -9 11 -9 2 0
-20 -20 -15 -20 5 -1 16 -2 16 -15 -2 -10 -14 -35 -21 -102 -28 -61 -7 -89 -6
-91 1 -5 16 -29 13 -36 -4 -7 -18 -32 -20 -39 -2 -4 8 -6 6 -6 -4 -1 -11 -10
-16 -28 -17 -16 0 -49 -3 -76 -7 -38 -6 -51 -4 -67 10 -19 17 -20 17 -20 -3 0
-11 -4 -24 -10 -27 -5 -3 -10 -2 -10 4 0 6 -18 5 -47 -4 -27 -7 -97 -19 -157
-25 -61 -6 -113 -13 -117 -16 -4 -2 -32 -7 -62 -10 -50 -5 -55 -4 -60 17 -4
13 -5 24 -4 25 1 1 97 14 212 28 116 15 216 29 224 32 8 2 11 12 8 26 -4 12
-2 27 4 34 6 7 12 61 15 121 2 59 6 124 8 143 4 43 8 130 7 150 -1 10 -4 11
-9 3 -6 -10 -120 -33 -321 -65 -35 -5 -74 -8 -87 -5 -13 2 -24 1 -24 -4 0 -4
-8 -8 -17 -8 -10 0 -56 -7 -103 -15 -107 -20 -100 -20 -100 8 0 27 -1 27 133
47 77 12 77 12 78 43 l2 31 4 -28 c5 -34 -12 -35 260 8 119 19 184 33 187 42
3 7 8 53 12 102 l7 89 -43 -9 c-24 -5 -48 -8 -54 -6 -14 6 7 13 56 22 43 7 44
11 52 158 3 64 1 87 -7 84 -7 -3 -11 -10 -9 -16 1 -6 -7 -11 -19 -11 -11 0
-18 -4 -15 -9 7 -10 -17 -21 -42 -20 -14 0 -13 2 3 10 14 6 6 7 -25 3 -25 -4
-46 -10 -48 -14 -1 -4 -15 -5 -30 -3 -22 4 -24 2 -12 -7 12 -9 11 -10 -7 -5
-12 3 -59 -1 -105 -9 -46 -9 -99 -18 -118 -21 -19 -3 -64 -10 -100 -15 -36 -5
-76 -12 -89 -15 -18 -5 -22 -3 -18 9 3 8 1 17 -6 20 -7 2 -5 5 5 5 9 1 20 6
24 12 5 9 -3 10 -28 5 -46 -8 -67 0 -61 24 3 12 16 20 37 23 l31 4 -32 1 c-38
2 -40 8 -16 41 9 14 11 21 5 17 -8 -5 -12 0 -12 12 0 17 11 22 63 31 91 16
108 15 100 -6 -6 -16 -3 -15 17 2 l23 20 -6 -55 c-4 -30 -7 -63 -7 -72 0 -12
-11 -19 -35 -24 -19 -3 -33 -9 -30 -13 5 -9 33 -7 57 4 10 4 29 8 43 9 21 1
25 6 26 34 1 17 3 37 4 42 1 6 3 33 4 60 0 28 6 50 12 50 6 0 8 -8 5 -17 -2
-10 -6 -47 -8 -83 l-3 -65 60 1 c33 1 85 7 115 12 187 35 270 48 270 40 0 -5
6 -3 14 4 20 18 9 30 -16 17 -17 -9 -19 -8 -14 8 3 10 8 52 10 93 3 41 8 97
12 124 6 44 6 48 -12 42 -10 -3 -37 -8 -59 -11 -22 -4 -48 -8 -57 -11 -10 -3
-18 -1 -18 5 0 6 11 11 24 11 13 0 46 7 74 16 49 16 49 16 55 67 4 28 5 52 4
54 -2 1 -13 0 -26 -4 -15 -4 -19 -8 -11 -13 7 -4 -49 -19 -123 -33 -75 -15
-142 -28 -149 -29 -7 -2 -12 3 -10 10 1 6 -5 12 -14 12 -9 0 -12 -5 -8 -12 5
-8 0 -9 -17 -5 -13 4 -32 7 -41 7 -9 0 -19 8 -21 18 -3 9 -6 -3 -8 -28 -2 -25
-4 -61 -5 -80 -6 -77 -17 -140 -26 -140 -5 0 -7 3 -5 8 3 4 8 45 11 92 4 47 9
93 12 103 5 14 1 17 -18 12 -13 -2 -93 -18 -178 -35 -85 -17 -164 -32 -175
-35 -16 -3 -21 1 -23 20 -1 14 2 26 6 26 4 1 21 3 39 5 18 2 51 8 75 14 24 6
54 12 68 14 26 3 72 11 157 27 58 11 56 7 68 154 6 82 15 163 21 203 3 20 1
32 -6 32 -6 0 -8 -4 -5 -10 3 -5 2 -10 -4 -10 -5 0 -17 -3 -27 -7 -13 -5 -15
-3 -9 7 6 10 2 12 -16 7 -13 -4 -30 -7 -37 -7 -7 0 -10 -4 -7 -10 3 -5 2 -10
-4 -10 -5 0 -18 -3 -28 -6 -15 -5 -15 -4 -3 5 24 17 4 14 -207 -31 l-53 -11
-1 -44 c-1 -23 -2 -46 -3 -50 -1 -5 -5 -34 -10 -65 -4 -32 -11 -58 -15 -58 -4
0 -1 37 5 83 7 45 13 94 13 109 1 25 -1 26 -26 18 -16 -5 -54 -14 -85 -20 -32
-6 -58 -15 -58 -20 0 -4 -9 -10 -20 -13 -11 -3 -20 -1 -20 5 0 10 -41 0 -50
-12 -3 -4 -33 -6 -67 -5 -58 1 -63 0 -63 -19 0 -16 31 -41 120 -100 113 -74
121 -78 138 -63 14 13 21 14 30 5 9 -9 12 -9 12 1 0 7 5 9 10 6 6 -4 17 -1 25
5 8 7 24 10 35 7 11 -3 23 -1 26 4 5 9 51 5 61 -5 3 -3 -8 -8 -23 -11 -46 -10
-59 -20 -62 -49 -2 -14 -8 -26 -14 -26 -5 0 -7 7 -4 16 5 12 2 15 -10 10 -8
-3 -22 -6 -30 -6 -8 0 -14 -4 -14 -10 0 -5 7 -10 15 -10 8 0 15 -5 15 -11 0
-6 7 -9 15 -5 11 4 15 -2 15 -23 0 -46 -10 -60 -49 -70 -31 -9 -559 -101 -575
-101 -3 0 -6 8 -6 19 0 15 16 21 108 35 59 10 172 31 252 48 80 16 171 35 203
40 31 6 57 14 57 18 0 4 -15 15 -32 24 -50 25 -72 40 -81 54 -4 6 -22 19 -40
28 -18 9 -34 20 -37 24 -3 4 -43 33 -90 64 -47 32 -92 64 -100 71 -9 8 -27 11
-43 8 -18 -4 -24 -9 -17 -13 8 -5 4 -9 -9 -13 -16 -4 -21 -1 -19 11 2 12 -3
16 -17 14 -11 -2 -21 -8 -23 -13 -2 -5 -16 -9 -30 -10 -24 0 -25 -1 -7 -9 14
-6 15 -9 5 -9 -9 -1 -23 8 -33 19 -20 24 -20 24 73 43 51 10 66 17 68 32 5 26
30 45 58 45 22 0 34 22 34 67 0 12 4 24 8 27 5 3 6 -15 2 -40 -4 -24 -3 -43 1
-42 5 2 41 33 81 70 40 36 94 84 119 105 131 108 219 188 219 200 0 7 -6 10
-15 7 -8 -4 -13 -10 -10 -14 3 -5 -12 -6 -32 -4 -29 4 -34 3 -23 -5 9 -6 10
-11 3 -11 -6 0 -20 -3 -30 -6 -15 -5 -16 -4 -3 6 12 10 11 11 -10 6 -14 -3
-29 -6 -33 -6 -5 0 -5 -5 -1 -12 5 -8 0 -9 -16 -5 -13 3 -61 -1 -107 -10 -70
-14 -86 -15 -93 -3 -5 8 -11 -8 -15 -46 -10 -84 -26 -137 -19 -60 3 33 8 66
12 74 4 12 1 14 -12 9 -10 -4 -25 -7 -34 -8 -14 0 -13 -2 3 -9 14 -6 6 -7 -25
-4 -35 4 -42 3 -30 -6 12 -9 11 -10 -8 -5 -12 4 -48 1 -80 -6 -31 -8 -61 -14
-67 -15 -9 -1 -52 -8 -118 -20 -16 -4 -24 -10 -21 -16 4 -7 2 -8 -5 -4 -6 4
-31 4 -54 0 -35 -6 -39 -8 -22 -15 15 -7 13 -8 -10 -4 -16 3 -51 1 -78 -4 -30
-5 -50 -5 -53 1 -11 18 10 27 101 44 50 10 93 22 96 27 4 5 21 10 40 12 22 2
36 9 43 24 12 27 26 28 19 1 -7 -26 22 -27 36 -1 12 21 5 31 -21 31 -10 0 -18
4 -18 8 0 10 -163 112 -179 112 -5 0 -13 -4 -16 -10 -3 -6 1 -7 9 -4 9 3 16 1
16 -5 0 -17 -37 -13 -60 6 -11 10 -20 26 -20 37 0 11 -8 28 -17 39 -17 18 -17
19 2 16 11 -2 31 -14 45 -26 28 -26 49 -31 30 -8 -11 13 -9 15 17 13 17 -1 42
6 56 15 14 9 28 13 32 8 9 -16 -14 -61 -37 -71 l-23 -9 23 0 c12 -1 21 -6 20
-12 -2 -6 21 -27 50 -46 51 -33 54 -34 59 -14 3 12 10 21 15 21 6 0 7 -11 4
-24 -3 -14 -1 -28 6 -32 6 -4 9 -3 6 2 -8 13 9 54 22 54 6 0 8 -4 5 -10 -3 -5
-2 -10 2 -10 5 0 14 12 20 28 l11 27 1 -25 c1 -18 4 -21 10 -11 12 18 31 5 31
-21 0 -16 -5 -19 -25 -16 -14 3 -25 2 -25 -2 0 -4 -10 -11 -22 -15 l-23 -7 25
-7 c16 -4 30 -2 38 6 18 18 22 16 22 -7 0 -13 -9 -22 -25 -26 -14 -4 -24 -9
-21 -11 2 -3 19 0 38 6 18 6 60 13 92 17 41 4 55 9 45 15 -11 7 -9 9 6 7 41
-3 54 3 63 30 9 24 10 25 11 5 1 -13 7 -23 15 -23 26 0 140 41 148 53 14 22 8
35 -14 31 l-23 -5 22 12 c12 6 26 25 32 40 10 29 31 40 31 17 0 -6 10 -2 23
10 13 12 35 22 50 22 17 0 27 5 27 15 0 9 9 15 24 15 29 0 56 9 56 19 0 5 -34
-1 -75 -12 -41 -11 -72 -23 -70 -27 2 -4 -17 -7 -43 -7 -26 0 -39 2 -29 4 22
6 12 23 -14 23 -11 0 -33 10 -48 21 -33 24 -55 18 -45 -13 5 -17 3 -19 -15
-13 -18 5 -22 1 -27 -24 -4 -17 -10 -31 -14 -31 -5 0 -6 8 -3 18 3 11 -7 25
-26 40 -43 32 -40 56 8 71 22 6 42 19 44 29 4 13 5 12 6 -4 1 -27 37 -39 46
-16 5 13 8 14 14 3 7 -11 13 -11 32 -1 13 7 27 18 31 24 13 19 18 0 8 -33 -9
-33 -4 -61 11 -61 5 0 9 15 9 33 0 54 20 79 74 94 27 8 60 13 73 10 13 -2 26
0 29 4 3 5 14 9 25 9 13 0 19 7 19 22 0 16 10 7 41 -36 23 -32 38 -60 35 -63
-3 -3 -1 -12 4 -18 8 -10 2 -16 -21 -24 -18 -6 -40 -11 -50 -11 -11 0 -19 -5
-19 -11 0 -6 9 -8 20 -4 11 3 20 2 20 -3 0 -6 15 -6 40 0 36 9 42 8 60 -13 20
-23 21 -23 15 -2 -3 12 -1 25 6 28 19 12 148 43 153 37 4 -3 6 -18 6 -33 0
-21 -6 -29 -22 -32 l-23 -4 23 -2 c15 -1 22 -7 22 -20 0 -16 5 -18 28 -12 30
8 34 24 46 221 4 52 8 102 11 110 2 8 6 53 10 100 4 47 9 87 12 90 2 3 1 -44
-3 -105 -5 -60 -9 -141 -9 -180 0 -38 -3 -72 -6 -75 -9 -7 -21 -150 -13 -150
3 0 32 7 64 15 32 8 66 14 77 13 28 -3 113 13 119 23 3 5 18 9 34 9 16 0 32 5
35 10 3 6 14 10 23 10 36 0 42 15 48 121 12 218 13 204 -21 203 -16 0 -22 1
-12 3 9 3 17 9 17 14 0 5 7 9 15 9 9 0 14 10 14 28 0 15 3 59 7 97 5 57 3 68
-7 58 -7 -7 -22 -13 -33 -13 -16 0 -17 -3 -8 -9 11 -6 9 -9 -7 -14 -11 -2 -21
-1 -23 4 -4 13 -68 -1 -65 -14 1 -6 -6 -13 -17 -15 -13 -3 -16 0 -11 9 6 9 2
10 -16 6 -13 -4 -30 -7 -37 -7 -7 0 -11 -4 -8 -9 6 -9 -16 -21 -37 -21 -7 0
-6 5 3 11 12 9 12 10 -3 5 -10 -3 -28 -6 -38 -6 -12 0 -17 -5 -14 -10 4 -7 -2
-9 -17 -5 -28 6 -141 -28 -131 -40 5 -4 0 -5 -10 -2 -17 6 -373 -77 -439 -102
-15 -6 -33 -8 -40 -6 -7 3 -31 -11 -52 -31 -52 -48 -156 -134 -162 -134 -2 0
-4 5 -4 10 0 6 5 10 11 10 12 0 139 112 139 123 0 4 -16 0 -36 -8 -20 -8 -40
-12 -45 -9 -5 3 -64 -9 -131 -25 -68 -17 -134 -32 -148 -34 -14 -2 -32 -6 -40
-9 -8 -4 -49 -14 -90 -23 -52 -12 -85 -26 -108 -46 -41 -36 -54 -38 -21 -3 22
24 22 26 4 21 -11 -3 -45 -10 -75 -16 -60 -11 -121 -29 -105 -30 15 -2 -18
-21 -35 -21 -13 0 -13 1 0 11 11 7 6 8 -20 3 -19 -3 -39 -13 -44 -21 -5 -10
-18 -13 -40 -9 -17 3 -44 2 -61 -3 -22 -7 -25 -10 -10 -11 l20 -1 -20 -8 c-11
-5 -22 -5 -25 -1 -8 13 -33 14 -59 3 -16 -6 -20 -12 -13 -17 7 -4 12 -17 11
-29 -1 -20 -2 -20 -8 3 -6 22 -12 25 -47 23 -59 -4 -90 -13 -75 -22 9 -6 8
-10 -7 -13 -16 -5 -18 -1 -14 16 4 17 0 15 -29 -12 -19 -19 -42 -38 -52 -44
-17 -9 -17 -7 -7 13 12 21 11 22 -29 16 -22 -3 -41 -2 -41 2 0 16 50 50 65 45
8 -4 15 -2 15 2 0 5 27 9 60 9 33 0 60 3 60 6 0 4 9 9 20 12 11 3 20 1 20 -4
0 -14 17 -11 34 7 9 8 37 19 63 23 61 11 226 48 276 63 l38 12 -28 11 -28 11
44 11 c39 10 44 10 48 -8 3 -10 8 -19 12 -19 12 0 33 17 31 26 -1 5 4 10 11
13 8 2 10 -2 5 -14 -5 -14 -3 -16 11 -10 10 4 39 13 64 20 49 13 109 51 109
69 0 6 18 21 40 33 22 12 38 17 35 12 -4 -5 -1 -9 5 -9 6 0 8 -5 5 -11 -4 -6
-13 -8 -21 -5 -8 3 -14 0 -14 -6 0 -6 11 -8 30 -4 22 4 30 2 30 -9 0 -15 20
-14 105 5 22 5 55 12 73 14 44 6 57 18 60 57 1 17 6 38 11 47 5 9 6 -6 3 -36
l-4 -51 73 21 c40 11 83 27 96 35 12 8 24 14 27 14 4 -1 6 2 6 7 -1 4 -14 6
-29 6 l-28 -2 21 22 c13 14 25 19 32 14 7 -5 14 -2 18 7 9 24 59 15 71 -12 5
-13 17 -23 25 -22 11 0 11 2 2 6 -10 4 -10 8 0 21 11 13 10 15 -4 10 -9 -4
-19 -1 -21 7 -7 17 1 25 25 25 10 0 28 11 40 25 24 28 43 33 34 9 -5 -13 -1
-15 22 -10 92 18 102 19 102 2 0 -9 -4 -16 -9 -16 -4 0 -6 -11 -3 -25 2 -14 9
-25 14 -25 6 0 8 9 5 21 -3 13 0 22 10 26 12 5 12 7 1 15 -20 13 11 32 87 52
59 17 66 17 80 2 9 -9 12 -16 6 -16 -6 0 -25 -9 -43 -21 -33 -21 -33 -21 -5
-16 15 2 27 0 27 -4 0 -14 46 -11 58 4 5 6 13 46 16 87 13 160 19 211 28 216
5 4 7 -8 4 -28 -5 -28 -26 -218 -26 -232 0 -2 25 2 56 11 31 8 58 12 61 10 2
-3 -22 -11 -54 -19 -36 -8 -59 -20 -61 -29 -2 -12 34 -6 183 31 102 26 187 49
190 51 5 6 13 76 21 191 6 88 5 98 -9 92 -12 -4 -15 0 -14 21 1 14 9 30 17 35
11 6 18 41 26 117 9 88 11 97 12 48 1 -33 -3 -105 -8 -160 -6 -68 -5 -102 2
-106 6 -4 7 -8 1 -10 -15 -6 -23 -109 -9 -109 6 0 26 4 45 10 19 5 30 6 27 2
-4 -4 -24 -12 -44 -18 -37 -11 -36 -11 20 -10 33 1 60 6 62 12 2 7 40 19 83
29 117 25 115 24 107 47 -4 14 -2 18 5 14 6 -4 11 -2 11 3 0 6 -8 11 -17 11
-18 0 -55 63 -59 98 0 9 -3 22 -5 27 -6 20 13 75 27 76 17 2 15 1 81 18 l53
13 -2 57 c-1 31 2 63 7 70 6 10 4 13 -6 9 -8 -3 -40 -11 -72 -18 -32 -8 -53
-17 -46 -20 6 -4 -7 -7 -29 -6 -45 1 -47 11 -5 19 28 5 147 37 149 40 8 10 13
47 7 46 -4 -1 -82 -20 -173 -44z m-374 -302 c15 -16 15 -17 -2 -24 -12 -5 -14
-8 -4 -8 10 -1 11 -4 2 -13 -13 -13 -192 -61 -200 -53 -3 3 0 5 6 5 7 0 12 5
12 11 0 6 -12 8 -27 6 -55 -9 -83 -19 -77 -28 3 -5 -2 -6 -11 -3 -21 8 -110
-17 -95 -26 15 -9 -33 -22 -53 -14 -8 3 -35 0 -58 -7 -24 -6 -60 -15 -79 -19
-19 -4 -104 -26 -189 -49 -85 -23 -168 -43 -185 -46 -17 -3 -73 -16 -125 -30
-74 -20 -97 -22 -108 -13 -12 10 0 16 64 34 43 12 72 23 64 23 -21 1 -4 15 24
18 14 2 25 -1 25 -6 0 -5 8 -7 19 -4 13 3 17 11 13 25 -5 20 -4 20 23 2 26
-17 28 -17 37 0 7 12 17 16 32 12 12 -3 78 9 146 27 94 25 125 38 131 53 7 18
8 18 8 0 1 -13 6 -16 19 -11 9 3 40 11 67 17 28 5 101 22 163 35 105 24 112
27 112 50 0 15 5 23 13 20 6 -2 11 -12 11 -21 -2 -17 10 -19 41 -6 17 7 17 9
3 9 -20 1 -25 21 -5 21 6 0 23 3 37 7 22 6 24 5 11 -10 -14 -18 -5 -22 23 -11
9 3 16 12 16 19 0 26 71 32 96 8z m-1249 -325 c-2 -7 -15 -12 -27 -10 -13 1
-27 -3 -31 -9 -7 -12 -248 -73 -257 -65 -2 3 -14 0 -26 -6 -11 -6 -43 -17 -71
-24 l-50 -13 45 4 45 5 -50 -15 c-58 -17 -76 -19 -55 -5 22 14 7 12 -82 -11
-44 -11 -87 -18 -94 -15 -7 3 -16 1 -19 -4 -4 -6 -26 -15 -50 -21 -25 -6 -43
-15 -40 -19 3 -4 -2 -11 -11 -14 -8 -3 -12 -2 -9 4 3 6 1 10 -4 10 -6 0 -11 5
-11 10 0 11 29 25 73 35 15 3 25 10 22 15 -3 5 5 12 17 16 24 7 35 4 30 -8 -1
-5 2 -8 8 -8 5 0 10 6 10 14 0 8 23 19 60 29 33 8 60 11 60 6 0 -5 9 -9 20 -9
11 0 20 6 20 14 0 7 9 16 20 19 11 3 20 1 20 -4 0 -5 -8 -9 -17 -9 -9 0 -14
-3 -10 -6 3 -3 30 1 59 9 93 27 161 45 223 57 33 7 83 19 110 26 65 16 78 17
72 2z m-31 -586 c-5 18 3 22 67 34 35 6 37 5 37 -19 0 -37 -10 -56 -26 -50 -8
3 -14 -1 -14 -11 0 -9 -3 -16 -8 -16 -14 0 -31 38 -26 61 5 23 5 23 -10 5 -10
-12 -13 -29 -9 -49 5 -26 4 -29 -11 -24 -21 8 -44 -12 -39 -34 6 -21 -21 -31
-52 -19 -20 8 -25 6 -25 -6 0 -10 -6 -14 -14 -11 -7 3 -19 0 -25 -6 -9 -9 -14
-9 -19 -1 -4 6 -16 14 -27 18 -11 3 -26 15 -33 27 -11 17 -11 25 3 45 8 13 22
24 30 24 8 0 15 4 15 10 0 5 15 9 33 8 45 -2 107 20 107 38 0 10 9 5 26 -13
16 -17 24 -21 20 -11z m4964 -347 c-7 -8 -9 -26 -5 -43 l6 -29 -88 -16 c-472
-85 -623 -107 -643 -97 -22 12 -28 35 -7 27 10 -4 12 4 10 27 l-4 31 20 -24
c12 -13 21 -18 21 -10 0 9 3 10 10 3 7 -7 39 -6 100 4 79 13 90 17 91 36 1 17
2 18 6 4 5 -22 10 -22 114 -3 130 24 129 23 130 48 l2 22 4 -23 c3 -17 10 -21
26 -17 12 2 51 9 87 15 88 15 100 19 100 35 0 11 11 20 29 24 2 1 -2 -6 -9
-14z m-5476 -247 c-3 -24 -14 -61 -24 -83 -10 -22 -20 -56 -23 -76 -7 -45 -2
-49 142 -148 100 -68 131 -83 131 -61 0 6 5 10 11 10 6 0 8 -9 4 -21 -5 -16 0
-27 19 -43 19 -16 23 -25 16 -36 -8 -13 -10 -13 -10 2 0 20 -29 38 -49 30 -8
-3 -11 0 -7 6 4 6 -50 51 -126 106 l-133 95 -6 -67 c-3 -37 -13 -96 -21 -132
-8 -36 -21 -103 -28 -150 -7 -47 -19 -99 -26 -117 -8 -17 -14 -46 -15 -65 -1
-18 -5 -42 -9 -53 -16 -42 -36 -122 -49 -198 l-8 -48 141 -114 141 -114 10 29
c23 66 31 41 9 -31 -2 -9 6 -21 21 -29 14 -8 24 -19 21 -26 -2 -6 -10 -30 -17
-53 -7 -23 -16 -41 -21 -41 -10 0 -10 -4 6 52 13 40 13 48 1 58 -8 7 -18 9
-24 6 -5 -4 -11 0 -13 8 -3 13 -153 144 -240 210 l-38 28 0 -48 c0 -46 -27
-205 -48 -286 l-10 -38 42 6 c22 3 81 12 131 19 65 10 93 11 102 3 9 -7 10
-15 5 -20 -10 -10 -140 -31 -182 -30 -14 1 -35 -4 -48 -10 -18 -10 -25 -9 -31
1 -12 18 -18 5 -26 -54 -5 -42 -21 -119 -62 -320 -6 -28 -2 -26 73 40 246 217
253 225 270 281 8 30 20 57 26 60 6 4 8 -1 5 -12 -25 -82 -25 -82 36 -30 33
30 53 54 50 62 -3 8 -1 20 5 27 5 6 12 21 15 32 4 16 5 14 6 -7 0 -14 -3 -28
-9 -30 -6 -2 -4 -24 5 -58 20 -74 17 -108 -3 -43 l-17 52 -22 -23 c-12 -12
-25 -35 -28 -49 -4 -15 -12 -27 -17 -27 -6 0 -8 7 -4 15 3 8 2 15 -1 15 -11 0
-53 -43 -53 -54 0 -27 -22 -86 -32 -86 -5 0 -7 7 -4 16 23 61 18 63 -33 14
-29 -28 -55 -50 -60 -50 -12 0 -131 -118 -131 -130 0 -6 -8 -10 -18 -10 -34 0
-70 -51 -79 -110 -4 -30 -8 -58 -8 -62 0 -9 266 -238 277 -238 3 0 8 10 10 22
2 12 9 23 16 26 9 3 10 -3 2 -23 -16 -41 -12 -51 25 -76 31 -22 34 -28 29 -59
-5 -31 -4 -33 9 -17 8 9 23 17 34 17 49 0 83 13 83 31 0 28 48 26 52 -2 3 -20
4 -20 43 6 24 17 41 23 43 16 6 -19 20 -12 25 11 4 21 4 21 6 -2 1 -33 35 -37
56 -7 13 18 17 19 25 8 7 -12 15 -13 44 -4 22 7 36 7 38 1 2 -6 40 -5 106 2
56 7 111 10 122 7 10 -3 20 -1 22 3 2 4 66 15 143 24 140 16 271 33 333 42 26
4 32 9 32 29 0 14 5 25 10 25 6 0 8 -11 4 -27 -7 -26 -6 -26 32 -20 21 4 116
14 209 23 233 21 230 21 244 47 l11 22 -6 -23 c-5 -20 -2 -22 18 -18 62 13
117 16 122 7 4 -6 18 -5 39 3 32 14 275 43 312 38 10 -1 23 -8 27 -15 5 -8 8
-7 8 4 0 19 28 29 83 29 25 0 37 5 37 14 0 7 7 20 16 27 14 11 19 10 35 -10
11 -13 22 -21 26 -18 3 4 1 13 -5 20 -7 8 -9 17 -5 20 12 13 22 7 25 -15 3
-25 1 -24 98 -13 30 4 84 10 120 13 64 7 65 7 68 40 4 37 22 44 22 8 0 -34 10
-37 74 -30 48 6 57 10 65 33 9 24 9 25 10 4 1 -28 31 -31 31 -4 0 11 5 23 10
26 6 3 10 1 10 -4 0 -6 5 -11 11 -11 5 0 7 5 3 11 -6 10 11 28 27 29 4 0 9
-13 12 -30 5 -21 12 -30 27 -30 27 0 24 -49 -5 -60 -42 -16 -227 -32 -238 -21
-16 16 -37 14 -37 -3 0 -8 -8 -15 -17 -15 -10 0 -45 -3 -78 -6 -33 -4 -78 -8
-100 -10 -22 -3 -98 -11 -170 -20 -71 -8 -140 -13 -152 -10 -15 3 -23 1 -24
-7 0 -9 -2 -9 -5 -2 -4 9 -12 8 -32 -1 -15 -8 -79 -17 -144 -21 l-116 -7 -5
24 c-4 21 -4 21 -6 -5 -1 -28 -3 -28 -41 -23 -22 3 -43 1 -46 -4 -3 -5 -25 -9
-50 -9 -33 0 -44 4 -44 16 0 24 -20 6 -21 -19 0 -12 -3 -17 -5 -10 -4 8 -12 9
-27 3 -12 -5 -78 -14 -147 -20 -69 -7 -141 -14 -160 -16 -100 -12 -115 -12
-132 3 -17 15 -18 14 -18 -7 0 -15 -4 -20 -15 -17 -8 4 -17 2 -20 -3 -3 -6
-20 -10 -38 -9 -27 0 -194 -14 -405 -35 -30 -3 -57 -8 -62 -11 -19 -12 -254
-38 -327 -37 -25 1 -43 -4 -43 -10 0 -7 -5 -7 -14 1 -11 9 -15 9 -19 -1 -3 -7
-6 -2 -7 12 -1 14 -4 19 -7 12 -6 -15 -67 -42 -94 -42 -11 0 -19 6 -19 13 0 8
-3 7 -10 -3 -7 -11 -30 -16 -82 -17 -40 -1 -75 -3 -78 -4 -3 -1 -9 -1 -14 0
-4 1 -14 -3 -22 -10 -7 -6 -30 -9 -51 -8 -21 2 -67 -2 -103 -8 -36 -7 -98 -15
-138 -18 -73 -5 -73 -5 -66 17 3 13 7 24 8 25 1 1 60 9 131 18 72 9 135 17
142 20 6 2 14 17 18 34 4 17 11 31 16 31 11 0 11 -3 -1 -34 -9 -25 -9 -26 35
-24 40 2 45 5 45 25 0 13 -4 23 -10 23 -5 0 -10 -7 -10 -15 0 -8 -4 -15 -9
-15 -4 0 -6 12 -3 26 5 30 -15 49 -35 32 -10 -8 -13 -6 -13 10 0 13 -25 43
-66 79 -37 32 -96 84 -132 116 -74 66 -80 64 -88 -26 -3 -29 -8 -59 -11 -67
-5 -15 -17 -91 -29 -183 -5 -32 -13 -51 -25 -58 -11 -5 -19 -18 -19 -28 0 -13
-9 -20 -31 -23 -27 -4 -30 -3 -25 18 5 19 3 21 -15 17 -15 -4 -17 -8 -8 -14
19 -11 6 -20 -39 -29 -65 -11 -91 13 -37 34 12 5 15 10 8 13 -20 7 -53 -16
-53 -37 0 -16 -7 -20 -31 -20 -24 0 -30 4 -25 15 4 10 -1 15 -14 15 -11 0 -20
1 -20 3 0 3 37 182 74 352 8 39 22 122 31 185 17 123 94 517 125 640 11 41 31
152 45 245 14 94 39 229 55 300 50 219 100 453 100 471 0 27 51 248 60 257 11
12 193 51 258 56 21 1 22 -2 16 -41z m-518 -17 c13 -25 6 -47 -23 -79 -16 -16
-17 -26 -3 -17 6 4 10 -6 10 -24 0 -36 -27 -55 -62 -42 -13 4 -33 7 -45 6 -34
-3 -38 34 -5 41 44 10 48 12 20 13 -16 1 -28 3 -28 6 0 2 5 27 11 56 l11 51
39 -38 c21 -21 39 -33 39 -28 0 6 -14 23 -30 39 -28 26 -29 30 -13 37 33 13
67 4 79 -21z m5205 10 c-11 -7 -12 -17 -5 -43 8 -28 14 -33 37 -31 33 2 36
-14 5 -20 -20 -4 -20 -4 4 -6 25 -1 27 -5 33 -58 3 -32 10 -80 15 -108 17 -91
32 -236 26 -250 -8 -21 -34 -19 -40 3 -2 9 -8 40 -11 69 -4 28 -12 54 -20 56
-7 3 -18 36 -25 74 -7 37 -15 62 -17 55 -3 -6 -9 -10 -14 -6 -14 8 -11 24 6
24 23 0 18 18 -12 47 -16 15 -23 23 -17 20 7 -4 17 0 24 8 10 12 9 15 -4 15
-9 0 -16 8 -16 19 0 11 -4 21 -10 23 -5 2 -6 14 -3 28 7 24 8 23 20 -15 12
-38 12 -36 6 33 -5 66 -4 72 13 72 15 0 16 -2 5 -9z m-3732 -430 c-8 -2 -41
-30 -74 -61 -33 -31 -92 -81 -131 -113 -65 -52 -72 -61 -84 -112 -11 -47 -16
-55 -37 -55 -14 0 -23 6 -23 15 0 14 -3 14 -29 1 -15 -8 -42 -31 -59 -50 -17
-20 -37 -36 -43 -36 -7 0 -4 10 8 23 15 16 19 28 13 44 -8 18 -13 20 -44 13
-20 -4 -36 -5 -36 -1 1 24 15 51 27 51 8 0 12 3 10 8 -3 4 33 8 80 9 56 2 91
8 106 18 12 8 16 15 9 15 -6 0 -12 5 -12 11 0 7 9 9 23 5 19 -4 48 16 163 118
76 67 141 118 143 112 2 -5 -2 -12 -10 -15z m-743 -37 c-4 -14 -3 -23 2 -20 5
3 35 7 66 10 50 4 57 2 54 -12 -2 -10 -13 -17 -26 -16 -12 0 -22 -2 -22 -6 0
-3 -11 -7 -26 -8 -14 -1 -34 -7 -45 -13 -14 -7 -24 -7 -33 0 -9 7 -19 6 -34
-5 -12 -8 -32 -14 -45 -13 -12 2 -44 -2 -72 -8 -27 -7 -57 -12 -65 -12 -8 0
-25 -3 -37 -6 -17 -6 -23 -3 -23 8 0 21 9 26 54 29 21 1 40 6 42 10 7 11 48
10 60 -2 7 -7 18 -4 35 9 14 11 38 21 54 23 21 2 34 11 43 31 17 34 26 35 18
1z m748 -11 c-2 -21 -8 -63 -13 -93 -5 -30 -8 -56 -7 -57 0 -1 21 3 46 7 85
17 91 15 86 -27 -3 -21 -5 -41 -5 -45 -1 -5 -9 -8 -20 -8 -10 0 -21 -9 -24
-20 -6 -25 0 -25 26 -2 19 16 20 16 15 -10 -5 -29 -1 -32 40 -28 21 1 22 -1
12 -20 -6 -12 -18 -19 -25 -16 -8 3 -15 1 -17 -5 -4 -11 -125 -32 -143 -25 -9
3 -16 -23 -25 -87 -7 -51 -15 -87 -17 -80 -2 6 0 42 5 80 5 37 8 71 6 75 -2 3
-19 2 -37 -3 -33 -9 -226 -43 -310 -55 -47 -6 -49 -6 -45 17 2 19 11 25 48 31
219 36 229 38 232 66 2 18 11 28 28 33 25 7 25 7 -3 8 -24 1 -27 4 -22 21 4
12 2 20 -5 20 -8 0 -10 -10 -8 -25 3 -15 1 -25 -6 -25 -6 0 -28 -3 -48 -6
l-38 -7 0 47 c0 53 -7 50 120 66 52 7 100 14 106 17 12 5 19 34 30 127 5 47
10 66 19 66 2 0 1 -17 -1 -37z m3019 -98 c9 -20 17 -41 17 -48 0 -7 14 -18 31
-24 38 -15 29 -33 -17 -33 -19 0 -34 -4 -34 -10 0 -5 6 -9 12 -7 21 4 22 -42
1 -49 -10 -3 -26 -10 -36 -15 -22 -12 -40 -2 -33 17 3 8 1 14 -5 14 -14 0 -39
26 -39 41 0 7 -7 21 -17 31 -15 17 -15 18 5 18 12 0 22 5 22 10 0 6 -5 10 -11
10 -5 0 -7 5 -3 11 3 6 0 15 -7 20 -17 10 -9 18 38 34 54 20 57 19 76 -20z
m-3732 -315 c30 0 5 -38 -36 -56 -44 -18 -50 -18 -35 1 9 11 9 15 1 15 -6 0
-14 -6 -17 -14 -7 -19 -72 -30 -90 -15 -11 9 -14 8 -14 -4 0 -10 -19 -18 -67
-26 -38 -7 -75 -14 -85 -15 -9 -2 -18 4 -21 15 -6 22 -37 16 -37 -7 0 -8 -4
-14 -10 -14 -15 0 -12 26 5 40 8 6 20 10 27 7 7 -2 20 -1 28 3 8 5 33 11 55
14 99 15 105 18 111 42 6 25 28 32 39 14 4 -6 1 -9 -6 -8 -6 2 -14 -3 -16 -11
-4 -10 4 -12 38 -7 93 14 99 17 100 39 1 17 2 18 6 5 2 -10 13 -18 24 -18z
m325 -122 c46 -32 93 -58 105 -58 11 0 17 -4 14 -10 -10 -17 43 -23 106 -11
34 6 66 8 72 4 5 -3 7 0 5 8 -3 8 -16 13 -29 12 -22 -2 -22 -2 -4 6 11 5 23 7
26 5 4 -2 9 4 12 15 4 16 9 17 50 7 25 -5 43 -14 41 -18 -3 -4 11 -8 31 -8 20
0 34 -4 31 -9 -3 -5 -8 -26 -12 -47 -3 -22 -9 -42 -12 -45 -4 -4 -29 -10 -57
-13 -36 -5 -46 -4 -35 3 12 9 9 11 -12 11 -22 0 -28 -5 -28 -22 0 -19 6 -23
34 -24 19 0 34 4 33 10 -1 5 15 13 36 16 26 5 37 3 37 -5 0 -20 -22 -33 -72
-40 -26 -4 -46 -11 -43 -15 2 -4 43 -2 90 5 47 6 88 9 90 6 3 -2 5 -12 5 -22
0 -20 -8 -23 -108 -39 -57 -9 -76 -9 -88 0 -8 7 -15 11 -17 9 -1 -2 -11 -21
-21 -42 -11 -21 -29 -43 -40 -49 -42 -21 -166 -152 -166 -175 0 -19 -5 -23
-32 -23 -25 0 -46 -13 -99 -62 -142 -131 -173 -158 -182 -158 -6 0 -2 9 8 20
11 12 21 41 23 68 2 26 8 54 13 62 7 12 4 -45 -5 -80 0 -3 2 -7 5 -10 9 -7
219 181 219 197 0 7 6 13 14 13 8 0 60 41 116 91 77 69 98 94 88 101 -9 7 -7
8 10 5 13 -3 22 0 22 7 0 10 -11 10 -49 2 -28 -5 -48 -13 -45 -17 5 -8 -21
-19 -44 -18 -14 0 -13 2 3 9 18 8 18 9 -5 9 -31 0 -111 -16 -87 -18 24 -1 11
-21 -14 -21 -13 0 -18 4 -13 11 5 9 -9 9 -52 3 -32 -4 -71 -8 -86 -8 -16 -1
-28 -4 -28 -7 0 -3 -12 -7 -27 -7 -16 -1 -65 -8 -111 -15 -46 -8 -85 -10 -88
-5 -7 11 4 14 115 32 52 9 96 17 97 19 2 2 8 21 13 43 l10 39 -2 -38 -3 -39
40 7 c23 4 66 11 96 15 145 23 185 32 188 41 2 5 13 9 23 9 11 0 17 5 14 10
-3 6 -15 10 -26 10 -10 0 -19 5 -19 10 0 6 6 9 13 8 6 -2 11 3 9 10 -1 6 2 12
8 12 5 0 10 -4 10 -10 0 -5 14 -10 30 -10 35 0 40 -17 8 -23 -19 -4 -18 -4 5
-6 24 -1 28 2 25 22 -2 15 -10 22 -25 21 -12 0 -20 3 -17 8 3 4 -13 8 -35 8
-23 0 -41 5 -41 11 0 5 4 8 9 5 5 -3 12 1 15 10 5 13 1 15 -20 10 -22 -6 -25
-4 -20 9 4 11 -2 24 -16 36 -29 23 -39 24 -32 2 5 -15 4 -15 -4 -3 -6 8 -8 18
-6 22 3 4 -4 8 -15 8 -12 0 -20 4 -18 9 2 8 -79 71 -146 114 -22 14 -25 20
-15 31 11 12 14 11 16 -3 2 -9 41 -42 88 -73z m658 0 c-3 -4 0 -8 7 -8 15 0 3
-101 -14 -112 -9 -6 -9 -8 0 -8 14 0 6 -31 -11 -42 -6 -4 -27 -8 -48 -8 -31 0
-35 3 -31 19 3 12 16 22 32 24 14 2 2 2 -28 0 -30 -3 -61 -7 -69 -11 -10 -3
-13 -1 -8 6 4 7 18 12 32 12 16 0 24 6 24 18 0 10 -3 13 -8 7 -8 -13 -52 -17
-52 -6 0 5 -3 22 -6 38 -5 27 -3 31 20 35 26 5 37 -14 16 -27 -5 -3 -10 -14
-9 -23 0 -10 3 -12 5 -5 3 7 11 10 18 7 7 -3 19 2 26 11 7 8 19 15 26 15 8 0
14 9 14 19 0 12 8 21 23 24 12 2 3 2 -20 0 -28 -3 -43 0 -43 7 0 6 -4 8 -10 5
-5 -3 -10 -2 -10 3 0 5 29 9 64 9 36 0 63 -4 60 -9z m-378 -598 c20 0 24 -5
24 -31 0 -29 -2 -31 -30 -27 -16 3 -30 1 -30 -3 0 -4 -8 -8 -17 -7 -16 0 -94
-11 -196 -28 -33 -6 -37 -5 -31 12 21 64 27 74 49 74 13 0 25 -4 27 -9 3 -9
136 9 156 22 6 5 13 18 13 30 2 17 3 16 6 -5 3 -22 10 -28 29 -28z m2013 -88
c60 -65 113 -112 127 -115 13 -2 24 0 24 4 0 5 5 9 11 9 8 0 10 -12 6 -34 -5
-31 -1 -39 39 -76 42 -39 55 -60 35 -60 -5 0 -25 19 -45 42 -35 43 -35 43 -44
19 -6 -16 -11 -20 -16 -13 -10 17 -26 15 -26 -3 0 -10 -10 -15 -28 -15 -32 0
-52 30 -52 78 0 26 1 26 26 -12 28 -41 35 -39 48 15 5 22 -1 33 -32 61 -20 18
-59 59 -85 90 -26 31 -59 64 -73 73 l-25 16 3 -38 c1 -21 7 -41 12 -45 7 -5 7
-8 -1 -8 -7 0 -13 -9 -13 -20 0 -11 5 -20 11 -20 6 0 8 7 5 16 -5 12 0 15 22
12 19 -2 26 -8 24 -20 -2 -11 3 -18 13 -18 9 0 15 -9 15 -25 0 -14 -5 -25 -10
-25 -6 0 -15 11 -20 25 -10 26 -43 34 -56 14 -4 -7 -6 -51 -5 -100 1 -50 -3
-90 -9 -94 -9 -5 -17 135 -11 183 1 7 -11 13 -31 13 -31 2 -31 2 -5 6 28 4 53
43 43 69 -2 6 -1 29 4 50 6 24 5 43 -1 51 -6 7 -7 18 -3 24 6 10 9 9 13 -3 3
-8 53 -65 110 -126z m-1689 107 c0 -12 4 -18 11 -13 7 4 10 1 7 -7 -3 -8 -32
-19 -74 -26 l-69 -11 75 5 c66 4 73 3 57 -10 -9 -8 -45 -18 -80 -21 -34 -4
-74 -10 -89 -13 -21 -4 -28 -2 -28 11 0 11 10 16 33 18 l32 1 -32 4 c-27 4
-33 9 -33 28 0 13 6 27 13 32 14 9 84 20 140 22 31 1 37 -2 37 -20z m-2170
-58 c0 -3 12 -12 28 -18 15 -7 39 -24 53 -37 15 -14 30 -22 33 -19 3 4 6 4 6
1 0 -3 -10 -13 -22 -24 -12 -10 -18 -13 -14 -6 4 6 2 12 -3 12 -6 0 -11 -7
-11 -16 0 -8 -3 -13 -7 -11 -7 4 -8 -24 -4 -65 1 -5 8 -8 17 -8 12 0 15 -6 10
-22 -3 -13 -6 -29 -6 -35 0 -24 -59 -15 -87 13 -18 18 -29 22 -36 15 -8 -8 -8
-11 0 -11 6 0 13 -9 16 -20 3 -11 1 -20 -3 -20 -5 0 -16 -3 -25 -6 -13 -5 -15
-1 -13 19 2 15 7 29 11 33 4 4 7 19 8 33 0 24 1 24 9 6 6 -14 9 -16 9 -4 1 8
13 20 29 26 l27 12 -30 -2 c-29 -2 -30 -1 -44 68 -8 39 -11 83 -7 98 6 26 7
27 31 11 14 -9 25 -19 25 -23z m2266 -3 c-3 -13 -6 -39 -6 -59 0 -32 -3 -37
-22 -36 -13 0 -72 -7 -133 -16 -181 -27 -236 -31 -244 -18 -10 15 -71 3 -71
-15 0 -8 -5 -14 -11 -14 -5 0 -7 6 -3 13 6 9 5 9 -7 0 -8 -6 -36 -14 -64 -18
-27 -3 -108 -16 -178 -27 -71 -11 -139 -18 -153 -15 -13 2 -24 1 -24 -3 0 -4
-12 -8 -27 -8 -16 -1 -73 -8 -128 -15 -89 -12 -101 -12 -112 2 -11 14 -13 14
-19 -5 -8 -30 -64 -32 -64 -2 0 12 -3 18 -7 14 -5 -4 -8 -12 -8 -18 0 -6 -10
-14 -23 -19 -19 -7 -22 -5 -22 14 0 13 5 28 12 35 9 9 9 16 -4 28 -15 15 -17
15 -28 -6 -10 -18 -9 -24 1 -31 38 -23 -71 -69 -163 -69 -24 0 -29 3 -24 18 4
11 0 9 -10 -5 -27 -38 -71 -25 -46 13 4 7 52 18 107 26 99 13 100 14 115 47
12 28 18 32 42 27 15 -3 28 -1 28 4 0 6 5 10 11 10 6 0 8 -8 4 -19 -14 -44 23
-46 242 -15 60 8 115 15 123 15 8 0 50 5 92 11 59 9 80 8 92 -1 12 -10 15 -7
21 18 6 28 9 29 93 41 121 16 124 21 10 14 -59 -3 -98 -1 -98 4 0 10 131 32
213 37 26 1 50 5 54 9 3 3 17 6 31 6 31 0 24 -24 -9 -28 -32 -4 -53 -11 -48
-17 3 -2 34 0 69 5 44 6 68 6 77 -2 10 -8 18 -7 31 4 9 9 52 21 95 27 96 14
110 14 102 0 -5 -7 6 -9 31 -7 36 3 39 6 42 36 2 17 8 32 14 32 6 0 8 -10 4
-22z m469 -71 c0 -7 34 -35 76 -63 74 -50 77 -51 140 -47 59 3 62 2 45 -12
-19 -14 -19 -15 10 -15 46 0 104 12 104 21 0 4 -16 5 -35 2 -21 -3 -35 -2 -35
5 0 12 27 18 119 28 61 6 63 7 58 33 -2 14 -1 37 3 51 l8 25 2 -25 c1 -14 1
-41 0 -61 -1 -26 4 -41 17 -50 10 -8 18 -20 18 -28 0 -18 -52 -34 -59 -18 -3
9 -7 9 -13 0 -9 -12 -44 -19 -132 -28 -90 -8 -72 -18 20 -11 l86 6 10 -33 9
-32 14 31 c10 22 19 30 32 26 10 -2 18 0 18 6 0 6 14 13 31 17 42 9 58 -13 28
-38 -18 -14 -19 -20 -8 -33 11 -14 9 -16 -16 -14 -56 4 -65 1 -66 -22 -1 -14
-3 -17 -6 -7 -2 10 -16 15 -38 15 -19 0 -35 -3 -35 -6 0 -11 60 -51 68 -46 4
3 13 -4 20 -15 19 -29 -1 -23 -66 22 -33 23 -73 42 -88 43 -16 1 -34 4 -39 8
-6 4 -17 3 -25 -3 -20 -12 -60 -11 -60 2 0 6 -7 17 -15 25 -13 14 -15 13 -16
-3 -1 -10 0 -24 1 -32 1 -9 -4 -12 -15 -7 -9 3 -23 6 -30 6 -10 0 -13 10 -12
30 2 28 5 30 40 30 20 0 37 -4 37 -10 0 -18 29 -11 40 10 15 27 -4 34 -61 21
-62 -15 -60 -15 -56 31 5 48 9 43 -95 114 -55 37 -65 48 -55 59 13 14 22 11
22 -8z m1479 -217 c3 -69 8 -141 12 -160 5 -27 4 -32 -6 -24 -6 7 -14 40 -16
75 -9 113 -15 121 -30 40 -12 -73 -12 -75 13 -110 l25 -36 -32 37 -31 37 -48
-57 c-67 -80 -93 -98 -42 -29 33 45 42 65 39 90 -2 19 -8 31 -15 30 -9 -2 -10
4 -2 24 17 45 22 47 33 13 18 -55 36 -50 36 10 0 31 4 49 10 45 6 -3 10 3 10
15 0 11 7 23 15 26 11 4 15 21 15 57 0 93 8 43 14 -83z m-2791 -50 c65 -48 87
-60 107 -56 14 3 68 11 120 17 52 6 97 13 99 15 16 15 -54 11 -194 -11 -27 -4
-28 -3 -12 9 10 8 63 19 117 26 80 10 100 16 101 29 1 14 2 14 6 -1 2 -9 10
-15 16 -13 7 2 40 6 75 10 l62 6 0 -40 c0 -22 -3 -42 -7 -44 -5 -3 -39 -7 -78
-8 -38 -2 -73 -8 -77 -14 -4 -5 -8 -1 -8 10 -1 17 -2 18 -10 4 -7 -11 -31 -19
-77 -24 -36 -4 -76 -11 -87 -16 -16 -7 -12 -8 17 -5 28 4 37 1 37 -10 0 -8 5
-14 10 -14 6 0 10 7 10 15 0 16 57 30 95 22 14 -2 27 -1 30 2 2 4 20 8 40 9
34 3 36 1 30 -20 -7 -22 -6 -21 18 5 31 32 42 34 44 7 1 -11 -3 -20 -8 -20 -5
0 -7 -11 -3 -24 4 -19 1 -26 -16 -31 -14 -4 -25 -2 -30 4 -5 9 -10 8 -20 -4
-15 -18 -40 -20 -41 -2 0 10 -2 10 -6 0 -2 -7 -11 -13 -19 -13 -8 0 -14 -4
-14 -10 0 -5 -5 -10 -11 -10 -5 0 -8 4 -5 9 7 10 -52 26 -61 17 -4 -3 6 -16
20 -29 39 -33 33 -44 -7 -14 -18 14 -46 29 -62 33 -16 4 -34 11 -41 16 -6 5
-20 8 -29 6 -21 -3 -33 31 -15 42 7 4 -31 39 -96 87 -101 75 -108 79 -111 57
-2 -13 -7 -24 -12 -24 -5 0 -5 13 0 31 7 23 6 31 -6 36 -7 3 -14 9 -14 14 0 4
7 6 15 3 10 -4 16 0 16 12 1 11 4 7 6 -8 3 -20 26 -43 86 -88z m717 -50 c0 -6
-10 -26 -22 -44 -17 -26 -32 -36 -63 -42 -68 -12 -89 -14 -112 -9 -19 4 -21 9
-13 35 5 17 9 34 9 38 1 12 81 14 81 3 0 -6 5 -11 10 -11 6 0 10 6 10 14 0 14
23 21 78 25 12 0 22 -4 22 -9z m1120 -305 c35 11 60 -4 60 -35 0 -32 -6 -38
-47 -45 -54 -8 -65 -11 -72 -24 -6 -9 -10 -6 -16 11 -6 19 -8 20 -12 5 -2 -9
-8 -15 -13 -12 -14 8 -153 9 -180 0 -14 -4 -39 -18 -57 -31 -42 -32 -63 -31
-33 1 13 14 20 28 16 32 -4 4 -10 3 -14 -2 -8 -11 -52 -13 -52 -2 0 48 2 55
20 60 11 3 22 1 25 -3 3 -4 24 -2 47 5 24 6 49 10 56 8 7 -3 20 1 30 8 15 12
15 12 0 -7 -10 -11 -18 -25 -18 -30 0 -5 4 -4 8 2 16 23 59 44 92 45 19 0 51
6 70 13 22 8 42 9 53 4 10 -5 27 -6 37 -3z m-2413 -147 c-2 -7 -8 -24 -12 -38
-9 -27 -7 -26 55 25 21 18 23 18 10 1 -8 -11 -14 -27 -12 -37 2 -9 -2 -21 -9
-25 -9 -5 -10 -1 -6 16 6 22 4 21 -24 -6 -18 -17 -35 -49 -45 -86 -9 -32 -21
-61 -25 -64 -12 -7 -11 17 2 55 6 18 9 34 6 37 -8 8 -117 -86 -117 -102 0 -7
-6 -14 -14 -14 -22 0 -29 -19 -15 -36 10 -12 14 -12 20 -2 11 17 21 5 13 -16
-5 -13 -9 -14 -21 -5 -10 9 -17 9 -24 2 -8 -8 -5 -13 11 -18 28 -9 20 -30 -13
-30 -14 0 -29 -3 -33 -7 -14 -15 -24 -8 -24 18 0 21 4 24 20 19 16 -5 20 -2
20 17 0 13 -3 18 -8 12 -4 -6 -17 -10 -29 -9 -12 1 -21 -2 -20 -6 3 -13 -92
-107 -116 -112 -17 -5 -14 1 16 26 29 25 37 39 37 65 0 39 20 44 21 5 0 -27 1
-27 13 7 10 27 18 34 35 33 11 -2 21 1 21 6 0 6 8 12 18 15 10 3 37 23 59 44
23 20 64 55 92 77 41 32 54 50 66 93 9 28 21 52 27 52 5 0 8 -6 5 -12z m935
-24 c89 -3 88 -2 82 -19 -4 -8 -16 -15 -29 -15 -12 0 -28 -7 -35 -15 -7 -9
-19 -14 -25 -11 -7 2 -17 0 -23 -6 -12 -12 -42 11 -42 31 0 6 -4 11 -9 11 -6
0 -8 -17 -6 -37 3 -21 2 -31 -1 -22 -6 21 -41 31 -49 15 -4 -8 -6 -8 -11 1 -3
7 -15 9 -32 4 -15 -4 -45 -7 -67 -6 -22 0 -42 -1 -45 -4 -18 -21 -112 -92
-116 -89 -2 3 16 23 40 46 25 23 47 51 51 62 7 23 23 26 31 5 5 -12 9 -12 31
3 14 9 33 17 41 18 8 2 18 8 22 14 4 6 23 9 44 6 46 -6 66 1 66 23 0 13 2 14
9 2 6 -10 31 -15 73 -17z m1118 -239 c0 -20 -5 -25 -24 -25 -14 0 -27 4 -31
10 -3 5 -14 1 -25 -10 -24 -24 -92 -27 -110 -5 -16 19 -25 19 -44 -1 -9 -8
-16 -12 -16 -8 0 3 -6 2 -12 -3 -12 -9 -76 -18 -203 -29 -115 -9 -161 -14
-200 -19 -38 -6 -43 -5 -48 16 -4 13 -3 27 1 30 6 5 171 22 352 36 25 2 97 9
160 17 63 7 134 14 158 15 39 1 42 -1 42 -24z m-1226 -53 l-6 -29 63 10 c44 7
64 7 66 0 3 -7 15 -8 36 -3 54 15 309 32 320 21 6 -6 5 -16 -2 -28 -7 -13 -10
-14 -11 -4 0 11 -3 11 -13 -3 -10 -14 -23 -17 -60 -13 -26 2 -50 0 -54 -6 -3
-5 -26 -6 -54 -3 -29 4 -50 2 -54 -4 -10 -16 -55 -12 -55 5 0 9 -9 15 -25 15
-29 0 -35 -26 -7 -33 9 -3 -8 -5 -38 -5 -30 0 -60 -1 -67 -3 -6 -2 -19 5 -27
16 -14 19 -15 19 -16 2 0 -10 -6 -17 -12 -15 -7 3 -18 -1 -25 -7 -13 -14 -226
-41 -242 -31 -6 4 -47 2 -92 -4 -66 -9 -84 -9 -90 2 -6 8 -12 9 -16 3 -11 -14
-23 -17 -158 -31 -109 -12 -121 -12 -132 3 -10 12 -13 13 -13 3 0 -7 -3 -10
-7 -7 -3 4 -14 0 -24 -9 -26 -24 -64 -15 -64 16 0 21 5 26 34 28 20 2 37 -2
42 -10 6 -8 9 -9 9 -2 0 7 12 15 27 19 15 3 31 12 35 18 6 9 10 9 16 0 6 -9
27 -10 82 -4 41 5 79 5 84 0 5 -5 15 -4 21 1 6 5 47 12 91 16 43 3 93 8 109
10 17 3 94 12 172 21 l141 17 6 28 c3 15 8 28 11 28 2 0 2 -13 -1 -28z m-941
-83 c-5 -19 -3 -21 20 -17 24 5 26 3 23 -23 -1 -16 -6 -32 -10 -36 -7 -7 -110
-20 -221 -28 -60 -4 -61 -4 -59 23 0 19 9 30 30 39 18 7 22 12 12 13 -25 0
-23 20 2 20 12 0 20 -7 20 -16 0 -14 7 -15 38 -10 20 3 54 6 75 6 33 0 39 4
48 30 12 33 30 32 22 -1z m-500 -31 c13 -13 28 -23 35 -24 7 -1 33 -2 58 -2
27 -1 43 -6 39 -12 -3 -5 -1 -10 4 -10 6 0 11 5 11 10 0 6 7 10 15 10 8 0 22
9 33 20 18 19 18 19 20 -12 4 -51 -45 -87 -76 -56 -8 8 -15 8 -24 1 -7 -6 -49
-13 -93 -17 -64 -6 -78 -5 -67 5 16 17 15 39 -2 39 -8 0 -21 -12 -28 -27 -7
-16 -23 -29 -36 -31 -26 -4 -29 14 -6 46 8 12 13 25 11 30 -3 4 -1 17 4 30 6
17 16 22 44 22 24 0 43 -8 58 -22z"/>
<path d="M5180 4861 c0 -10 6 -34 13 -52 8 -19 22 -55 31 -81 17 -47 17 -47
57 -42 34 5 39 3 39 -14 0 -12 -9 -23 -21 -27 -17 -6 -20 -12 -15 -38 3 -18 8
-47 10 -65 3 -18 9 -38 14 -45 5 -7 13 -27 17 -44 3 -18 11 -35 16 -38 16 -10
10 18 -16 73 -25 54 -33 82 -14 50 15 -27 29 -21 29 12 0 17 5 30 10 30 6 0
10 -11 10 -25 0 -14 5 -25 10 -25 14 0 13 12 -10 65 -25 58 -25 75 -1 75 11 0
23 5 26 10 4 6 -7 10 -24 10 -36 0 -66 26 -68 58 -1 12 -11 34 -22 48 -12 15
-18 31 -14 37 4 6 -2 8 -15 5 -19 -5 -21 -3 -16 18 5 21 3 24 -20 24 -19 0
-26 -5 -26 -19z"/>
<path d="M5105 4805 c-22 -8 -52 -14 -67 -14 -16 -1 -37 -10 -48 -21 -11 -11
-20 -15 -20 -10 0 12 -27 14 -33 2 -3 -4 5 -33 18 -65 13 -31 20 -57 15 -57
-10 0 -50 85 -50 107 0 10 -7 14 -20 10 -12 -3 -20 -1 -19 6 4 32 -1 35 -43
26 -24 -5 -50 -12 -58 -16 -8 -3 -19 -5 -23 -4 -5 1 -11 -8 -14 -19 -8 -31
-26 -23 -21 10 4 24 2 27 -9 19 -33 -28 7 -198 47 -198 34 -1 44 15 30 48 -7
18 -10 34 -6 38 3 3 13 -10 21 -30 8 -21 22 -37 30 -37 18 0 19 23 4 52 -6 11
-8 22 -5 25 3 3 13 -11 22 -31 10 -20 24 -36 31 -36 18 0 17 10 -8 65 -31 70
-15 66 18 -5 17 -33 27 -62 24 -64 -3 -2 -51 -14 -106 -26 -99 -22 -133 -39
-121 -58 4 -7 18 -7 42 0 20 5 42 7 50 4 8 -3 33 8 56 24 22 17 44 30 48 30 4
0 25 8 46 17 43 18 120 29 94 13 -20 -13 -5 -12 41 2 22 6 39 15 39 19 0 4 25
15 56 24 34 10 54 21 51 28 -2 7 -14 40 -27 75 -24 66 -25 67 -85 47z"/>
<path d="M5170 4609 c-30 -11 -60 -22 -67 -24 -9 -3 -9 -13 3 -42 14 -34 14
-38 0 -49 -9 -6 -16 -21 -16 -33 0 -21 3 -22 42 -16 23 4 60 13 83 19 l40 12
0 70 c0 60 -7 85 -25 83 -3 0 -30 -10 -60 -20z"/>
<path d="M4917 4534 c-3 -3 3 -26 14 -51 22 -51 23 -57 9 -48 -5 3 -18 26 -29
50 -30 68 -64 58 -35 -10 23 -55 9 -54 -20 2 l-25 48 -1 -74 0 -73 30 4 c37 6
40 -7 4 -16 -15 -4 -24 -10 -20 -13 9 -9 116 18 110 28 -2 5 -11 6 -19 2 -8
-3 -15 -2 -15 1 0 4 12 11 26 16 23 9 25 15 21 48 -7 61 -32 104 -50 86z"/>
<path d="M4788 4504 c-4 -3 0 -21 8 -41 8 -19 13 -40 11 -46 -2 -7 -12 10 -22
36 -17 44 -21 48 -44 42 -39 -10 -45 -21 -27 -46 24 -35 20 -60 -4 -29 l-20
25 0 -54 c0 -60 -9 -57 93 -30 37 10 37 10 37 64 0 71 -12 100 -32 79z"/>
<path d="M5239 4453 c-1 -5 -1 -11 0 -15 0 -5 -6 -8 -15 -8 -8 0 -12 5 -8 11
10 17 -39 0 -53 -19 -7 -9 -13 -11 -13 -5 0 9 -18 10 -52 4 -12 -2 -9 -41 3
-41 5 0 8 -3 5 -8 -2 -4 3 -23 11 -42 16 -35 16 -35 22 -10 7 23 8 24 18 6 9
-17 15 -18 61 -6 49 11 50 12 39 37 -9 21 -8 27 8 39 10 8 13 14 7 14 -7 0
-12 11 -12 25 0 22 -18 37 -21 18z"/>
<path d="M4187 4266 c-58 -55 -65 -79 -26 -89 10 -3 19 -2 19 3 0 12 49 19 79
11 22 -6 17 -9 -35 -19 -34 -7 -69 -10 -78 -6 -9 3 -16 1 -16 -5 0 -5 49 -35
110 -66 109 -54 110 -55 161 -44 43 9 50 14 46 31 -5 18 -4 19 12 4 24 -22 37
-20 55 6 22 31 20 36 -9 30 -33 -6 -32 6 3 20 21 9 23 12 10 15 -10 3 -18 8
-18 13 0 5 8 11 18 13 15 4 15 5 -2 6 -10 0 -25 9 -32 19 -12 15 -12 15 -7 -5
4 -19 1 -23 -19 -23 -13 0 -31 8 -40 19 -15 18 -14 19 23 31 60 20 39 23 -31
5 -70 -18 -91 -15 -31 5 39 13 57 33 45 51 -8 14 -24 11 -24 -6 0 -11 -11 -15
-37 -15 l-37 0 35 26 c19 15 27 24 18 21 -9 -3 -38 -9 -64 -13 -35 -5 -46 -4
-41 5 4 7 0 11 -11 11 -10 0 -44 -25 -76 -54z"/>
<path d="M4128 4083 c0 -27 -2 -68 -4 -91 -2 -34 0 -42 11 -38 7 2 30 8 49 12
31 5 37 3 45 -17 9 -23 10 -23 10 -3 1 29 19 42 69 50 23 4 45 11 48 16 4 6
-1 8 -12 5 -49 -14 -80 -16 -94 -6 -12 8 -9 9 13 5 15 -4 27 -2 27 3 0 5 8 11
18 13 10 3 -18 22 -75 51 -51 26 -95 47 -98 47 -3 0 -6 -21 -7 -47z"/>
<path d="M5321 4033 c0 -7 -10 -13 -22 -13 -11 0 -17 -4 -14 -10 9 -15 13 -43
17 -114 1 -37 5 -66 8 -66 3 0 6 -11 6 -25 1 -14 -2 -25 -7 -25 -15 0 -10 -28
6 -34 21 -8 57 54 60 102 2 37 -19 117 -35 137 -4 5 -10 21 -13 35 -2 14 -5
19 -6 13z"/>
<path d="M5217 3930 c-26 -39 -45 -75 -42 -80 3 -6 -1 -10 -9 -10 -19 0 -21
-16 -3 -23 7 -3 4 -6 -7 -6 -12 -1 -16 -6 -12 -17 3 -9 6 -19 7 -22 0 -4 4 2
9 13 7 16 9 13 9 -15 1 -20 6 -41 13 -48 9 -9 8 -12 -4 -12 -11 0 -15 -6 -11
-20 3 -11 9 -20 14 -20 5 0 6 8 3 18 -5 15 -4 15 8 2 7 -9 21 -14 31 -12 9 2
17 -1 17 -7 0 -6 -7 -11 -15 -11 -15 0 -20 -12 -9 -23 10 -9 34 4 34 18 0 8 5
26 11 42 15 39 21 133 8 133 -5 0 -7 5 -3 12 10 16 5 89 -7 104 -7 8 -6 13 2
16 6 2 10 11 8 21 -3 12 -19 -5 -52 -53z"/>
<path d="M5022 3981 c-8 -4 -13 -12 -12 -17 1 -5 -4 -10 -11 -13 -8 -2 -10 2
-6 13 4 11 3 15 -4 10 -7 -4 -9 -32 -5 -83 6 -77 19 -101 55 -101 11 0 12 -3
5 -8 -8 -5 -8 -15 -2 -32 l10 -25 11 25 c6 14 16 28 22 32 6 5 2 8 -8 8 -10 0
-15 5 -12 10 3 6 15 10 25 10 10 0 28 12 40 28 19 23 20 27 6 30 -25 5 -19 20
11 24 14 2 28 8 30 14 2 7 -8 9 -28 6 -24 -3 -30 -1 -27 9 2 8 21 15 41 17 19
2 41 10 49 19 11 14 10 16 -12 10 -73 -17 -100 -19 -100 -7 0 9 -6 8 -18 -3
-34 -31 -74 -17 -45 15 17 19 8 24 -15 9z"/>
<path d="M5386 3955 c13 -42 17 -105 5 -105 -6 0 -11 -4 -11 -10 0 -5 7 -7 16
-3 14 5 15 3 1 -23 -21 -42 -20 -94 2 -94 9 0 22 5 29 12 9 9 12 8 12 -4 0
-11 -10 -18 -27 -20 -25 -3 -28 -7 -28 -37 0 -19 6 -36 13 -39 6 -2 12 3 12
12 0 9 7 16 15 16 8 0 15 -4 15 -10 0 -5 5 -10 10 -10 6 0 10 6 10 14 0 8 9
22 21 30 26 18 17 36 -13 28 -14 -3 -19 -2 -14 6 4 7 13 12 19 12 7 0 29 5 50
11 49 13 43 34 -9 31 l-39 -3 -31 68 c-46 101 -65 140 -58 118z"/>
<path d="M4358 3829 c-2 -6 -23 -12 -46 -13 -23 0 -42 -3 -42 -7 0 -9 -117
-28 -139 -22 -20 5 -21 1 -23 -66 -1 -39 -2 -81 -2 -93 -1 -24 6 -26 62 -14
20 5 32 4 32 -3 0 -5 -12 -12 -27 -14 -27 -4 -27 -4 4 -6 17 0 33 -5 35 -9 2
-4 11 0 21 10 16 17 16 18 -4 18 -27 0 -14 20 14 21 20 1 20 2 -3 8 l-25 7 22
12 c29 16 43 15 43 -4 0 -8 5 -12 11 -9 6 4 8 13 5 21 -4 10 2 14 19 14 25 0
39 14 40 40 0 8 6 14 14 12 17 -4 51 26 51 44 0 15 -39 64 -51 64 -4 0 -9 -5
-11 -11z"/>
<path d="M4875 3790 c9 -29 -19 -54 -51 -46 -15 4 -23 3 -20 -3 8 -12 -47 -24
-76 -16 -18 5 -20 4 -8 -4 13 -9 13 -11 -2 -11 -22 0 -23 -10 -3 -36 17 -22
19 -34 6 -34 -5 0 -14 14 -21 30 -18 43 -26 37 -22 -15 2 -25 8 -45 14 -45 5
0 2 -7 -7 -16 -11 -11 -13 -20 -5 -28 5 -7 7 -16 3 -19 -9 -10 23 -8 96 6 36
7 66 17 68 23 4 13 -56 6 -74 -8 -7 -5 -14 -5 -17 1 -3 5 8 12 26 16 56 11 68
16 63 25 -3 5 -1 11 5 15 5 3 10 1 10 -4 0 -6 8 -11 18 -11 15 -1 15 -2 -2
-15 -22 -16 -16 -31 9 -22 8 4 15 18 15 34 0 16 3 23 8 16 4 -6 19 -9 35 -6
22 4 27 11 27 35 0 16 -5 39 -11 50 -8 15 -8 19 0 14 7 -5 11 5 11 27 0 27 -5
36 -21 40 -16 4 -18 3 -9 -8 8 -10 5 -14 -15 -17 -24 -5 -32 9 -26 45 0 4 -6
7 -15 7 -11 0 -14 -6 -9 -20z"/>
<path d="M4089 3785 c-1 -3 -2 -10 -3 -17 0 -7 -17 -16 -36 -20 -251 -54 -315
-66 -321 -56 -4 6 -13 8 -21 5 -11 -4 -17 -30 -21 -94 -4 -49 -10 -123 -13
-164 l-7 -74 21 18 c14 13 38 19 71 20 28 1 51 5 51 9 0 3 19 9 43 13 23 4 53
12 67 18 41 17 53 19 93 18 24 -1 36 2 32 9 -3 5 -1 10 4 10 6 0 11 -10 11
-22 0 -45 14 -5 16 45 1 29 4 68 7 87 10 64 18 200 13 200 -3 0 -7 -2 -7 -5z"/>
<path d="M3575 3649 c-43 -12 -86 -17 -110 -13 -29 4 -36 2 -25 -5 9 -6 10
-11 3 -11 -6 0 -20 -3 -30 -6 -15 -5 -16 -4 -3 6 12 9 7 10 -25 5 -22 -3 -48
-8 -57 -11 -12 -4 -18 0 -18 10 0 9 -4 16 -10 16 -5 0 -10 -16 -10 -35 0 -19
-3 -35 -8 -35 -4 0 -27 -19 -52 -42 -25 -22 -83 -74 -130 -114 -47 -39 -92
-80 -100 -90 -8 -9 -39 -35 -67 -56 -29 -21 -53 -46 -53 -55 0 -14 2 -14 15 3
12 15 16 16 24 5 6 -9 18 -11 40 -6 23 5 33 3 37 -9 9 -23 34 -7 34 21 l0 25
20 -23 c10 -13 19 -19 20 -12 0 6 9 9 20 6 11 -3 20 0 20 6 0 5 7 8 16 4 10
-4 17 2 21 16 5 19 7 20 18 5 11 -16 12 -16 18 1 4 9 13 15 21 12 7 -3 19 3
26 13 8 11 17 17 20 15 4 -2 28 2 55 10 68 21 85 19 86 -7 l0 -23 9 22 c12 30
34 39 113 47 56 6 67 4 67 -9 0 -8 8 -15 18 -15 13 0 18 8 17 27 0 18 6 29 20
32 11 3 21 15 22 26 1 11 4 54 8 95 3 41 8 92 11 114 4 27 2 41 -7 47 -8 5
-16 8 -19 8 -3 -1 -36 -10 -75 -20z m-181 -280 c-5 -18 -15 -34 -23 -37 -9 -3
-11 0 -6 7 11 19 -87 3 -102 -16 -6 -8 -17 -12 -23 -8 -13 8 -142 -25 -152
-39 -4 -6 -15 -6 -33 2 -25 12 -26 12 -8 44 l17 33 6 -25 c6 -24 6 -24 12 -4
5 22 55 34 134 34 24 0 34 5 34 15 0 18 17 20 22 3 3 -8 22 -3 59 15 62 29 77
24 63 -24z"/>
<path d="M5040 3570 c-14 -4 -18 -9 -10 -9 12 -1 11 -4 -4 -12 -14 -9 -20 -8
-27 2 -4 7 -11 10 -15 7 -11 -12 58 -68 80 -64 12 2 15 1 9 -1 -15 -5 -17 -23
-3 -23 5 0 18 -10 29 -21 15 -16 26 -20 46 -15 17 4 24 3 20 -4 -3 -5 -14 -10
-23 -11 -11 -1 -8 -4 8 -9 14 -4 19 -8 13 -9 -8 -1 -5 -10 9 -26 19 -22 22
-23 33 -8 7 9 10 24 8 32 -2 9 0 36 6 60 l9 43 -45 -7 c-25 -4 -51 -9 -59 -12
-15 -5 -58 72 -49 87 7 11 0 11 -35 0z"/>
<path d="M4914 3535 c-4 -8 -12 -15 -20 -15 -8 0 -14 -7 -14 -15 0 -8 -6 -15
-14 -15 -9 0 -13 7 -11 20 2 13 -2 20 -11 20 -8 0 -13 -3 -10 -8 9 -14 -22
-42 -54 -49 -25 -5 -31 -3 -25 7 6 9 1 10 -16 6 -24 -7 -24 -7 -4 10 20 16 20
16 -5 10 -14 -3 -32 -6 -40 -7 -10 0 -8 -3 5 -9 16 -7 16 -9 4 -9 -9 -1 -19
-8 -23 -16 -3 -8 -10 -15 -16 -15 -6 0 -8 5 -4 11 5 8 0 10 -17 6 -69 -16
-102 -19 -95 -8 4 6 3 11 -3 11 -5 0 -11 -40 -13 -91 l-3 -91 45 6 c31 4 40 3
30 -4 -8 -5 -24 -10 -35 -10 -20 0 -45 -17 -45 -30 0 -4 21 -1 48 5 45 12 47
11 53 -9 5 -21 5 -21 11 2 8 27 24 29 31 2 3 -11 13 -20 24 -21 16 0 15 -1 -3
-9 -18 -7 -22 -17 -22 -59 -1 -34 2 -51 11 -51 14 0 219 38 262 48 l30 8 1
179 c1 99 -1 186 -3 193 -7 17 -42 15 -49 -3z"/>
<path d="M4990 3478 c1 -18 -1 -58 -3 -88 -3 -30 -2 -77 2 -103 5 -26 5 -50 1
-52 -9 -5 -1 -53 10 -60 3 -2 20 -1 36 4 21 5 31 15 35 37 l7 29 1 -27 c1 -21
6 -28 21 -28 16 0 20 7 20 30 0 17 5 30 10 30 6 0 10 -11 10 -25 0 -18 5 -25
19 -25 23 0 37 70 20 101 -12 24 -33 20 -37 -7 -6 -32 -22 -41 -22 -12 0 25
-1 26 -36 17 -19 -6 -47 -9 -62 -7 -20 2 -10 7 36 18 47 11 62 19 63 32 1 10
2 24 3 31 3 14 -64 88 -107 119 l-28 20 1 -34z"/>
<path d="M4445 3429 c-16 -5 -49 -7 -71 -4 -32 5 -43 2 -47 -10 -4 -8 -12 -15
-19 -15 -9 0 -8 3 2 10 12 8 9 10 -12 10 -15 0 -33 -6 -40 -13 -19 -19 -56
-27 -61 -13 -3 7 -11 5 -25 -7 -15 -14 -29 -17 -51 -12 -26 5 -31 4 -31 -12 0
-13 30 -33 103 -71 93 -47 105 -51 140 -43 22 5 37 5 37 0 0 -5 -9 -9 -19 -9
-26 0 -35 -16 -14 -24 9 -4 20 -2 23 5 5 6 37 12 79 13 57 1 70 4 68 16 -1 8
-6 18 -12 22 -6 5 -5 8 2 8 8 0 12 24 12 80 0 88 -1 89 -64 69z"/>
<path d="M4011 3363 c-17 -3 -20 -7 -12 -13 17 -10 -69 -23 -93 -14 -10 4 -25
-1 -36 -11 -13 -12 -29 -16 -48 -12 -17 3 -37 0 -48 -7 -24 -16 -74 -26 -74
-15 0 5 -9 9 -20 9 -15 0 -20 -7 -21 -27 -3 -64 -27 -291 -35 -332 -5 -23 -4
-23 63 -18 55 5 180 28 330 62 16 4 24 15 29 39 8 46 -2 74 -29 79 -20 4 -20
4 -2 6 29 2 45 46 51 145 5 84 5 88 -16 93 -16 4 -18 8 -8 14 14 9 9 9 -31 2z"/>
<path d="M4081 3264 l0 -65 47 5 47 6 -43 -13 c-39 -11 -79 -47 -52 -47 5 0
10 7 10 16 0 13 7 15 29 11 15 -3 33 -1 39 5 16 16 34 -1 26 -24 -4 -14 -2
-18 5 -14 6 4 11 16 11 27 0 29 51 22 65 -9 6 -12 16 -20 23 -17 8 3 25 5 38
5 13 0 24 3 24 8 0 4 -17 7 -37 7 -32 0 -39 4 -41 23 -2 12 1 22 7 22 6 0 11
4 11 9 0 5 -10 7 -22 3 -14 -3 -19 -1 -14 6 4 6 -27 29 -77 56 -46 25 -87 46
-90 46 -3 0 -5 -30 -6 -66z"/>
<path d="M5469 3273 c-1 -5 -1 -11 0 -15 0 -5 -6 -8 -14 -8 -8 0 -22 -12 -31
-26 -15 -22 -15 -27 -3 -35 12 -8 11 -11 -3 -19 -20 -12 -13 -47 11 -53 13 -4
13 -5 -3 -6 -14 -1 -17 -6 -12 -23 3 -13 6 -27 6 -32 0 -12 72 1 80 14 12 20
39 -2 56 -45 17 -46 44 -53 44 -11 0 14 3 17 8 9 5 -9 33 12 87 67 l80 80 -32
0 c-25 0 -35 6 -46 28 -7 15 -12 35 -10 45 3 10 -1 17 -11 17 -9 0 -16 5 -16
10 0 6 -5 10 -10 10 -6 0 -8 -10 -5 -22 5 -25 -9 -47 -40 -64 -26 -13 -55 -7
-55 12 0 8 -10 19 -22 24 -13 5 -17 9 -10 9 20 1 13 21 -8 21 -11 0 -20 5 -20
10 0 12 -19 14 -21 3z"/>
<path d="M5240 3175 c-30 -8 -40 -14 -30 -18 8 -4 2 -5 -13 -2 -34 7 -99 -4
-92 -15 5 -8 -29 -20 -55 -19 -10 0 -8 3 5 9 14 7 8 8 -20 3 -22 -3 -43 -8
-47 -10 -14 -8 -8 -46 9 -65 9 -11 11 -18 5 -18 -17 0 -15 -27 4 -77 14 -37
20 -42 43 -39 28 3 71 23 71 33 0 3 -11 3 -25 1 -14 -3 -25 -2 -25 3 0 4 10
10 23 12 l22 4 -22 2 c-44 2 -18 31 28 31 10 0 19 -6 19 -12 1 -7 7 1 14 17 7
17 17 29 22 28 5 -2 9 2 9 7 0 6 7 15 15 20 19 12 4 13 -37 1 -20 -6 -35 -6
-39 0 -3 5 -12 2 -20 -6 -19 -18 -78 -21 -72 -2 3 6 49 21 104 32 54 11 105
24 112 28 10 7 49 70 40 66 -2 -1 -23 -7 -48 -14z"/>
<path d="M5317 3163 c-3 -5 -4 -32 -3 -62 1 -43 5 -55 20 -61 18 -6 18 -7 3
-13 -13 -5 -17 -17 -15 -52 0 -25 5 -45 10 -45 4 0 8 -7 8 -15 0 -8 9 -15 19
-15 23 0 34 35 25 79 -4 18 -2 37 5 45 9 10 4 29 -20 80 -29 62 -42 76 -52 59z"/>
<path d="M4942 3105 c-7 -8 -20 -15 -30 -15 -15 0 -15 2 -2 10 13 9 13 10 0 9
-8 -1 -26 -4 -40 -8 -22 -6 -19 -8 23 -15 56 -9 54 -21 -4 -30 -29 -5 -47 -2
-58 7 -22 18 -82 22 -92 6 -5 -8 -27 -13 -60 -12 -33 0 -47 -2 -38 -8 11 -7
10 -9 -3 -9 -10 0 -17 -5 -15 -12 1 -6 -7 -13 -18 -15 -13 -3 -16 -1 -8 4 8 6
-3 12 -32 19 -43 10 -45 9 -53 -16 -5 -14 -68 -82 -141 -150 -72 -69 -131
-128 -131 -131 0 -7 68 6 100 18 8 4 18 5 23 5 4 -1 7 2 7 8 0 5 13 7 29 4 16
-4 32 -1 35 5 4 6 18 8 32 5 22 -6 24 -3 26 37 5 105 4 114 -9 119 -10 4 -9 9
6 22 17 14 22 15 38 3 15 -12 15 -14 3 -15 -13 0 -16 -16 -19 -80 l-2 -81 53
7 c60 7 81 20 58 34 -15 10 -12 11 23 14 6 1 12 -3 13 -9 1 -5 10 -29 20 -52
20 -45 38 -52 77 -31 12 7 45 15 72 19 116 17 135 22 139 38 4 14 2 112 -2
133 -2 8 -52 1 -92 -12 -14 -5 -43 -11 -65 -14 -87 -12 -109 -16 -136 -30 -29
-14 -35 -10 -27 22 2 9 79 31 132 37 22 3 48 12 57 21 10 9 22 13 27 10 6 -3
12 0 15 8 6 16 45 28 53 15 3 -5 -3 -9 -13 -10 -16 0 -16 -1 2 -8 27 -11 54 4
52 29 -1 23 -7 23 -62 9 -22 -5 -56 -12 -75 -15 -90 -13 -215 -36 -221 -40 -4
-2 -10 0 -13 5 -4 5 -2 12 3 15 16 10 205 47 226 44 11 -1 29 3 40 9 11 6 39
14 63 18 38 6 42 9 42 36 0 32 -8 36 -28 14z"/>
<path d="M4390 2999 c0 -12 -37 -16 -54 -7 -10 5 -29 7 -44 3 -21 -5 -23 -8
-11 -16 10 -7 0 -9 -33 -4 -31 4 -48 2 -48 -4 0 -6 6 -11 13 -12 6 0 1 -5 -13
-10 -14 -6 -33 -8 -42 -6 -10 3 -33 1 -53 -3 -20 -5 -33 -4 -29 1 3 5 1 9 -4
9 -6 0 -12 -23 -14 -50 -3 -46 -1 -51 22 -58 l25 -9 -28 -6 c-24 -7 -27 -12
-27 -51 0 -25 -3 -52 -7 -62 -6 -15 -2 -16 28 -10 75 16 89 17 89 5 0 -7 8 -2
19 9 10 12 22 22 27 22 5 0 38 30 74 65 62 62 64 65 37 65 -18 0 -26 4 -21 11
4 7 20 9 39 6 26 -4 38 0 56 19 16 17 18 24 8 25 -8 0 0 7 16 14 17 7 41 25
54 38 l23 26 -51 -2 c-28 -1 -51 -5 -51 -8z"/>
<path d="M5212 3003 c-18 -3 -21 -8 -12 -17 8 -10 3 -15 -22 -21 l-33 -8 28
-4 c32 -5 27 -23 -6 -23 -21 0 -23 -4 -23 -82 0 -55 -4 -83 -12 -86 -7 -2 -12
-8 -12 -13 0 -11 38 -12 104 -3 44 6 46 8 46 40 0 23 5 34 18 37 12 3 13 5 2
6 -17 1 -44 51 -28 51 5 0 8 8 7 18 -3 32 1 41 16 36 8 -4 15 -1 15 6 0 8 -11
11 -32 8 -28 -5 -29 -4 -13 9 11 7 22 13 27 13 4 0 8 5 8 11 0 5 -4 8 -9 5 -5
-3 -11 1 -15 9 -5 15 -12 16 -54 8z"/>
<path d="M4982 2654 c-1 -32 6 -43 74 -107 42 -40 82 -76 90 -80 25 -15 48 10
65 72 l16 61 -47 -6 c-45 -6 -48 -5 -66 25 -10 17 -24 31 -32 31 -7 0 -10 -5
-6 -12 5 -8 0 -9 -17 -5 -13 4 -30 7 -37 7 -7 0 -11 4 -8 9 3 4 -3 16 -13 25
-17 15 -18 14 -19 -20z"/>
<path d="M4953 2646 c4 -9 -4 -16 -25 -20 -43 -9 -50 -8 -42 6 5 8 -2 9 -26 5
-18 -4 -38 -7 -44 -7 -6 0 -4 -5 4 -10 13 -9 13 -10 0 -10 -13 0 -13 -1 0 -10
12 -8 10 -10 -8 -10 -13 0 -21 4 -18 9 3 4 -7 6 -22 4 -22 -4 -24 -2 -12 7 12
9 5 10 -30 4 -25 -3 -47 -9 -50 -13 -3 -3 -21 -6 -40 -6 -19 0 -53 -4 -76 -8
-36 -6 -42 -4 -52 16 -9 18 -11 8 -11 -54 -1 -42 -4 -91 -7 -108 -6 -28 -4
-31 17 -32 l24 0 -22 -9 c-37 -15 -26 -22 22 -14 30 4 45 3 45 -5 0 -6 -6 -11
-12 -12 -7 0 -4 -4 7 -8 15 -6 10 -9 -23 -15 -24 -3 -47 -4 -53 -1 -5 4 -9 -8
-9 -25 0 -27 3 -31 23 -28 14 2 23 11 25 26 2 16 10 22 27 22 22 0 24 -4 24
-54 l0 -54 -52 -8 c-29 -5 -58 -9 -64 -9 -7 0 -12 -5 -10 -10 1 -6 7 -8 12 -7
28 10 127 22 135 17 6 -4 10 -1 10 4 0 6 5 11 10 11 6 0 10 -12 10 -26 0 -21
-4 -24 -20 -19 -26 8 -26 -7 0 -23 17 -11 23 -10 37 4 12 12 28 15 60 11 24
-2 46 -1 49 4 3 5 9 7 14 4 5 -3 11 -1 14 3 3 5 35 12 71 16 86 9 93 12 87 42
-2 14 0 24 7 24 6 0 11 9 11 21 0 11 -4 17 -10 14 -6 -4 -10 14 -10 47 0 40 3
49 11 38 8 -12 9 -11 7 5 -3 15 -11 20 -31 18 -15 -1 -27 2 -27 8 0 5 9 9 20
9 12 0 20 7 20 18 0 14 2 15 10 2 6 -10 9 22 7 97 -1 62 -6 113 -11 113 -4 0
-6 -6 -3 -14z"/>
<path d="M4464 2573 c-6 -2 -70 -14 -143 -27 -74 -13 -137 -29 -141 -36 -5 -8
-22 -9 -54 -5 -29 5 -46 4 -46 -3 0 -5 -7 -13 -16 -16 -8 -3 -12 -2 -9 4 3 6
-1 10 -10 10 -12 0 -15 -7 -13 -27 3 -23 20 -38 112 -92 62 -37 111 -59 115
-54 8 14 54 9 59 -5 2 -7 -6 -12 -19 -12 -14 0 -19 -4 -13 -9 5 -5 35 -4 74 5
36 7 78 14 93 14 16 0 26 4 22 10 -3 5 -12 7 -20 3 -8 -3 -23 -2 -32 2 -10 5
-29 7 -42 6 -13 -2 -21 2 -17 7 8 13 88 22 102 11 8 -7 12 17 12 91 1 56 4
105 7 110 7 11 -6 19 -21 13z"/>
<path d="M4990 2542 c0 -22 -3 -54 -6 -71 -6 -30 -5 -31 27 -31 34 0 31 -15
-6 -22 -18 -3 -20 -11 -20 -68 0 -38 5 -70 13 -78 6 -7 12 -18 12 -23 0 -5 -6
-9 -12 -10 -7 -1 -2 -4 12 -8 43 -13 60 -2 61 38 1 20 3 28 6 18 2 -9 9 -15
14 -12 13 9 11 -9 -3 -23 -9 -9 -6 -12 14 -12 22 0 27 7 38 45 11 39 10 48 -4
69 -22 34 -20 57 2 28 20 -25 32 -20 32 13 0 22 -67 95 -88 95 -7 0 -11 3 -9
8 1 4 -17 25 -40 46 l-43 38 0 -40z"/>
<path d="M4027 2423 c-8 -15 -8 -133 1 -133 4 0 13 5 20 12 9 9 12 8 12 -5 0
-11 8 -17 23 -17 12 0 28 -4 36 -9 17 -11 7 -41 -14 -41 -8 0 -15 -4 -15 -10
0 -5 5 -9 12 -7 6 1 17 -8 23 -20 14 -27 25 -20 25 16 0 19 3 22 9 12 5 -7 14
-10 20 -7 6 4 24 10 39 12 36 7 50 22 28 30 -10 4 -21 3 -25 -2 -3 -5 -20 -9
-38 -9 -27 0 -32 4 -31 21 2 19 7 21 39 17 23 -4 39 -1 44 7 6 10 1 12 -19 8
-14 -3 -26 -1 -26 3 0 5 -8 9 -17 10 -12 1 -9 3 7 8 l24 7 -29 20 c-58 40
-144 84 -148 77z"/>
<path d="M5188 2364 c-5 -4 -8 -15 -8 -25 0 -9 -6 -20 -12 -23 -7 -3 -1 -4 15
-2 24 3 27 0 27 -25 0 -28 2 -29 45 -29 25 0 45 -4 45 -10 0 -5 -4 -10 -10
-10 -5 0 -10 -5 -10 -11 0 -5 5 -7 12 -3 6 4 8 3 5 -4 -4 -5 -31 -13 -60 -17
-28 -3 -74 -10 -102 -15 -27 -5 -65 -11 -82 -14 -20 -3 -33 -1 -33 5 0 11 -24
39 -34 39 -3 0 -5 -23 -4 -50 0 -28 -6 -58 -14 -67 -9 -12 -9 -15 0 -9 12 7
15 -8 15 -82 -1 -31 1 -33 31 -32 46 3 56 1 56 -9 0 -5 -18 -12 -39 -16 -24
-4 -41 -13 -43 -23 -10 -38 -9 -152 1 -152 6 0 30 26 53 58 24 31 49 63 56 70
15 17 15 22 -2 41 -10 11 -12 21 -6 31 8 13 11 12 24 -5 10 -13 18 -17 24 -10
7 8 101 128 139 180 5 6 14 18 21 27 8 10 15 41 15 70 2 42 -2 57 -18 70 -11
10 -24 17 -29 18 -5 0 -15 8 -22 18 -13 16 -13 16 -14 0 0 -25 -28 -22 -32 3
-2 11 -6 17 -10 13z"/>
<path d="M4576 2181 c-4 -5 -24 -12 -46 -16 -22 -4 -39 -10 -38 -13 1 -4 -2
-15 -7 -25 -4 -9 -3 -23 3 -30 8 -9 -20 -40 -111 -124 -67 -62 -131 -119 -142
-127 -18 -14 -13 -20 15 -18 80 7 138 16 152 23 9 5 26 9 37 9 16 0 21 6 21
25 0 14 5 25 10 25 6 0 10 -10 10 -21 0 -20 4 -21 50 -15 45 6 50 5 50 -12 0
-15 -9 -21 -39 -26 -22 -3 -47 -3 -57 1 -12 4 -15 3 -10 -5 4 -7 3 -12 -3 -12
-5 0 -12 6 -14 13 -4 9 -8 9 -14 0 -7 -10 -52 -18 -217 -38 -39 -5 -63 -15
-35 -15 8 0 66 6 129 14 128 16 150 17 150 4 0 -4 7 -8 15 -8 8 0 15 6 15 14
0 11 40 26 70 26 5 0 8 -26 7 -57 l-2 -58 -43 -9 c-34 -7 -46 -6 -53 5 -7 12
-9 11 -9 -2 0 -10 -9 -17 -22 -17 -13 0 -75 -7 -138 -16 -148 -20 -195 -22
-193 -11 13 84 10 91 -23 53 -10 -12 -13 -18 -6 -14 15 9 17 -31 3 -68 -8 -20
-19 -26 -58 -31 -83 -11 -95 -25 -15 -18 51 4 72 3 72 -6 0 -6 7 -11 15 -11 8
0 15 6 15 14 0 8 7 17 16 20 22 9 25 8 22 -6 -3 -15 3 -18 32 -18 13 0 20 7
20 18 0 16 15 20 115 32 64 7 119 18 122 23 4 6 -13 7 -48 3 -223 -30 -273
-36 -277 -31 -12 12 -7 13 197 40 63 8 116 13 118 11 2 -2 29 3 61 10 76 18
93 18 68 -1 -11 -8 -34 -15 -52 -15 -18 0 -36 -5 -40 -11 -5 -9 6 -10 40 -5
27 4 46 3 46 -2 0 -5 9 -12 19 -15 14 -3 21 2 25 17 6 20 7 20 21 2 13 -18 18
-18 142 -1 163 21 158 19 184 63 13 20 28 40 33 44 7 5 5 8 -4 8 -12 0 -15 15
-13 82 1 50 -2 85 -9 89 -6 4 -38 5 -70 2 -42 -3 -58 -1 -54 6 4 6 19 11 34
11 15 0 44 3 64 6 37 6 37 7 32 43 -3 20 -9 54 -14 76 -10 43 -5 58 11 35 7
-11 9 -5 7 22 -2 28 -5 35 -14 27 -7 -6 -39 -14 -71 -19 -32 -5 -125 -18 -207
-30 -113 -17 -151 -19 -160 -10 -14 14 26 50 55 50 10 0 19 7 19 15 0 17 -6
19 -14 6z"/>
<path d="M4381 2075 c-40 -8 -81 -14 -90 -14 -9 0 -65 -10 -126 -21 -60 -11
-122 -19 -136 -17 -25 3 -27 1 -32 -52 -8 -82 -4 -176 8 -175 6 1 31 5 58 8
39 6 47 4 47 -8 0 -16 -16 -22 -77 -29 -19 -2 -33 1 -33 7 0 6 -5 4 -10 -4
-15 -24 -12 -32 9 -20 33 17 60 13 56 -10 -6 -32 12 -33 26 -1 8 19 17 27 24
21 6 -4 15 -2 23 6 7 8 8 14 2 14 -5 0 -10 6 -10 14 0 15 21 26 51 26 18 0
299 246 299 262 0 9 5 10 -89 -7z"/>
<path d="M7670 704 c-74 -8 -191 -20 -260 -27 l-125 -12 0 -40 c-1 -22 5 -85
11 -140 7 -55 15 -131 19 -170 4 -38 11 -74 15 -78 8 -9 384 18 399 28 4 2 1
48 -6 101 -8 53 -13 97 -11 99 2 2 39 8 82 14 42 5 80 12 83 15 7 7 -16 169
-28 204 -5 12 -16 21 -26 21 -10 -1 -79 -8 -153 -15z"/>
<path d="M7060 656 c0 -9 -6 -16 -14 -16 -8 0 -24 -15 -36 -32 -20 -30 -21
-25 -3 18 5 14 -1 16 -43 10 -27 -3 -78 -8 -112 -12 l-64 -6 7 -62 c7 -68 21
-211 30 -297 7 -64 16 -71 85 -62 39 6 50 16 30 28 -5 3 -10 14 -9 23 0 14 2
13 9 -3 16 -41 27 -43 185 -33 83 6 154 13 158 17 4 4 0 34 -9 67 -25 91 -33
135 -34 181 0 35 3 42 23 46 21 4 21 4 1 6 -17 1 -24 11 -33 45 -6 25 -11 54
-11 65 0 19 -4 20 -65 14 -45 -4 -69 -2 -80 7 -12 10 -15 10 -15 -4z"/>
<path d="M5435 273 c-74 -9 -77 -11 -74 -53 4 -55 -15 -55 -22 0 -5 44 -5 44
-13 15 -13 -51 -16 -56 -24 -51 -5 3 -7 19 -4 37 3 22 1 30 -7 25 -6 -4 -11
-20 -11 -37 0 -19 -5 -29 -15 -29 -11 0 -13 8 -8 32 l6 31 -58 -7 c-33 -4 -61
-8 -63 -11 -5 -5 80 -114 90 -114 4 -1 8 9 10 21 2 12 9 23 15 26 10 3 11 -8
6 -44 -4 -34 -3 -45 5 -40 7 4 12 19 12 34 0 29 15 60 25 51 3 -3 0 -30 -6
-59 -13 -59 0 -100 33 -100 16 0 18 9 18 82 0 102 8 99 11 -5 l2 -77 38 0 c48
0 48 -2 14 148 -3 12 -1 22 3 22 8 0 21 -44 35 -120 7 -34 21 -50 43 -50 l24
0 0 140 0 140 -27 -1 c-16 -1 -41 -4 -58 -6z"/>
<path d="M5015 211 c-31 -5 -41 -11 -46 -31 -7 -24 -7 -24 -8 -2 -1 27 -7 27
-144 7 -161 -23 -167 -25 -167 -41 0 -11 -4 -12 -18 -3 -14 9 -54 6 -167 -9
-83 -12 -175 -24 -205 -27 -98 -11 -98 -12 -44 -61 48 -42 51 -43 118 -44 l68
0 -6 34 c-4 20 -2 37 4 41 6 4 10 -9 10 -34 l0 -41 275 0 274 0 4 68 3 67 2
-67 2 -68 160 0 161 0 -17 32 -17 33 -9 -24 c-6 -17 -12 -21 -19 -14 -8 8 -7
18 1 34 11 20 10 25 -11 43 -13 12 -41 42 -63 69 -41 50 -48 52 -141 38z"/>
<path d="M7550 195 c-85 -7 -170 -14 -188 -14 l-34 -1 8 -62 c4 -35 8 -75 7
-90 0 -33 -3 -32 33 -13 33 17 110 20 119 5 8 -13 67 -4 114 17 29 13 41 14
68 4 32 -12 202 -9 291 5 l32 5 0 75 0 75 -124 -6 c-83 -4 -126 -3 -131 4 -3
6 -14 10 -23 10 -9 -1 -87 -8 -172 -14z"/>
<path d="M7085 159 c-110 -10 -204 -17 -227 -18 -19 -1 -23 -34 -12 -103 l6
-36 229 -1 229 -1 0 38 c0 22 -3 60 -6 86 l-7 46 -61 -1 c-33 -1 -101 -5 -151
-10z"/>
<path d="M0 71 l0 -71 528 1 527 1 -140 18 c-77 10 -180 25 -230 35 -49 9
-153 23 -230 30 -162 17 -388 43 -427 51 l-28 6 0 -71z"/>
</g>
</svg>
