<?xml version="1.0" standalone="no"?>
<!DOCTYPE svg PUBLIC "-//W3C//DTD SVG 20010904//EN"
 "http://www.w3.org/TR/2001/REC-SVG-20010904/DTD/svg10.dtd">
<svg version="1.0" xmlns="http://www.w3.org/2000/svg"
 width="1429.000000pt" height="926.000000pt" viewBox="0 0 1429.000000 926.000000"
 preserveAspectRatio="xMidYMid meet">

<g transform="translate(0.000000,926.000000) scale(0.100000,-0.100000)"
fill="#000000" stroke="none">
<path d="M11523 7490 c-12 -5 -27 -18 -33 -29 -10 -20 -19 -21 -601 -23 l-590
-3 -40 -42 -39 -42 0 -341 0 -340 -565 0 -565 0 0 40 c0 29 4 40 15 40 11 0
15 12 15 45 0 33 -4 45 -14 45 -10 0 -16 14 -18 43 l-3 42 -55 0 -55 0 -3 -42
c-3 -43 -3 -43 -43 -43 l-39 0 0 120 c0 116 -1 122 -25 146 -62 62 -197 94
-393 94 -194 0 -336 -35 -394 -97 -21 -22 -23 -35 -26 -144 l-4 -119 -54 0
-54 0 0 45 0 45 -55 0 -55 0 0 -45 c0 -25 -4 -45 -10 -45 -5 0 -10 -20 -10
-44 0 -25 5 -48 10 -51 6 -3 10 -22 10 -41 l0 -34 -1960 0 -1960 0 0 90 0 90
-170 0 -170 0 0 -90 0 -90 -630 0 -630 0 0 90 0 90 -170 0 -170 0 0 -90 0 -90
-985 0 -985 0 0 -80 0 -80 985 0 984 0 3 -97 3 -98 58 -3 57 -3 0 -159 0 -160
-1045 0 -1045 0 0 -85 0 -85 1045 0 1045 0 0 -285 0 -285 -55 0 -55 0 0 -155
c0 -85 -2 -155 -4 -155 -2 0 -19 6 -37 14 -29 12 -40 12 -73 1 -22 -8 -49 -23
-60 -35 -17 -18 -14 -17 18 4 40 27 65 28 30 1 -15 -12 -16 -16 -6 -23 11 -7
10 -11 -4 -16 -13 -5 -15 -9 -6 -18 16 -16 15 -28 -1 -28 -9 0 -12 -10 -9 -30
3 -20 0 -30 -8 -30 -10 0 -10 -3 0 -15 11 -13 -1 -15 -95 -15 l-108 0 28 26
c38 35 30 83 -22 136 -67 69 -136 69 -198 2 -14 -15 -26 -21 -30 -14 -9 15
-22 12 -22 -4 0 -8 5 -12 12 -10 6 3 12 -9 13 -28 3 -33 18 -62 47 -92 15 -15
9 -16 -91 -16 l-107 0 21 23 c49 52 13 139 -70 177 -39 17 -93 16 -82 -2 3 -5
-2 -16 -12 -23 -15 -12 -16 -16 -6 -23 11 -7 10 -11 -4 -16 -13 -5 -15 -9 -6
-18 16 -16 15 -28 -1 -28 -9 0 -12 -10 -9 -30 5 -36 -3 -38 -30 -7 -11 12 -8
5 6 -15 l27 -38 -116 0 c-133 0 -169 -11 -228 -68 -64 -62 -82 -173 -42 -252
32 -61 121 -120 182 -120 17 0 33 -8 41 -20 10 -16 23 -20 67 -20 l55 0 0
-200 c0 -185 -1 -200 -18 -200 -32 0 -62 -29 -62 -60 0 -55 15 -60 191 -60 92
0 169 4 180 10 28 15 26 74 -3 94 -12 9 -30 16 -40 16 -17 0 -18 15 -18 200
l0 200 55 0 c43 0 59 4 72 20 17 19 30 20 309 20 278 0 292 -1 309 -20 10 -11
31 -20 47 -20 l28 0 0 -204 c0 -169 -3 -206 -15 -216 -20 -16 -20 -79 0 -86
20 -8 22 -229 2 -241 -30 -18 -47 -59 -47 -110 0 -43 -3 -53 -17 -53 -23 0
-293 -270 -293 -292 0 -11 9 -31 19 -46 11 -15 40 -97 65 -183 l45 -157 1
-168 c0 -93 1 -177 0 -186 0 -17 -19 -18 -262 -18 l-263 0 -148 186 c-82 102
-151 183 -154 180 -3 -3 -1 -11 4 -18 5 -7 71 -91 146 -186 l137 -172 0 -635
0 -635 790 0 790 0 0 633 0 634 200 188 c110 103 200 190 200 191 0 18 -48
-22 -215 -181 l-195 -185 -225 0 -225 0 0 173 0 173 51 174 c28 96 59 185 70
198 10 14 19 32 19 40 0 21 -259 281 -287 289 -19 4 -23 12 -23 44 0 50 -22
104 -49 121 -19 12 -21 22 -21 120 l0 108 114 0 c130 0 149 9 144 64 -2 24
-10 34 -35 46 l-33 15 0 198 0 197 48 0 c36 0 54 5 67 20 17 19 31 20 309 20
279 0 292 -1 309 -20 13 -15 29 -20 67 -20 l50 0 0 -200 c0 -174 -2 -200 -15
-200 -28 0 -64 -45 -58 -71 11 -43 22 -49 97 -49 l72 0 59 -192 59 -193 5
-315 6 -315 279 -3 c217 -2 281 1 288 10 4 7 8 145 8 305 l0 293 56 192 c31
106 65 206 76 222 39 54 31 67 -118 217 -77 77 -149 142 -162 145 -18 5 -22
13 -22 49 0 56 -13 90 -46 120 l-27 25 206 0 c194 0 207 -1 217 -19 8 -15 23
-21 63 -23 l52 -3 3 -145 c2 -80 0 -168 -3 -197 -6 -45 -10 -53 -35 -62 -37
-12 -49 -51 -26 -86 l16 -25 170 0 170 0 16 25 c23 35 11 74 -26 88 -37 14
-39 29 -37 237 l2 165 53 3 c39 2 56 8 65 23 11 17 24 19 162 19 165 0 203 10
258 66 140 141 39 373 -162 374 l-56 0 25 19 c19 15 25 29 25 60 0 35 -7 48
-40 81 -22 22 -55 44 -72 49 -90 26 -172 -107 -112 -183 l20 -26 -132 0 -132
0 27 21 c54 42 21 132 -66 177 -45 23 -47 23 -83 7 -61 -30 -87 -107 -56 -167
l19 -38 -127 0 c-105 1 -123 3 -109 14 30 22 40 63 24 99 -16 39 -79 97 -106
97 -18 0 -20 7 -20 55 0 30 -4 55 -10 55 -5 0 -10 -24 -10 -54 0 -44 -4 -56
-18 -60 -38 -12 -65 -54 -70 -106 -4 -44 -1 -55 19 -76 l23 -25 -62 3 c-34 2
-62 6 -62 11 0 4 0 135 0 292 l0 285 623 0 c686 0 667 -2 667 60 0 52 -26 60
-197 60 l-153 0 0 175 0 175 -35 0 -35 0 0 -175 0 -175 -220 0 -220 0 0 175 0
175 -35 0 -35 0 0 -175 0 -175 -180 0 -180 0 0 180 0 180 2020 0 2020 0 -2
-237 c-3 -232 -4 -238 -23 -234 -54 9 -118 12 -141 7 -30 -8 -66 -80 -57 -114
5 -19 1 -22 -26 -22 -17 0 -31 -4 -31 -9 0 -5 23 -28 50 -51 56 -47 62 -65 24
-82 -55 -25 -54 -19 -54 -638 l0 -570 -114 0 c-112 0 -115 -1 -135 -27 -22
-27 -21 -55 3 -80 9 -10 110 -13 411 -15 l400 -3 3 -224 2 -223 -67 4 -67 4
-210 -153 -209 -153 -19 30 c-10 17 -22 30 -28 30 -16 0 -60 47 -60 63 0 8 9
17 20 20 16 4 20 14 20 46 l0 41 -230 0 -230 0 0 -41 c0 -32 4 -42 20 -46 33
-9 23 -35 -27 -79 l-48 -42 0 -346 0 -346 -160 0 -160 0 3 332 c3 360 1 378
-49 404 -47 24 -63 68 -29 77 16 4 20 14 20 46 l0 41 -230 0 -230 0 0 -41 c0
-32 4 -42 20 -46 33 -9 23 -35 -27 -79 l-48 -42 0 -346 0 -346 -160 0 -160 0
3 332 c2 222 -1 341 -8 358 -6 14 -29 37 -51 52 -42 30 -51 62 -19 71 16 4 20
14 20 46 l0 41 -230 0 -230 0 0 -41 c0 -32 4 -42 20 -46 34 -9 18 -53 -29 -77
-50 -26 -52 -44 -49 -404 l3 -332 -160 0 -160 0 0 346 0 346 -48 42 c-50 44
-60 70 -27 79 16 4 20 14 20 46 l0 41 -230 0 -230 0 0 -41 c0 -32 4 -42 20
-46 11 -3 20 -12 20 -20 0 -13 -10 -23 -78 -83 l-23 -20 3 -345 3 -344 -525
-3 c-517 -3 -526 -3 -566 -25 -50 -27 -108 -90 -129 -140 -9 -21 -16 -66 -16
-99 0 -136 85 -238 221 -264 33 -6 58 -17 67 -30 12 -17 26 -20 84 -20 l69 0
0 -245 0 -245 -33 0 c-66 0 -93 -78 -41 -119 25 -19 40 -21 206 -21 215 0 238
7 238 76 0 39 -27 64 -68 64 l-32 0 0 245 0 245 70 0 c59 0 72 3 82 20 12 19
24 20 373 20 349 0 361 -1 373 -20 10 -17 23 -20 82 -20 l70 0 0 -245 0 -245
-33 0 c-66 0 -93 -78 -41 -119 25 -19 40 -21 206 -21 215 0 238 7 238 76 0 39
-27 64 -68 64 l-32 0 0 245 0 245 70 0 c59 0 72 3 82 20 12 19 24 20 373 20
349 0 361 -1 373 -20 10 -17 23 -20 82 -20 l70 0 0 -245 0 -245 -33 0 c-41 0
-67 -26 -67 -66 1 -66 25 -74 235 -74 212 0 235 7 235 76 0 39 -27 64 -68 64
l-32 0 0 245 0 245 70 0 c59 0 72 3 82 20 12 19 24 20 373 20 349 0 361 -1
373 -20 10 -17 23 -20 82 -20 l70 0 0 -245 0 -245 -33 0 c-41 0 -67 -26 -67
-66 1 -66 25 -74 235 -74 212 0 235 7 235 76 0 39 -27 64 -68 64 l-32 0 0 245
0 245 70 0 c59 0 72 3 82 20 9 14 24 20 50 20 l38 0 0 -330 0 -330 1070 0
1070 0 0 330 0 330 60 0 c47 0 64 -4 80 -20 16 -16 33 -20 85 -20 l65 0 0
-245 0 -245 -33 0 c-67 0 -93 -78 -40 -120 26 -20 36 -21 221 -18 178 3 195 5
208 22 16 22 18 74 5 95 -5 8 -26 17 -47 20 l-39 6 -3 243 -2 242 70 0 c59 0
72 3 82 20 12 19 24 20 373 20 349 0 361 -1 373 -20 10 -17 23 -20 82 -20 l70
0 0 -245 0 -245 -33 0 c-66 0 -93 -78 -41 -119 25 -20 40 -21 208 -21 213 0
230 5 234 65 3 52 -8 66 -54 74 l-39 6 -3 243 -2 242 69 0 c58 0 72 3 84 20
13 19 31 19 913 22 888 3 900 3 944 24 66 31 106 68 135 129 32 64 36 158 11
218 -22 50 -80 114 -130 140 -40 21 -52 22 -443 25 l-403 3 0 345 0 346 -31
29 c-17 16 -35 29 -39 29 -9 0 -25 40 -22 53 1 4 -4 7 -12 7 -23 0 -6 -48 26
-75 16 -14 33 -25 37 -25 26 0 31 -64 31 -370 l0 -320 -275 0 -275 0 0 320 c0
220 4 327 12 344 6 14 26 34 43 45 36 21 65 81 39 81 -7 0 -13 -3 -12 -7 5
-18 -15 -52 -32 -58 -11 -3 -29 -18 -40 -32 -19 -25 -20 -39 -20 -369 l0 -344
-175 0 -175 0 0 349 0 349 -31 26 c-17 14 -34 26 -39 26 -9 0 -25 39 -22 53 1
4 -5 7 -12 7 -27 0 3 -60 41 -83 19 -11 39 -31 44 -44 5 -13 9 -168 9 -344 l0
-319 -275 0 -276 0 3 331 3 331 47 42 c48 42 71 86 46 86 -8 0 -14 -10 -15
-22 -1 -13 -12 -30 -24 -38 -11 -8 -32 -25 -45 -37 l-24 -22 0 -346 0 -345
-172 0 -173 0 0 346 0 346 -48 42 c-26 22 -47 49 -47 59 0 9 -7 17 -14 17 -27
0 3 -60 41 -82 18 -11 38 -28 43 -38 6 -11 10 -152 10 -344 l0 -326 -270 0
-270 0 0 333 0 332 44 40 c48 43 69 85 42 85 -9 0 -13 -6 -10 -15 5 -13 -3
-23 -74 -85 l-23 -20 3 -345 3 -345 -175 0 -175 0 0 346 0 346 -48 42 c-26 22
-47 49 -47 59 0 9 -7 17 -14 17 -27 0 3 -60 41 -82 18 -11 38 -28 43 -38 6
-11 10 -152 10 -344 l0 -326 -145 0 -145 0 0 25 c0 15 6 25 14 25 8 0 16 5 18
12 6 16 78 13 89 -4 7 -10 11 -10 17 -1 4 6 25 13 47 15 l40 3 3 85 c3 99 8
122 22 100 6 -10 10 49 10 164 l0 178 -47 -7 c-27 -4 -68 -15 -92 -26 -24 -11
-61 -22 -83 -25 l-38 -7 0 121 0 121 88 4 87 3 -87 2 c-71 2 -88 5 -88 17 0
22 226 22 233 0 4 -11 4 -10 3 2 -1 16 -15 18 -119 21 l-117 3 0 304 0 305
-70 0 -70 0 0 50 0 50 -225 0 -225 0 0 45 0 45 28 -12 c15 -7 37 -23 49 -35
l22 -23 471 0 471 0 22 23 c12 12 34 28 50 35 l27 12 0 -115 0 -115 66 0 65 0
-6 403 -7 402 -44 3 -44 3 0 437 c0 426 0 437 20 450 14 8 20 23 20 47 l0 35
165 0 165 0 0 -33 c0 -21 8 -41 20 -52 20 -18 20 -31 20 -620 0 -497 3 -618
15 -691 44 -249 144 -461 290 -609 83 -84 182 -146 255 -160 26 -5 39 -14 50
-38 8 -18 30 -40 49 -49 18 -9 45 -35 58 -57 l24 -41 -45 0 c-41 0 -46 -2 -45
-22 1 -17 2 -19 6 -5 4 15 24 17 216 19 117 1 188 3 160 5 l-53 4 21 40 c13
27 31 44 50 51 17 6 41 27 53 47 18 27 34 39 67 48 99 26 245 153 337 293 55
84 112 202 151 314 61 172 61 181 61 1052 l0 794 295 0 295 0 0 -96 c0 -97 0
-97 -34 -130 -34 -33 -46 -68 -46 -133 0 -30 -5 -39 -25 -47 -25 -9 -299 -275
-316 -306 -14 -26 -11 -46 11 -68 11 -11 42 -98 79 -222 33 -111 67 -208 76
-214 13 -10 15 -51 15 -300 0 -159 4 -295 8 -302 7 -9 71 -12 288 -10 l279 3
3 303 c2 253 5 302 16 302 8 0 17 8 20 18 3 9 30 102 60 205 31 104 65 200 76
214 40 51 31 65 -132 225 -84 81 -163 151 -175 154 -20 5 -23 13 -23 56 0 58
-22 110 -56 133 -23 15 -24 21 -24 115 l0 100 370 0 370 0 0 85 0 85 -370 0
-370 0 0 145 0 145 70 0 69 0 3 113 3 112 298 3 297 2 0 80 0 80 -300 0 -300
0 0 110 0 110 -190 0 -190 0 0 -110 0 -110 -225 0 -225 0 0 82 c0 62 -5 92
-21 125 -34 69 -103 129 -211 181 l-97 47 0 175 c-1 96 -5 180 -9 186 -21 32
-52 34 -514 33 -255 0 -473 -4 -485 -9z m975 -32 c8 -8 12 -62 12 -176 l0
-164 -22 5 c-13 3 -63 14 -113 26 -148 34 -350 47 -517 33 -127 -11 -280 -37
-330 -57 -17 -7 -18 5 -18 162 0 93 3 173 7 176 3 4 223 7 488 7 361 0 484 -3
493 -12z m-1010 -83 c2 -22 1 -77 -3 -122 l-7 -83 -494 0 -494 0 0 -415 0
-415 -109 0 c-60 0 -116 -3 -125 -6 -14 -6 -16 42 -16 492 0 483 1 500 20 532
38 63 27 62 655 59 l570 -2 3 -40z m-2837 -209 c85 -15 162 -46 196 -78 21
-20 23 -30 23 -135 l0 -113 -395 0 -395 0 0 115 c0 131 5 141 87 177 103 46
329 61 484 34z m3602 -22 c272 -37 493 -143 560 -268 l22 -41 0 -1330 0 -1330
-27 -98 c-102 -370 -326 -655 -549 -697 -68 -13 -451 -13 -520 0 -241 45 -445
297 -547 675 l-27 100 -3 1323 c-2 947 1 1334 9 1364 7 28 28 59 68 99 179
179 591 261 1014 203z m-763 -16 c-1 -7 -49 -36 -108 -65 -180 -86 -242 -166
-242 -311 l0 -82 -310 0 -310 0 0 235 0 235 485 0 c382 0 485 -3 485 -12z
m-3580 -258 c0 -27 -3 -30 -30 -30 -27 0 -30 3 -30 30 0 27 3 30 30 30 27 0
30 -3 30 -30z m1150 0 c0 -27 -3 -30 -30 -30 -27 0 -30 3 -30 30 0 27 3 30 30
30 27 0 30 -3 30 -30z m4600 -285 l0 -275 -160 0 -160 0 0 275 1 275 159 0
160 0 0 -275z m-11371 0 l0 -245 -145 0 -144 0 0 245 0 245 145 0 145 0 -1
-245z m1591 0 l1 -245 -144 0 -144 0 0 238 c-1 130 1 240 4 245 2 4 67 7 143
7 l139 0 1 -245z m5220 210 l0 -25 -635 0 c-609 0 -635 1 -635 18 0 10 3 22 7
25 3 4 289 7 635 7 l628 0 0 -25z m-1050 -85 l0 -40 -55 0 -55 0 0 40 0 40 55
0 55 0 0 -40z m920 0 l0 -40 -40 0 c-39 0 -40 1 -40 33 0 19 3 37 7 40 3 4 21
7 40 7 32 0 33 -1 33 -40z m-1060 -240 l0 -270 -30 0 -30 0 0 270 0 270 30 0
30 0 0 -270z m960 0 l0 -270 -395 0 -395 0 0 270 0 270 395 0 395 0 0 -270z
m190 0 l0 -270 -30 0 -30 0 0 270 0 270 30 0 30 0 0 -270z m-7090 120 l0 -50
-970 0 -970 0 0 50 0 50 970 0 970 0 0 -50z m1595 41 c3 -6 3 -28 -1 -50 l-7
-41 -618 0 -619 0 0 50 0 50 619 0 c376 0 622 -4 626 -9z m4255 -41 l0 -50
-1955 0 -1955 0 0 50 0 50 1955 0 1955 0 0 -50z m230 0 l0 -50 -55 0 -55 0 0
50 0 50 55 0 55 0 0 -50z m920 0 l0 -50 -35 0 -35 0 0 50 0 50 35 0 35 0 0
-50z m1240 0 l0 -50 -560 0 -560 0 0 50 0 50 560 0 560 0 0 -50z m928 3 l-3
-48 -307 -3 -308 -2 0 50 0 50 311 0 310 0 -3 -47z m2172 20 c0 -16 -3 -38 -6
-50 -6 -23 -7 -23 -225 -23 l-219 0 0 50 0 50 225 0 225 0 0 -27z m950 -23 l0
-50 -279 0 -278 0 -7 38 c-3 20 -6 43 -6 50 0 9 64 12 285 12 l285 0 0 -50z
m-10692 -182 l3 -98 59 0 60 0 0 -160 0 -160 -750 0 -750 0 0 160 0 160 60 0
60 0 0 93 c0 52 3 97 7 100 3 4 286 6 627 5 l621 -3 3 -97z m4260 -55 c2 -100
-1 -153 -8 -153 -13 0 -13 -83 1 -97 5 -5 9 -32 7 -59 l-3 -49 -2017 -3 -2017
-2 -3 160 -3 159 60 3 60 3 3 98 3 97 1957 -2 1957 -3 3 -152z m222 2 l0 -155
-55 0 -55 0 0 155 0 155 55 0 55 0 0 -155z m920 0 l0 -155 -40 0 -40 0 0 148
c0 82 3 152 7 155 3 4 21 7 40 7 l33 0 0 -155z m1248 63 c2 -78 0 -91 -20
-119 -19 -25 -24 -46 -27 -115 -3 -83 -3 -84 -30 -84 -141 -2 -327 -39 -426
-85 -51 -25 -55 -25 -338 -25 l-287 0 0 60 c0 43 4 59 13 58 8 -2 13 13 15 45
2 37 0 47 -12 47 -14 0 -16 21 -16 155 l0 155 563 -2 562 -3 3 -87z m920 -170
l2 -258 -278 0 c-203 0 -281 3 -290 12 -8 8 -12 53 -12 139 0 111 -2 129 -20
152 -17 21 -20 40 -20 121 l0 96 308 -2 307 -3 3 -257z m2170 145 l3 -113 69
0 70 0 0 -145 0 -145 -295 0 -295 0 0 253 c0 140 3 257 7 261 4 3 104 5 222 4
l216 -3 3 -112z m-11149 -1463 c0 -1198 -2 -1380 -15 -1380 -12 0 -14 182 -14
1380 0 1219 2 1380 15 1380 13 0 15 -161 14 -1380z m1589 388 c-2 -656 -6
-992 -13 -990 -7 1 -11 342 -12 992 -2 859 0 990 13 990 12 0 14 -131 12 -992z
m6763 973 c22 -18 24 -27 27 -141 l4 -123 -24 7 c-118 33 -190 49 -246 54
l-67 7 -3 87 c-4 125 0 128 162 128 107 0 127 -3 147 -19z m3009 -336 c0 -318
0 -325 -20 -325 -20 0 -20 7 -20 318 0 175 3 322 7 325 3 4 12 7 20 7 11 0 13
-61 13 -325z m-4420 195 c0 -20 -7 -20 -635 -20 -628 0 -635 0 -635 20 0 20 7
20 635 20 628 0 635 0 635 -20z m-1030 -104 l18 -56 -74 0 -74 0 0 58 0 57 57
-1 56 -2 17 -56z m-160 -305 l0 -359 -30 -4 -30 -5 0 364 0 363 30 0 30 0 0
-359z m950 341 c0 -35 -60 -138 -106 -186 -83 -83 -106 -91 -279 -91 -144 0
-152 1 -207 28 -84 41 -161 142 -182 240 l-6 27 390 0 c372 0 390 -1 390 -18z
m110 -37 l0 -55 -55 0 c-30 0 -55 3 -55 6 0 4 8 28 17 55 17 47 19 49 55 49
l38 0 0 -55z m90 -207 c0 -258 0 -262 -22 -286 -23 -23 -23 -29 -28 -350 -5
-274 -6 -228 -8 286 l-2 612 30 0 30 0 0 -262z m1292 212 c161 -31 292 -103
334 -182 12 -23 14 -145 14 -743 l0 -715 -570 0 -570 0 0 715 c0 786 -4 739
62 802 57 55 202 113 338 136 78 13 296 6 392 -13z m-8262 -145 l0 -65 -1033
2 -1032 3 -3 63 -4 62 1036 0 1036 0 0 -65z m1598 3 l-3 -63 -745 0 -745 0 -3
63 -3 62 751 0 751 0 -3 -62z m4132 -3 l0 -65 -2015 0 -2015 0 0 65 0 65 2015
0 2015 0 0 -65z m314 10 c20 -30 41 -55 46 -55 6 0 10 -4 10 -10 0 -6 -48 -10
-125 -10 l-125 0 0 65 0 65 79 0 78 0 37 -55z m836 -10 l0 -65 -116 0 -117 0
28 28 c15 15 39 44 53 65 24 36 26 37 88 37 l64 0 0 -65z m636 44 c-14 -11
-38 -40 -52 -65 l-26 -44 -219 0 -219 0 0 65 0 65 271 0 272 0 -27 -21z m1533
-31 c-1 -29 -4 -59 -7 -65 -3 -10 -53 -13 -202 -13 l-198 0 -26 44 c-14 25
-38 54 -52 65 l-27 21 257 0 257 0 -2 -52z m2309 -10 l-3 -63 -290 0 -290 0
-3 63 -3 62 296 0 296 0 -3 -62z m822 -3 l0 -65 -357 2 -358 3 -3 63 -3 62
361 0 360 0 0 -65z m-10602 -92 l-28 -4 0 -175 0 -174 -225 0 -225 0 0 175 0
175 -30 0 -30 0 0 -175 0 -175 -130 0 c-117 0 -132 -2 -150 -20 -11 -11 -20
-29 -20 -40 0 -11 9 -29 20 -40 19 -19 33 -20 430 -20 l410 0 0 -231 0 -231
-29 31 c-16 17 -46 38 -66 46 -32 14 -39 14 -71 -1 -20 -9 -43 -28 -52 -41
-23 -36 -22 -116 2 -142 l19 -21 -128 0 -128 0 21 23 c26 27 29 84 7 113 -10
13 -14 44 -15 97 0 44 -4 77 -10 77 -6 0 -10 -29 -10 -66 l0 -66 -25 16 c-13
9 -31 16 -39 16 -13 0 -16 25 -18 158 -4 206 -22 207 -26 0 l-3 -151 -36 -32
c-32 -27 -37 -38 -41 -87 -4 -48 -1 -58 19 -77 l23 -21 -117 0 -117 0 0 250 0
250 -330 0 -330 0 0 285 0 285 753 -1 c413 -1 740 -4 725 -6z m4601 -8 c46
-23 48 -71 5 -146 -19 -34 -34 -67 -34 -75 0 -7 25 -32 55 -55 l55 -41 0 -204
0 -204 -90 0 c-87 0 -90 1 -90 23 0 16 16 35 50 61 27 21 47 42 44 47 -3 5
-32 9 -65 9 -56 0 -59 1 -59 25 0 29 -59 99 -103 122 -19 9 -43 13 -64 10
l-33 -6 0 225 0 224 150 0 c113 0 158 -4 179 -15z m701 -455 l0 -470 -135 0
-135 0 0 24 c0 14 -8 31 -18 38 -10 7 -22 31 -25 52 -3 22 -17 51 -31 65 -25
26 -25 27 -27 230 l-2 204 49 42 48 42 -31 74 c-22 52 -28 79 -22 91 5 9 9 25
9 35 0 31 39 40 183 42 l137 1 0 -470z m560 392 c0 -71 -2 -78 -22 -87 -14 -6
-24 -21 -26 -37 l-3 -28 -179 0 c-98 0 -185 -3 -194 -6 -14 -5 -16 9 -16 115
l0 121 220 0 220 0 0 -78z m1592 58 c-14 -14 -22 -33 -22 -55 l0 -35 -165 0
-165 0 0 32 c0 19 -9 41 -22 55 l-21 23 208 0 209 0 -22 -20z m-6922 -170 c0
-144 -2 -170 -15 -170 -13 0 -15 25 -15 164 0 157 2 167 28 175 1 1 2 -75 2
-169z m-1020 -6 c0 -152 -1 -165 -17 -162 -16 3 -18 20 -21 153 -3 160 -1 175
23 175 13 0 15 -24 15 -166z m510 1 c0 -140 -2 -165 -15 -165 -13 0 -15 25
-15 165 0 140 2 165 15 165 13 0 15 -25 15 -165z m1020 0 c0 -140 -2 -165 -15
-165 -13 0 -15 25 -15 165 0 140 2 165 15 165 13 0 15 -25 15 -165z m6040 -6
c0 -99 -4 -159 -10 -159 -6 0 -10 62 -10 166 0 107 3 163 10 159 6 -4 10 -70
10 -166z m-2130 148 c0 -31 -24 -37 -152 -37 -116 0 -128 2 -138 19 -5 11 -10
22 -10 25 0 3 68 6 150 6 116 0 150 -3 150 -13z m2514 -151 c0 -86 -2 -156 -6
-156 -5 0 -8 73 -8 162 0 89 3 159 6 155 3 -3 7 -76 8 -161z m-2509 64 c7 -14
16 -35 19 -47 l7 -23 -185 0 c-102 0 -186 3 -186 7 0 3 12 26 26 50 l26 45
140 -3 c138 -4 140 -4 153 -29z m2475 -60 l0 -70 -165 0 -165 0 0 70 0 70 165
0 165 0 0 -70z m-1570 -151 c0 -132 -3 -170 -12 -167 -10 4 -14 46 -16 158 -3
157 0 180 18 180 6 0 10 -60 10 -171z m4032 103 c20 -16 38 -72 38 -113 0 -20
-7 -30 -30 -39 -17 -7 -40 -24 -51 -38 l-20 -26 -15 22 c-8 12 -28 29 -45 37
-26 14 -29 20 -29 68 0 62 18 93 63 106 37 10 64 5 89 -17z m-4947 -32 l-39
-40 -101 0 c-101 0 -101 0 -153 38 -28 20 -52 39 -52 42 0 3 86 4 192 2 l191
-3 -38 -39z m855 -55 l0 -84 -142 -3 -143 -3 -3 -330 c-2 -322 -3 -330 -24
-352 -21 -23 -25 -23 -240 -23 l-218 0 0 80 0 80 165 0 165 0 0 319 c0 187 4
331 10 346 17 46 57 54 253 55 l177 0 0 -85z m-946 -11 l46 -7 0 -188 0 -188
-52 -6 c-29 -4 -73 -5 -98 -3 l-45 3 -3 189 c-2 145 1 191 10 198 16 9 79 10
142 2z m-4834 -74 l0 -40 -409 0 c-444 0 -441 0 -427 55 l6 25 415 0 415 0 0
-40z m1370 20 c8 -14 8 -26 0 -40 -11 -20 -21 -20 -640 -20 l-630 0 0 40 0 40
630 0 c619 0 629 0 640 -20z m8384 -61 c45 -54 30 -96 -51 -139 -32 -16 -65
-35 -73 -40 -8 -5 -51 -31 -95 -56 -44 -25 -90 -55 -102 -66 -27 -25 -69 -18
-79 14 -5 17 4 30 52 72 32 28 103 95 157 149 85 84 103 97 132 97 25 0 40 -8
59 -31z m337 -96 c72 -71 139 -132 149 -137 25 -12 34 -40 20 -66 -14 -26 -52
-26 -75 0 -10 11 -87 59 -172 106 -84 47 -156 90 -159 96 -3 5 -6 25 -7 45 -1
27 5 41 27 59 54 47 74 37 217 -103z m-4301 72 c4 -29 11 -43 28 -50 l22 -10
0 -357 0 -357 -46 -3 -45 -3 -2 -175 -2 -175 -172 -3 -173 -2 0 235 0 235 26
0 c15 0 38 12 55 29 l29 29 0 320 c0 175 3 322 7 326 4 3 66 5 137 4 l131 -3
5 -40z m4030 -83 c0 -14 36 -52 49 -52 6 0 11 -4 11 -9 0 -5 -33 -8 -74 -7
-41 0 -72 4 -69 9 2 4 10 7 18 7 8 0 22 14 32 30 17 29 33 39 33 22z m-11420
-257 l0 -245 -45 0 -45 0 0 245 0 245 45 0 45 0 0 -245z m745 0 l0 -240 -320
0 -320 0 -3 53 -3 52 255 0 c218 0 257 2 270 16 24 23 23 230 -1 256 -15 17
-37 18 -270 18 l-253 0 0 38 c0 21 3 42 7 45 4 4 149 6 322 5 l316 -3 0 -240z
m5355 175 l-34 -30 -251 0 -250 1 -35 29 -35 29 320 0 320 0 -35 -29z m5659
-126 c4 -4 -17 -80 -65 -241 -14 -46 -30 -83 -35 -83 -5 0 -22 12 -37 27 l-27
27 25 6 c28 7 39 42 20 66 -18 21 -442 21 -460 -1 -18 -22 -4 -65 21 -65 17 0
18 -3 9 -20 -11 -20 -48 -45 -56 -37 -7 6 -96 318 -93 321 2 1 46 27 98 56
l95 54 137 -3 c83 -1 139 1 143 7 5 8 199 -91 225 -114z m-5699 61 c0 -13 -34
-15 -245 -15 -211 0 -245 2 -245 15 0 13 34 15 245 15 211 0 245 -2 245 -15z
m464 -67 c12 -19 16 -96 20 -426 l5 -403 -157 3 c-86 2 -171 9 -187 15 -97 34
-174 -89 -103 -164 29 -31 79 -39 119 -19 25 12 64 16 176 16 l143 0 0 -85 0
-85 -170 0 c-107 0 -170 -4 -170 -10 0 -6 -123 -10 -350 -10 l-350 0 0 569 c0
560 0 569 21 595 l20 26 484 0 485 0 14 -22z m4515 -50 c66 -228 81 -287 80
-318 -1 -39 5 -55 -73 208 -32 107 -37 142 -21 142 2 0 8 -15 14 -32z m771 19
c0 -31 -109 -370 -110 -342 -1 36 91 355 102 355 4 0 8 -6 8 -13z m-12418 -77
c-14 -11 -18 -21 -12 -25 8 -5 7 -11 -1 -21 -9 -11 -9 -17 1 -29 10 -12 9 -15
-4 -15 -12 0 -16 -6 -12 -17 3 -10 2 -24 -3 -31 -11 -18 -31 7 -41 51 -8 36 4
58 50 90 33 23 51 21 22 -3z m7198 -165 c0 -92 -4 -156 -10 -160 -7 -4 -10 52
-10 160 0 108 3 164 10 160 6 -4 10 -68 10 -160z m5040 55 c0 -19 -7 -20 -220
-20 -213 0 -220 1 -220 20 0 19 7 20 220 20 213 0 220 -1 220 -20z m-10030
-55 c0 -9 -9 -15 -22 -15 -22 1 -23 1 -4 15 25 19 26 19 26 0z m10024 -38 l56
-53 0 -332 0 -332 -270 0 -270 0 0 331 0 331 31 29 c17 16 34 29 38 29 4 0 13
11 19 25 l12 25 164 0 165 0 55 -53z m-11624 -12 l0 -25 -613 0 -613 0 -44
-22 c-109 -56 -110 -217 0 -275 l43 -23 614 0 613 0 0 -25 0 -25 -607 0 c-394
0 -621 4 -646 11 -21 5 -54 24 -74 42 -95 83 -97 223 -5 310 59 56 54 56 720
57 l612 0 0 -25z m1600 0 l0 -25 -750 0 -750 0 0 25 0 25 750 0 750 0 0 -25z
m1323 14 c82 -22 147 -110 147 -199 0 -89 -65 -177 -147 -199 -25 -7 -248 -11
-630 -11 l-593 0 0 25 0 25 609 2 c601 3 610 3 638 24 98 73 98 195 0 268 -28
21 -37 21 -638 24 l-609 2 0 25 0 25 593 0 c382 0 605 -4 630 -11z m-4021 -81
c30 -11 61 -56 72 -101 9 -40 -27 -113 -66 -133 -63 -33 -144 -14 -178 41 -40
65 -15 169 48 193 54 21 67 21 124 0z m836 -33 c27 -30 32 -42 32 -86 0 -46
-4 -55 -39 -90 -34 -34 -44 -39 -85 -39 -88 0 -140 49 -140 131 0 125 145 178
232 84z m2758 27 c103 -55 62 -232 -56 -242 -56 -5 -74 2 -111 39 -35 35 -39
44 -39 89 0 108 107 167 206 114z m4384 -207 l0 -235 -155 0 -155 0 0 188 c0
176 1 188 20 200 14 8 20 23 20 47 l0 35 135 0 135 0 0 -235z m-7549 186 c35
-35 39 -44 39 -91 0 -47 -4 -56 -39 -91 -34 -34 -44 -39 -85 -39 -26 0 -61 7
-77 16 -39 19 -73 91 -63 131 19 80 58 112 138 113 43 0 53 -4 87 -39z m666
-91 l0 -129 -28 15 c-85 44 -88 174 -5 225 17 10 32 19 32 19 1 0 1 -58 1
-130z m517 109 c113 -89 39 -262 -102 -241 -46 6 -99 59 -107 105 -10 51 12
106 54 134 45 30 118 31 155 2z m400 0 c56 -44 72 -118 36 -176 -27 -45 -60
-64 -113 -65 -130 -2 -185 159 -82 240 38 30 121 31 159 1z m390 0 c56 -44 72
-118 36 -176 -27 -45 -60 -64 -114 -65 -131 -2 -185 159 -80 241 19 15 41 21
79 21 38 0 60 -6 79 -21z m267 4 c-18 -9 -42 -31 -52 -47 -38 -63 -14 -146 52
-179 19 -9 27 -17 18 -17 -42 0 -99 74 -99 130 0 56 57 130 99 130 9 0 1 -8
-18 -17z m530 -6 c22 -15 39 -38 49 -65 31 -89 -32 -172 -132 -172 -41 0 -54
5 -86 34 -35 33 -37 38 -37 96 0 58 2 63 37 96 32 29 45 34 86 34 34 0 59 -7
83 -23z m795 4 c21 -13 38 -36 49 -65 17 -44 17 -48 0 -92 -22 -58 -62 -84
-129 -84 -43 0 -53 4 -87 39 -34 34 -39 44 -39 86 0 84 49 134 130 135 27 0
57 -8 76 -19z m4074 -206 l0 -225 -30 0 -30 0 0 225 0 225 30 0 30 0 0 -225z
m-6805 95 c0 -53 -3 -63 -29 -87 -16 -16 -26 -22 -22 -15 4 6 2 12 -3 12 -7 0
-11 33 -11 90 0 57 4 90 11 90 5 0 7 6 3 13 -4 6 6 0 22 -16 26 -24 29 -34 29
-87z m1435 76 c0 -19 -4 -38 -10 -41 -5 -3 -10 -19 -10 -35 0 -16 5 -32 10
-35 6 -3 10 -22 10 -41 0 -45 -19 -44 -59 1 -23 27 -31 45 -31 75 0 30 8 48
31 75 40 45 59 46 59 1z m152 -38 c13 -45 -1 -105 -31 -132 -20 -18 -20 -17
-19 93 1 109 1 111 19 95 11 -10 24 -35 31 -56z m5688 -93 c0 -63 -1 -65 -25
-65 -24 0 -25 -3 -25 -60 0 -57 1 -60 25 -60 23 0 25 -4 25 -40 l0 -40 -40 0
-40 0 0 165 0 165 40 0 40 0 0 -65z m1280 -320 l0 -385 -51 0 -50 0 5 118 c3
64 8 181 12 260 l6 142 24 0 c23 0 24 3 24 60 0 57 -1 60 -25 60 -24 0 -25 2
-25 65 l0 65 40 0 40 0 0 -385z m-50 195 l0 -40 -630 0 -630 0 0 40 0 40 630
0 630 0 0 -40z m-7070 -5 l0 -25 -750 0 -750 0 0 25 0 25 750 0 750 0 0 -25z
m-1240 -45 c28 -1 32 -3 18 -10 -9 -6 -36 -9 -60 -8 l-43 3 -3 -207 -2 -208
-85 0 -85 0 2 198 3 197 50 6 c57 7 57 10 0 13 -62 5 -64 9 -10 17 28 4 79 5
115 3 36 -2 81 -4 100 -4z m1093 0 c58 0 37 -13 -26 -16 l-52 -2 -5 -141 -5
-140 -65 -66 c-57 -57 -69 -65 -102 -65 l-38 0 0 200 0 200 72 0 c39 0 69 3
65 6 -3 3 -56 6 -119 6 -62 1 -120 4 -128 7 -19 8 225 19 304 15 32 -2 77 -4
99 -4z m112 -20 c-25 -26 -30 -40 -33 -95 -3 -48 -8 -65 -19 -65 -8 0 -39 -23
-69 -51 l-54 -52 0 127 0 126 50 0 c39 0 53 4 62 20 9 15 24 20 52 20 l40 0
-29 -30z m988 20 c58 0 36 -13 -26 -16 -28 -2 -55 -3 -59 -3 -5 -1 -8 -93 -8
-206 l0 -205 -100 0 -100 0 0 200 0 200 67 0 c36 0 64 3 60 6 -3 3 -54 6 -114
5 -59 0 -117 3 -128 7 -23 8 223 21 309 16 32 -2 77 -4 99 -4z m-3272 -9 c-19
-12 -395 -13 -424 -1 -14 5 65 9 208 9 141 1 224 -3 216 -8z m719 -1 c0 -6
-11 -8 -27 -4 -40 10 -41 14 -5 14 18 0 32 -5 32 -10z m8610 -132 c0 -121 -2
-134 -22 -155 l-21 -23 -527 0 c-516 0 -527 0 -548 20 -12 12 -22 30 -22 40 0
18 7 20 89 20 59 0 98 -5 117 -15 47 -24 82 -19 120 19 22 22 34 44 34 60 0
35 -25 83 -49 96 -25 13 -98 13 -106 0 -3 -6 -50 -10 -106 -10 l-99 0 0 40 0
40 570 0 570 0 0 -132z m-6918 111 c24 -13 48 -67 48 -109 0 -23 -6 -33 -24
-40 -13 -5 -36 -21 -50 -37 -15 -16 -26 -22 -26 -14 0 16 -24 37 -57 51 -19 8
-23 17 -23 50 0 43 21 95 42 103 23 9 69 7 90 -4z m-2532 -199 l0 -200 -95 0
-95 0 0 200 0 200 95 0 95 0 0 -200z m7033 143 c-7 -2 -19 -2 -25 0 -7 3 -2 5
12 5 14 0 19 -2 13 -5z m1588 -22 c55 -56 22 -142 -53 -140 l-33 1 35 8 c83
20 83 116 0 149 l-25 10 23 0 c13 1 36 -12 53 -28z m-1651 1 c-12 -9 -25 -33
-30 -52 -7 -30 -8 -31 -9 -9 -1 27 32 79 51 79 6 0 0 -8 -12 -18z m1622 -19
c20 -18 24 -63 6 -81 -9 -9 -203 -12 -809 -12 -712 0 -799 2 -813 16 -21 20
-20 53 1 76 15 17 53 18 806 18 721 0 792 -1 809 -17z m-1577 -116 l30 -4 -31
-2 c-27 -1 -74 28 -74 46 0 4 10 -3 23 -14 12 -12 36 -23 52 -26z m-4588 18
c11 -8 23 -26 27 -39 11 -43 -9 -73 -71 -105 -32 -17 -85 -46 -118 -66 -33
-19 -71 -41 -85 -48 -13 -6 -35 -23 -47 -35 -22 -22 -26 -23 -46 -9 -28 19
-33 42 -11 59 9 7 74 68 144 136 135 129 158 141 207 107z m319 -100 c64 -63
127 -121 141 -130 18 -12 23 -24 21 -43 -4 -35 -41 -42 -71 -14 -22 19 -38 29
-192 112 -44 24 -90 52 -102 63 -49 44 -13 127 53 127 29 0 49 -16 150 -115z
m4974 0 l0 -85 -155 0 -155 0 0 85 0 85 155 0 155 0 0 -85z m90 0 l0 -85 -30
0 -30 0 0 85 0 85 30 0 30 0 0 -85z m375 10 c1 -38 -1 -76 -3 -82 -3 -10 -47
-13 -173 -13 l-169 0 0 85 0 85 173 -2 172 -3 0 -70z m104 32 c7 -24 11 -61 9
-82 l-3 -40 -47 -3 -48 -3 0 85 0 86 39 0 c37 0 39 -2 50 -43z m-5779 -77 c0
-3 12 -13 28 -22 27 -17 27 -17 -53 -18 l-80 0 34 21 c18 11 36 29 39 41 5 20
6 20 19 3 7 -11 13 -21 13 -25z m6850 0 c-21 -13 -947 -13 -955 0 -4 7 159 10
482 10 319 0 483 -4 473 -10z m-6644 -117 c48 -26 89 -53 91 -60 5 -12 -62
-259 -76 -282 -10 -16 -39 -3 -47 21 -4 14 1 24 15 34 15 11 21 26 21 55 l0
39 -230 0 -230 0 0 -34 c0 -44 9 -66 26 -66 8 0 14 -3 14 -8 0 -14 -31 -52
-43 -52 -10 0 -89 246 -87 273 0 4 22 7 48 7 58 0 87 24 79 66 -4 20 1 29 23
42 22 14 52 17 169 15 l141 -1 86 -49z m-2634 2 c8 -19 8 -28 -2 -40 -11 -13
-39 -15 -179 -13 l-166 3 -3 29 c-2 16 2 32 10 37 7 5 84 9 171 9 l157 0 12
-25z m1086 16 c8 -5 12 -21 10 -37 l-3 -29 -117 -3 -118 -3 0 41 0 40 108 0
c59 0 113 -4 120 -9z m877 -31 l0 -40 -50 0 c-52 0 -75 12 -75 40 0 28 23 40
75 40 l51 0 -1 -40z m1325 26 c6 -8 10 -25 8 -38 -3 -23 -4 -23 -175 -26
l-173 -2 -6 25 c-12 50 4 55 176 55 125 0 160 -3 170 -14z m3665 -16 c0 -24
-2 -25 -77 -28 -43 -2 -78 -7 -78 -12 0 -6 -150 -10 -395 -10 -373 0 -395 1
-404 18 -7 14 -6 25 5 41 l15 21 467 -2 467 -3 0 -25z m-6195 -12 c-1 -26 -3
-30 -10 -16 -6 9 -7 23 -4 32 9 25 14 19 14 -16z m1438 -5 c-3 -26 -6 -28 -58
-31 l-55 -2 50 29 c63 37 67 37 63 4z m6602 -1233 l0 -1200 -105 0 -105 0 0
530 0 530 -355 0 -355 0 0 -535 0 -535 -210 0 -210 0 0 445 c0 475 -1 487 -50
530 -15 14 -36 20 -67 20 -39 0 -49 -5 -79 -37 l-34 -38 0 -455 0 -455 -25 0
-25 0 0 450 c0 499 1 493 -64 524 -44 21 -64 20 -104 -4 -61 -38 -62 -43 -62
-530 l0 -440 -65 0 -65 0 0 1200 0 1200 990 0 990 0 0 -1200z m-6694 992 c28
-95 48 -175 43 -177 -11 -8 -13 -3 -53 135 -20 69 -43 147 -51 173 -10 34 -11
47 -3 45 7 -3 35 -82 64 -176z m674 171 c0 -14 -99 -345 -105 -351 -15 -16
-15 13 1 60 10 29 19 59 20 67 2 8 9 35 17 60 8 25 22 74 32 109 10 34 22 62
27 62 4 0 8 -3 8 -7z m-150 -143 l0 -30 -220 0 -220 0 0 30 0 30 220 0 220 0
0 -30z m-50 -75 c0 -9 12 -28 28 -43 20 -21 27 -37 27 -67 0 -32 5 -42 23 -50
l22 -10 -2 -300 -3 -300 -265 0 -265 0 -3 302 c-2 290 -2 302 17 308 25 8 32
26 22 61 -6 24 -3 32 20 52 16 12 31 32 34 42 6 19 16 20 176 20 146 0 169 -2
169 -15z m-1720 -15 c20 -11 39 -60 38 -101 0 -19 -10 -31 -34 -44 -18 -10
-36 -26 -39 -36 -6 -17 -9 -16 -31 10 -14 17 -34 33 -44 36 -29 9 -28 81 2
118 23 29 71 37 108 17z m10040 -159 c0 -5 -12 -19 -26 -30 -25 -20 -40 -21
-208 -21 -148 0 -186 3 -204 16 -12 8 -22 22 -22 30 0 12 36 14 230 14 135 0
230 -4 230 -9z m-10146 -22 c17 -13 26 -30 26 -49 0 -44 -9 -59 -49 -79 -20
-10 -54 -28 -76 -41 -22 -12 -69 -39 -103 -58 -35 -19 -66 -41 -69 -48 -7 -19
-59 -18 -67 2 -11 29 -6 43 22 58 15 8 72 60 127 116 125 127 142 136 189 99z
m193 8 c12 -7 33 -26 45 -43 13 -17 26 -31 29 -30 12 2 138 -128 132 -137 -3
-6 -2 -7 4 -4 5 3 22 -5 39 -18 24 -20 27 -27 18 -42 -14 -23 -55 -29 -68 -11
-10 14 -100 68 -226 136 -69 38 -89 67 -71 109 11 28 41 51 66 52 6 0 20 -5
32 -12z m5731 -519 l-3 -473 -382 -3 -383 -2 0 197 1 198 377 277 c207 152
380 277 385 277 4 1 6 -212 5 -471z m4118 450 c3 -5 -4 -24 -16 -43 l-22 -35
-92 0 -92 0 -19 38 c-11 20 -21 41 -23 45 -5 11 258 6 264 -5z m-7286 -68 l0
-30 -220 0 -220 0 0 30 0 30 220 0 220 0 0 -30z m890 0 l0 -30 -220 0 -220 0
0 30 0 30 220 0 220 0 0 -30z m890 0 l0 -30 -220 0 -220 0 0 30 0 30 220 0
220 0 0 -30z m890 0 l0 -30 -220 0 -220 0 0 30 0 30 220 0 220 0 0 -30z
m-5333 -8 l31 -27 -68 0 c-60 0 -66 2 -46 12 13 7 26 19 30 28 8 21 16 19 53
-13z m179 -98 c47 -25 88 -52 91 -59 5 -13 -60 -241 -72 -253 -7 -7 -45 34
-45 48 0 4 9 10 20 13 16 4 20 14 20 51 l0 46 -227 -2 -228 -3 0 -40 c0 -30 5
-42 21 -50 20 -10 21 -13 7 -38 -27 -52 -35 -37 -91 160 l-20 72 95 53 94 53
124 -2 125 -2 86 -47z m2438 20 c4 -14 22 -34 42 -46 19 -11 39 -28 44 -38 6
-11 10 -152 10 -344 l0 -326 -270 0 -270 0 0 334 0 334 44 36 c24 19 46 46 49
58 6 23 6 23 176 20 l169 -3 6 -25z m896 -5 c7 -16 26 -37 41 -45 16 -8 33
-23 39 -33 6 -13 10 -141 10 -345 l0 -326 -270 0 -270 0 0 335 0 335 40 28
c22 15 45 41 51 57 l11 30 168 -3 168 -3 12 -30z m939 -48 l41 -33 0 -334 0
-334 -270 0 -270 0 0 326 c0 204 4 332 10 345 6 10 24 25 39 34 16 8 35 28 42
45 l14 30 165 2 165 3 11 -26 c6 -14 30 -40 53 -58z m838 61 c3 -12 25 -39 49
-58 24 -20 44 -44 44 -54 0 -27 -33 -50 -86 -59 -27 -5 -74 -18 -104 -30 -59
-25 -185 -31 -246 -12 -30 9 -32 7 -38 -21 -5 -26 -8 -29 -21 -18 -13 11 -15
-1 -13 -96 l2 -109 5 89 c5 74 8 87 19 74 18 -22 13 -379 -5 -386 -10 -3 -14
23 -15 105 l-2 108 -4 -90 c-2 -49 0 -105 3 -122 l6 -33 79 0 c79 0 80 0 80
-25 l0 -25 -100 0 -100 0 0 326 c0 204 4 332 10 345 6 10 24 26 41 35 17 8 37
30 44 47 l13 32 167 0 c164 0 166 0 172 -23z m-5648 -149 c6 -21 26 -92 46
-158 19 -66 35 -126 35 -134 0 -22 -18 -1 -24 29 -3 14 -19 69 -35 123 -17 53
-32 108 -34 122 -1 13 -6 27 -10 31 -10 10 -9 24 3 24 5 0 14 -17 19 -37z
m678 25 c-2 -7 -26 -84 -52 -170 -26 -87 -51 -155 -56 -153 -4 3 3 40 17 83
13 42 33 111 45 152 27 101 27 100 40 100 6 0 9 -6 6 -12z m-137 -97 c0 -20
-6 -31 -17 -35 -10 -2 -108 -4 -218 -3 l-200 2 -3 33 -3 32 220 0 221 0 0 -29z
m4995 -61 c-4 -6 -55 -10 -121 -10 l-114 0 0 -95 0 -95 50 0 c28 0 50 -5 50
-10 0 -7 -22 -10 -57 -8 l-58 3 -3 99 c-1 55 0 106 2 113 4 10 36 13 131 13
82 0 124 -4 120 -10z m-5034 -27 c5 -16 19 -35 30 -44 18 -14 20 -20 11 -53
-6 -21 -8 -44 -5 -52 3 -10 -2 -14 -19 -14 -13 0 -64 -14 -113 -31 -80 -28
-98 -31 -160 -25 -38 3 -82 9 -97 12 -24 5 -28 3 -28 -15 0 -13 -9 -25 -22
-30 l-22 -8 22 -19 c20 -17 22 -28 22 -116 l0 -98 -35 0 -35 0 0 160 c0 150 1
160 19 160 31 0 44 26 37 71 -5 34 -3 45 19 71 14 16 25 36 25 44 0 12 30 14
170 14 l170 0 11 -27z m4999 3 c0 -10 -80 -57 -89 -51 -7 4 -11 -7 -11 -30 0
-31 -3 -36 -17 -31 -17 6 -17 5 0 -8 9 -7 17 -21 17 -30 0 -12 -10 -16 -45
-16 l-45 0 0 85 0 85 95 0 c52 0 95 -2 95 -4z m-4909 -311 c1 -74 2 -145 2
-157 1 -14 -5 -24 -16 -26 -15 -3 -17 11 -17 157 0 136 2 161 15 161 13 0 15
-22 16 -135z m-82 31 c8 -10 11 -47 9 -113 l-3 -98 -190 0 -190 0 -3 104 c-2
77 1 107 10 113 7 4 90 8 184 8 137 0 174 -3 183 -14z m5681 -246 l0 -30
-2352 0 -2351 0 -43 -25 c-131 -77 -120 -273 21 -336 38 -18 131 -19 2383 -19
l2342 0 0 -30 0 -30 -2333 0 c-2632 0 -2402 -7 -2489 79 -55 55 -84 135 -73
204 10 57 53 134 92 164 72 55 -75 52 2456 53 l2347 0 0 -30z m6056 -5 c58
-36 108 -113 119 -180 10 -72 -17 -150 -73 -206 -86 -86 91 -79 -2059 -79
l-1903 0 0 30 0 30 1923 2 1923 3 42 28 c108 71 112 229 9 311 l-39 31 -1929
3 -1929 2 0 30 0 30 1933 -2 1934 -3 49 -30z m-11198 -607 l2 -618 -770 0
-770 0 0 613 c0 338 3 617 7 620 3 4 349 6 767 5 l761 -3 3 -617z m3500 523
c62 -44 82 -149 40 -211 -39 -57 -72 -75 -138 -75 -66 0 -99 18 -138 76 -20
28 -23 44 -20 90 6 81 53 136 127 149 46 8 92 -2 129 -29z m-2877 6 c46 -30
82 -101 76 -149 -15 -116 -135 -180 -238 -128 -88 46 -114 170 -50 244 51 60
149 75 212 33z m480 0 c103 -68 97 -215 -11 -276 -114 -64 -257 37 -237 166
18 110 156 172 248 110z m480 0 c48 -32 82 -101 74 -152 -14 -92 -95 -154
-185 -142 -113 15 -177 158 -112 247 53 71 154 93 223 47z m479 0 c104 -69 98
-215 -10 -276 -111 -62 -251 31 -237 157 5 50 29 87 77 120 46 31 124 31 170
-1z m480 0 c104 -69 96 -223 -14 -276 -53 -26 -96 -27 -146 -1 -58 30 -84 73
-85 141 0 64 18 98 75 137 46 31 124 31 170 -1z m480 0 c49 -32 74 -81 73
-139 -2 -128 -154 -203 -257 -125 -124 95 -58 287 99 287 37 0 61 -6 85 -23z
m951 -1 c94 -64 91 -199 -5 -270 -39 -29 -133 -29 -173 0 -54 40 -75 83 -71
145 7 93 68 149 163 149 37 0 60 -7 86 -24z m465 8 c50 -24 77 -68 82 -133 3
-46 0 -62 -20 -90 -39 -58 -72 -76 -138 -76 -66 0 -99 18 -137 75 -45 65 -23
169 46 216 43 29 115 32 167 8z m488 -4 c50 -30 79 -92 74 -152 -5 -52 -27
-89 -72 -122 -39 -29 -133 -29 -173 0 -98 73 -99 210 0 273 43 28 128 28 171
1z m2822 4 c21 -10 45 -34 61 -61 44 -75 24 -162 -51 -217 -39 -29 -133 -29
-173 0 -96 71 -98 207 -3 272 40 27 116 30 166 6z m505 -19 c41 -40 59 -76 59
-120 0 -53 -23 -99 -66 -131 -31 -24 -47 -29 -95 -29 -43 0 -65 5 -86 21 -98
73 -99 213 -1 275 26 16 46 19 95 17 53 -3 67 -8 94 -33z m459 13 c57 -39 75
-220 7 -220 54 0 44 12 47 225 44 l200 -3 3 -35z"/>
<path d="M11856 6139 l-26 -20 0 -1315 c0 -1301 0 -1314 20 -1334 18 -18 33
-20 148 -20 112 0 131 2 145 18 16 17 17 127 17 1338 l0 1319 -21 18 c-18 14
-42 17 -139 17 -104 0 -120 -2 -144 -21z"/>
<path d="M9845 5545 c-22 -21 -25 -33 -25 -94 0 -59 4 -74 24 -98 l24 -28 262
0 262 0 24 28 c20 24 24 39 24 98 0 61 -3 73 -25 94 l-24 25 -261 0 -261 0
-24 -25z"/>
<path d="M3020 5309 c-5 -42 -1 -144 4 -144 10 0 12 132 3 142 -4 3 -7 4 -7 2z"/>
<path d="M3520 5185 c0 -77 4 -125 10 -125 6 0 10 48 10 125 0 77 -4 125 -10
125 -6 0 -10 -48 -10 -125z"/>
<path d="M3447 5293 c-11 -10 -8 -141 3 -148 6 -4 10 23 10 74 0 81 -1 87 -13
74z"/>
<path d="M3340 5191 c0 -56 4 -103 10 -106 6 -4 10 32 10 99 0 64 -4 106 -10
106 -6 0 -10 -40 -10 -99z"/>
<path d="M3230 5190 c0 -53 4 -90 10 -90 6 0 10 37 10 90 0 53 -4 90 -10 90
-6 0 -10 -37 -10 -90z"/>
<path d="M2917 5243 c-11 -11 -8 -163 3 -163 6 0 10 35 10 85 0 85 -1 91 -13
78z"/>
<path d="M3640 5170 c0 -47 4 -80 10 -80 6 0 10 33 10 80 0 47 -4 80 -10 80
-6 0 -10 -33 -10 -80z"/>
<path d="M3019 5060 c-2 -41 -2 -79 2 -83 13 -16 15 8 9 83 l-6 75 -5 -75z"/>
<path d="M3447 5113 c-11 -10 -8 -151 3 -158 6 -4 10 25 10 79 0 86 -1 92 -13
79z"/>
<path d="M3340 5015 c0 -25 5 -45 10 -45 6 0 10 20 10 45 0 25 -4 45 -10 45
-5 0 -10 -20 -10 -45z"/>
<path d="M13353 5324 c-8 -22 10 -49 32 -49 10 0 22 7 28 16 15 24 1 49 -28
49 -15 0 -28 -7 -32 -16z"/>
<path d="M13070 5085 c0 -10 7 -15 18 -13 21 4 19 22 -2 26 -10 2 -16 -3 -16
-13z"/>
<path d="M13595 5336 c-20 -15 -17 -44 7 -59 12 -8 21 -7 32 2 36 30 -1 85
-39 57z"/>
<path d="M13900 5085 c0 -8 7 -15 15 -15 8 0 15 7 15 15 0 8 -7 15 -15 15 -8
0 -15 -7 -15 -15z"/>
<path d="M7752 4887 c-19 -20 -22 -35 -22 -103 0 -71 3 -83 23 -102 21 -20 34
-22 149 -22 70 0 134 3 143 6 60 23 60 215 0 238 -9 3 -74 6 -144 6 -120 0
-129 -1 -149 -23z"/>
<path d="M844 4616 c-21 -21 -34 -43 -33 -57 1 -22 1 -22 9 4 11 38 29 57 65
73 20 9 24 13 12 14 -11 0 -34 -15 -53 -34z"/>
<path d="M975 4636 c36 -16 54 -35 65 -73 8 -26 8 -26 9 -4 1 28 -59 91 -85
91 -13 -1 -9 -5 11 -14z"/>
<path d="M897 4562 c-22 -24 -21 -45 1 -65 24 -22 45 -21 65 1 22 24 21 45 -1
65 -24 22 -45 21 -65 -1z"/>
<path d="M811 4502 c-1 -29 59 -92 86 -92 12 1 8 5 -12 14 -36 16 -54 35 -65
73 -8 26 -8 26 -9 5z"/>
<path d="M1030 4477 c-9 -18 -30 -40 -50 -49 -22 -12 -28 -18 -16 -18 22 0 86
62 86 84 0 22 -3 20 -20 -17z"/>
<path d="M1655 4628 c-29 -22 -55 -74 -54 -105 0 -10 6 1 14 25 16 52 31 71
70 88 16 7 23 13 14 14 -9 0 -29 -10 -44 -22z"/>
<path d="M4088 4569 c-25 -14 -23 -65 2 -79 48 -26 91 30 55 70 -20 22 -32 24
-57 9z"/>
<path d="M4824 4616 c-24 -24 -34 -42 -33 -62 2 -27 2 -27 6 -5 7 37 31 67 66
85 22 10 26 16 14 16 -11 0 -34 -15 -53 -34z"/>
<path d="M4957 4635 c41 -17 68 -59 68 -105 0 -46 -27 -88 -68 -105 -18 -8
-24 -14 -15 -15 26 0 76 47 88 85 9 26 9 44 0 70 -12 38 -62 85 -88 85 -9 -1
-3 -7 15 -15z"/>
<path d="M4874 4555 c-20 -30 -13 -51 21 -67 21 -9 28 -8 45 7 25 23 26 47 2
68 -26 24 -49 21 -68 -8z"/>
<path d="M4791 4502 c-1 -29 58 -92 86 -92 12 0 8 6 -14 16 -33 17 -57 45 -66
79 -4 17 -5 17 -6 -3z"/>
<path d="M2225 4590 c8 -16 15 -43 15 -60 0 -17 -7 -44 -15 -60 -9 -17 -13
-30 -11 -30 12 0 36 61 36 90 0 29 -24 90 -36 90 -2 0 2 -13 11 -30z"/>
<path d="M3814 4585 c9 -16 16 -41 16 -55 0 -14 -7 -38 -16 -55 -15 -29 -14
-29 3 -12 12 12 18 33 18 67 0 34 -6 55 -18 67 -17 17 -18 17 -3 -12z"/>
<path d="M3604 4036 c-11 -29 0 -51 26 -51 21 0 25 5 25 30 0 24 -5 31 -23 33
-13 2 -24 -3 -28 -12z"/>
<path d="M3340 3804 c0 -9 5 -14 12 -12 18 6 21 28 4 28 -9 0 -16 -7 -16 -16z"/>
<path d="M3820 4036 c-27 -33 18 -72 48 -42 13 13 14 20 6 34 -15 23 -38 26
-54 8z"/>
<path d="M4110 3805 c0 -8 7 -15 15 -15 8 0 15 7 15 15 0 8 -7 15 -15 15 -8 0
-15 -7 -15 -15z"/>
<path d="M8445 3477 c-97 -38 -150 -135 -124 -231 24 -89 97 -146 189 -146 93
0 165 57 190 148 39 147 -114 284 -255 229z m149 -22 c55 -26 89 -76 94 -140
6 -71 -2 -97 -40 -141 -71 -80 -186 -87 -261 -16 -42 39 -57 75 -57 132 0 145
133 227 264 165z"/>
<path d="M8440 3438 c-25 -13 -55 -39 -68 -58 -20 -30 -23 -45 -20 -97 3 -53
9 -68 33 -94 60 -63 136 -77 204 -38 55 31 75 65 79 134 3 50 0 66 -20 94 -49
73 -135 97 -208 59z m150 -15 c43 -25 64 -63 68 -123 3 -45 0 -61 -20 -90 -13
-19 -39 -43 -58 -52 -70 -36 -154 -13 -198 52 -20 29 -23 45 -20 93 4 49 9 62
38 92 54 55 127 66 190 28z"/>
<path d="M8515 3420 c3 -5 8 -10 11 -10 2 0 4 5 4 10 0 6 -5 10 -11 10 -5 0
-7 -4 -4 -10z"/>
<path d="M8436 3401 c-16 -11 -35 -30 -42 -43 -19 -33 -18 -114 1 -121 12 -5
12 -1 4 20 -7 19 -6 41 2 75 7 26 15 46 17 43 3 -2 17 4 31 14 14 10 33 21 41
24 11 4 9 6 -5 6 -11 1 -33 -8 -49 -18z"/>
<path d="M8545 3410 c3 -5 8 -10 11 -10 2 0 4 5 4 10 0 6 -5 10 -11 10 -5 0
-7 -4 -4 -10z"/>
<path d="M8570 3402 c0 -6 10 -19 23 -29 13 -10 24 -21 24 -26 1 -4 4 -21 8
-37 4 -19 0 -42 -11 -65 -9 -20 -14 -38 -11 -41 9 -10 33 51 36 93 2 37 -2 47
-33 79 -20 21 -36 32 -36 26z"/>
<path d="M8881 3468 c-25 -13 -58 -40 -75 -61 -25 -31 -31 -49 -34 -102 -4
-56 -1 -70 22 -109 16 -28 44 -56 72 -72 39 -23 53 -26 109 -22 53 3 71 9 102
34 79 63 103 162 60 245 -50 95 -166 134 -256 87z m134 1 c72 -20 135 -106
135 -185 0 -37 -49 -118 -86 -143 -49 -34 -135 -40 -184 -13 -92 51 -126 161
-78 252 18 34 38 52 77 72 59 31 77 33 136 17z"/>
<path d="M8919 3450 c-78 -23 -124 -92 -116 -173 7 -81 63 -137 144 -144 153
-15 240 171 129 275 -48 45 -101 59 -157 42z m111 -22 c90 -46 114 -159 49
-233 -38 -42 -79 -59 -133 -53 -134 15 -183 173 -83 266 48 45 104 51 167 20z"/>
<path d="M9287 3403 c-4 -3 -7 -143 -7 -310 l0 -303 380 0 380 0 0 310 0 310
-373 0 c-206 0 -377 -3 -380 -7z m693 -213 l0 -170 -317 2 -318 3 -3 155 c-1
85 0 160 2 167 4 10 72 13 321 13 l315 0 0 -170z m-495 -225 l0 -30 -65 0 -65
0 -3 33 -3 33 68 -3 68 -3 0 -30z m165 0 l0 -36 -67 3 -68 3 -3 33 -3 32 70 0
71 0 0 -35z m325 0 l0 -30 -65 0 -65 0 -3 33 -3 33 68 -3 68 -3 0 -30z m-325
-90 l0 -36 -67 3 -68 3 -3 33 -3 32 70 0 71 0 0 -35z m325 0 l0 -30 -67 -3
-68 -3 0 36 0 36 68 -3 67 -3 0 -30z m-495 0 c0 -24 -2 -25 -65 -25 -63 0 -65
1 -65 25 0 24 2 25 65 25 63 0 65 -1 65 -25z m330 15 c0 -5 -2 -10 -4 -10 -3
0 -8 5 -11 10 -3 6 -1 10 4 10 6 0 11 -4 11 -10z"/>
<path d="M8485 3035 c-5 -2 -22 -6 -37 -9 -35 -8 -94 -59 -115 -100 -20 -37
-21 -131 -3 -166 62 -121 209 -153 306 -68 49 43 67 83 67 148 0 77 -41 144
-108 178 -23 11 -95 23 -110 17z m119 -39 c158 -93 90 -336 -94 -336 -185 0
-251 246 -91 339 52 30 132 28 185 -3z"/>

<path d="M5680 2943 c-14 -3 -51 -16 -83 -29 -45 -19 -75 -24 -140 -25 -45 0
-98 5 -117 11 -19 5 -36 10 -37 10 -2 0 -3 -13 -3 -30 0 -46 -18 -36 -23 13
-2 23 -4 -78 -5 -225 l-2 -268 124 0 c89 0 125 3 128 12 6 16 89 13 99 -4 6
-9 9 -9 9 -1 0 7 18 13 43 15 l42 3 3 85 c4 125 16 130 23 10 3 -61 5 7 5 160
-1 258 -2 265 -21 266 -11 1 -31 -1 -45 -3z m15 -218 l0 -110 -185 0 -185 0
-3 99 c-1 55 0 106 2 113 5 11 43 13 188 11 l183 -3 0 -110z m-395 -100 c0
-123 -4 -195 -10 -195 -6 0 -10 72 -10 195 0 123 4 195 10 195 6 0 10 -72 10
-195z"/>
<path d="M5341 2798 c1 -17 2 -19 6 -5 4 15 20 17 164 17 l159 0 0 -85 0 -85
-159 0 -160 0 -4 28 c-4 25 -4 25 -6 -5 l-1 -33 170 0 170 0 0 95 0 95 -170 0
c-170 0 -170 0 -169 -22z"/>
<path d="M5343 2735 c0 -22 2 -30 4 -17 2 12 2 30 0 40 -3 9 -5 -1 -4 -23z"/>
<path d="M5442 2726 c-2 -32 -5 -37 -19 -31 -15 5 -16 4 -5 -6 19 -20 34 3 29
42 l-4 34 -1 -39z"/>
<path d="M5476 2736 c-3 -13 -9 -32 -13 -43 -6 -16 -5 -16 10 -4 9 7 24 10 33
7 13 -5 15 -2 10 16 -3 13 -6 29 -6 36 0 22 -28 13 -34 -12z m24 -7 c0 -11 -4
-18 -10 -14 -5 3 -7 12 -3 20 7 21 13 19 13 -6z"/>
<path d="M5542 2718 c1 -42 1 -42 6 -8 4 30 6 32 11 12 3 -13 11 -23 16 -23 6
0 13 10 16 23 5 20 7 18 11 -12 5 -34 5 -34 6 8 2 47 -14 57 -25 15 l-6 -28
-10 28 c-13 41 -27 33 -25 -15z"/>
<path d="M6565 2940 c-22 -5 -62 -18 -88 -30 -54 -24 -182 -29 -247 -10 -19 5
-36 10 -37 10 -2 0 -3 -13 -3 -30 0 -46 -18 -36 -23 13 -2 23 -3 -25 -3 -108
0 -85 2 -110 3 -57 3 68 7 92 16 89 8 -2 11 -26 10 -73 -1 -38 -2 -124 -2
-191 -1 -150 -19 -165 -24 -20 l-3 102 0 -115 1 -115 128 -3 c82 -2 127 1 127
8 0 5 20 10 45 10 29 0 45 -4 45 -12 0 -10 2 -10 8 -1 6 10 40 20 80 22 9 1
12 26 12 91 0 81 9 112 23 78 3 -7 6 69 6 170 1 203 8 188 -74 172z m22 -112
c14 -17 11 -194 -3 -208 -7 -7 -74 -10 -190 -8 l-179 3 -3 99 c-1 55 0 106 2
113 7 18 359 19 373 1z"/>
<path d="M6230 2725 l0 -95 170 0 170 0 0 95 0 95 -170 0 -170 0 0 -95z m330
0 l0 -85 -160 0 -160 0 0 85 0 85 160 0 160 0 0 -85z"/>
<path d="M6332 2726 c-2 -32 -5 -37 -19 -31 -15 5 -16 4 -5 -6 19 -20 34 3 29
42 l-4 34 -1 -39z"/>
<path d="M6366 2738 c-10 -37 -7 -43 19 -43 14 0 25 5 25 10 0 26 -14 55 -25
55 -7 0 -15 -10 -19 -22z m27 -3 c4 -8 2 -17 -3 -20 -6 -4 -10 3 -10 14 0 25
6 27 13 6z"/>
<path d="M6431 2718 l2 -43 6 35 7 35 8 -33 c8 -35 26 -34 26 1 0 17 -2 19 -9
8 -7 -11 -10 -9 -13 9 -6 45 -28 35 -27 -12z"/>
<path d="M6485 2743 c4 -10 7 -26 7 -35 0 -10 3 -18 9 -18 5 0 9 16 9 35 0 25
-4 35 -16 35 -12 0 -14 -5 -9 -17z"/>
<path d="M6628 2430 c-3 -16 -1 -30 4 -30 4 0 8 14 8 30 0 17 -2 30 -4 30 -2
0 -6 -13 -8 -30z"/>
<path d="M7052 2910 c0 -14 2 -19 5 -12 2 6 2 18 0 25 -3 6 -5 1 -5 -13z"/>
<path d="M1972 2423 l-2 -93 175 0 175 0 0 90 c0 50 -3 90 -7 90 -5 0 -7 -38
-5 -85 l3 -85 -165 0 -165 0 -4 88 -3 87 -2 -92z"/>
<path d="M2070 2426 c0 -19 -6 -37 -12 -39 -8 -3 -6 -6 5 -6 13 -1 17 7 17 39
0 22 -2 40 -5 40 -3 0 -5 -15 -5 -34z"/>
<path d="M2117 2453 c-3 -5 -8 -24 -11 -43 -5 -25 -4 -31 3 -20 9 13 14 13 32
2 19 -12 21 -12 15 3 -3 9 -9 28 -12 41 -6 24 -19 31 -27 17z m23 -34 c0 -5
-4 -9 -10 -9 -5 0 -10 7 -10 16 0 8 5 12 10 9 6 -3 10 -10 10 -16z"/>
<path d="M2172 2418 c1 -40 1 -41 5 -9 3 26 7 31 14 20 7 -11 9 -9 9 9 0 13
-6 22 -15 22 -11 0 -15 -11 -13 -42z"/>
<path d="M2220 2438 c0 -18 2 -20 9 -9 7 11 11 6 14 -20 4 -32 4 -31 5 9 2 31
-2 42 -13 42 -9 0 -15 -9 -15 -22z"/>
<path d="M2200 2395 c0 -8 5 -15 10 -15 6 0 10 7 10 15 0 8 -4 15 -10 15 -5 0
-10 -7 -10 -15z"/>
<path d="M2407 1422 c-15 -3 -17 -16 -17 -98 l0 -94 190 0 c105 0 193 -1 198
-2 4 -2 8 43 10 99 l3 101 -101 -4 c-55 -2 -105 -6 -110 -9 -6 -3 -10 -3 -10
2 0 8 -128 12 -163 5z m70 -154 c-3 -8 -6 -5 -6 6 -1 11 2 17 5 13 3 -3 4 -12
1 -19z"/>
<path d="M6190 2188 c-91 -62 -90 -182 1 -250 95 -71 240 17 226 139 -3 25
-13 57 -24 72 -45 61 -143 79 -203 39z m175 -28 c90 -87 30 -235 -95 -235
-119 0 -180 134 -103 226 34 40 58 50 116 45 38 -2 55 -10 82 -36z"/>
<path d="M6230 2100 c-24 -24 -25 -38 -4 -68 29 -42 104 -17 104 35 0 20 -38
53 -60 53 -11 0 -29 -9 -40 -20z"/>
<path d="M3334 2191 c-52 -32 -74 -68 -74 -123 0 -94 56 -152 145 -152 90 0
145 58 145 153 0 39 -6 56 -26 81 -52 61 -130 78 -190 41z m137 -6 c43 -23 69
-71 69 -127 0 -38 -6 -54 -30 -82 -61 -70 -148 -70 -209 -1 -54 61 -38 163 32
205 39 24 97 26 138 5z"/>
<path d="M3367 2102 c-20 -22 -22 -63 -5 -80 7 -7 26 -12 43 -12 38 0 55 16
55 50 0 52 -60 78 -93 42z"/>
<path d="M3830 2202 c-102 -45 -125 -169 -46 -248 43 -43 99 -52 160 -25 109
48 117 198 14 261 -33 20 -97 26 -128 12z m121 -17 c43 -23 69 -71 69 -127 0
-39 -6 -54 -31 -83 -44 -49 -95 -63 -153 -41 -140 53 -102 266 47 266 21 0 51
-7 68 -15z"/>
<path d="M3847 2102 c-21 -23 -22 -66 -2 -82 22 -18 66 -15 82 6 42 57 -33
128 -80 76z"/>
<path d="M4293 2194 c-88 -44 -103 -166 -29 -240 63 -63 178 -48 226 28 30 47
24 137 -11 174 -51 55 -122 69 -186 38z m138 -9 c43 -23 69 -71 69 -127 0 -39
-6 -54 -31 -83 -17 -19 -48 -40 -70 -46 -82 -25 -171 42 -172 129 -2 106 110
175 204 127z"/>
<path d="M4327 2102 c-21 -23 -22 -66 -2 -82 22 -18 66 -15 82 6 42 57 -33
128 -80 76z"/>
<path d="M4777 2195 c-92 -48 -108 -166 -33 -241 90 -90 246 -22 246 106 0
111 -117 185 -213 135z m140 -15 c100 -61 76 -217 -39 -252 -53 -16 -119 10
-149 59 -27 44 -29 111 -5 148 41 62 131 83 193 45z"/>
<path d="M4807 2102 c-21 -23 -22 -66 -2 -82 22 -18 66 -15 82 6 42 57 -33
128 -80 76z"/>
<path d="M5250 2191 c-51 -27 -84 -96 -75 -153 10 -58 64 -113 122 -122 91
-16 173 52 173 144 0 115 -119 186 -220 131z m145 -11 c77 -47 88 -156 22
-217 -48 -43 -92 -50 -151 -24 -78 34 -105 127 -59 199 37 59 128 79 188 42z"/>
<path d="M5286 2104 c-20 -20 -21 -68 -1 -84 22 -18 66 -15 82 6 41 56 -32
127 -81 78z"/>

<path d="M6891 5414 c-49 -35 -65 -123 -30 -168 l20 -26 -23 -2 c-13 -1 6 -4
42 -7 l65 -7 -95 -45 -95 -46 -6 36 c-7 51 -24 77 -67 106 -53 36 -96 33 -138
-9 -29 -29 -34 -41 -34 -83 0 -27 7 -58 15 -70 14 -20 14 -22 -7 -26 -13 -2 6
-5 42 -6 42 -1 61 -4 54 -11 -8 -8 -170 -90 -178 -90 -1 0 -1 12 1 28 8 52
-77 142 -134 142 -57 0 -113 -62 -113 -125 0 -28 16 -65 34 -77 6 -5 1 -8 -11
-8 -13 0 -23 -4 -23 -10 0 -5 26 -10 58 -11 l57 0 -95 -48 -95 -49 -5 44 c-8
57 -68 122 -120 130 -43 6 -96 -24 -110 -62 -15 -39 -12 -110 5 -124 13 -11
13 -14 -2 -26 -16 -12 -9 -13 47 -14 l65 -1 -30 -16 c-16 -9 -63 -31 -104 -50
l-73 -34 6 26 c14 54 -55 138 -123 151 -86 18 -158 -117 -100 -190 l20 -26
-23 -2 c-13 -1 6 -4 42 -7 l65 -6 -99 -48 c-54 -26 -101 -47 -102 -47 -2 0 -4
16 -4 35 0 58 -82 135 -144 135 -78 0 -138 -157 -75 -196 9 -5 7 -10 -7 -15
-12 -5 8 -8 51 -9 l70 -1 -110 -57 c-101 -53 -112 -61 -142 -112 -27 -44 -33
-65 -33 -110 1 -106 70 -196 169 -220 49 -12 51 -13 51 -46 0 -26 -4 -34 -18
-34 -43 0 -71 -82 -38 -109 9 -8 68 -11 187 -9 l174 3 13 27 c17 37 -2 77 -40
85 -27 5 -28 7 -28 69 l0 64 45 0 c25 0 45 5 45 10 0 6 -20 10 -45 10 -25 0
-45 4 -45 10 0 5 57 37 127 70 119 57 131 60 207 62 l81 2 -70 3 -69 4 143 70
c141 68 145 69 230 71 l86 2 -70 5 -69 6 129 64 c126 63 133 65 225 70 l95 6
-65 5 -65 6 137 67 c131 65 140 68 200 65 35 -2 62 -6 61 -10 -2 -5 -3 -170
-3 -368 0 -313 -2 -360 -15 -360 -23 0 -55 -37 -55 -63 0 -51 22 -57 202 -57
147 0 167 2 181 18 10 10 17 28 17 40 0 25 -33 62 -55 62 -13 0 -15 60 -17
445 l-3 445 52 0 c28 0 55 5 58 10 4 6 -15 10 -49 10 -31 0 -56 4 -56 9 0 4
38 25 84 46 91 40 124 66 161 125 16 26 47 51 90 76 36 20 64 39 61 42 -3 2
-33 -11 -66 -31 l-60 -36 0 50 c0 62 -21 114 -65 159 -26 27 -36 49 -46 100
-12 69 -35 124 -24 60 20 -120 20 -114 -6 -107 -58 16 -97 17 -139 4 l-45 -14
0 40 c0 33 -7 45 -47 83 -39 36 -54 44 -85 44 -21 0 -49 -7 -62 -16z m388
-163 c69 -36 121 -115 121 -186 0 -42 -22 -97 -53 -132 -31 -35 -149 -97 -567
-295 -52 -25 -279 -134 -505 -243 -878 -423 -888 -427 -938 -433 -157 -16
-276 157 -203 297 32 60 88 91 661 366 319 153 663 318 765 367 247 120 551
264 570 271 35 13 112 6 149 -12z m-169 -936 l0 -445 -100 0 -100 0 0 369 c0
286 3 371 13 375 10 5 10 7 0 12 -7 3 -13 17 -13 30 0 22 12 31 83 64 45 22
90 40 100 40 16 0 17 -28 17 -445z m-230 321 c-11 -11 -70 -17 -70 -7 0 4 15
14 33 23 23 11 34 12 39 4 4 -6 3 -15 -2 -20z m-1330 -701 l0 -65 -105 0 -105
0 0 35 c0 29 4 36 28 41 15 4 50 18 77 31 28 12 62 23 78 23 27 0 27 -1 27
-65z m58 -94 c8 -5 12 -21 10 -37 l-3 -29 -170 0 c-170 0 -170 0 -173 23 -7
47 9 52 172 52 83 0 157 -4 164 -9z m1576 -13 c8 -13 8 -23 0 -35 -10 -16 -31
-18 -169 -21 -163 -3 -185 2 -185 39 0 33 30 39 189 36 134 -2 155 -4 165 -19z"/>
<path d="M6710 5011 c-239 -114 -667 -320 -950 -455 -283 -136 -525 -254 -537
-262 -31 -20 -63 -86 -63 -130 0 -43 31 -101 67 -128 15 -11 49 -21 78 -24 62
-5 -63 -61 1080 487 956 459 945 453 960 540 9 53 -25 126 -74 158 -71 48 -83
44 -561 -186z m500 154 c49 -25 70 -62 70 -120 0 -38 -6 -60 -21 -79 -81 -103
-242 -51 -242 79 0 100 105 165 193 120z m-366 -169 c88 -37 107 -153 36 -221
-23 -22 -41 -29 -83 -33 -49 -4 -57 -2 -90 28 -23 20 -41 47 -47 72 -10 35 -8
46 12 86 36 72 100 98 172 68z m-330 -190 c13 -8 32 -36 42 -61 17 -45 17 -48
-2 -93 -15 -38 -28 -52 -64 -70 -48 -24 -79 -23 -132 4 -73 38 -79 175 -10
220 53 35 114 35 166 0z m-354 -181 c108 -103 1 -276 -138 -223 -80 30 -110
143 -55 208 34 41 58 51 116 46 36 -2 55 -10 77 -31z m-379 -158 c89 -59 86
-172 -4 -227 -87 -54 -197 11 -197 115 0 106 115 170 201 112z m-355 -173 c53
-36 73 -101 48 -162 -21 -54 -66 -82 -129 -82 -42 0 -52 5 -86 39 -34 34 -39
44 -39 86 0 60 24 100 75 125 44 23 90 20 131 -6z"/>
<path d="M7088 5154 c-15 -8 -33 -24 -39 -37 -10 -18 -6 -17 20 7 19 19 47 32
73 37 42 6 42 7 8 7 -19 1 -47 -5 -62 -14z"/>
<path d="M7191 5158 c2 -2 19 -16 38 -33 28 -25 32 -26 22 -8 -11 21 -40 43
-57 43 -4 0 -5 -1 -3 -2z"/>
<path d="M7031 5074 c0 -11 3 -14 6 -6 3 7 2 16 -1 19 -3 4 -6 -2 -5 -13z"/>
<path d="M7109 5069 c-26 -50 35 -93 75 -53 19 18 20 28 6 55 -15 27 -66 26
-81 -2z"/>
<path d="M7261 5074 c0 -11 3 -14 6 -6 3 7 2 16 -1 19 -3 4 -6 -2 -5 -13z"/>
<path d="M7030 5022 c-1 -30 48 -91 74 -92 5 0 -4 10 -19 22 -15 12 -33 35
-41 52 -7 17 -13 25 -14 18z"/>
<path d="M7260 5016 c0 -10 -15 -33 -34 -52 -37 -37 -38 -42 -2 -19 25 17 53
71 42 82 -3 3 -6 -2 -6 -11z"/>
<path d="M7133 4923 c9 -2 25 -2 35 0 9 3 1 5 -18 5 -19 0 -27 -2 -17 -5z"/>
<path d="M6778 4993 c6 -2 18 -2 25 0 6 3 1 5 -13 5 -14 0 -19 -2 -12 -5z"/>
<path d="M6704 4956 c-19 -19 -34 -42 -34 -52 1 -12 6 -7 15 13 8 18 29 42 47
53 18 11 27 20 20 20 -8 0 -29 -15 -48 -34z"/>
<path d="M6872 4955 c9 -11 21 -31 27 -45 7 -17 10 -20 10 -8 1 10 -11 30 -26
46 -16 15 -20 19 -11 7z"/>
<path d="M6755 4900 c-27 -30 -7 -70 34 -70 45 0 66 44 35 74 -21 22 -47 20
-69 -4z"/>

</g>
</svg>
