<?xml version="1.0" standalone="no"?>
<!DOCTYPE svg PUBLIC "-//W3C//DTD SVG 20010904//EN"
 "http://www.w3.org/TR/2001/REC-SVG-20010904/DTD/svg10.dtd">
<svg version="1.0" xmlns="http://www.w3.org/2000/svg"
 width="1815.000000pt" height="591.000000pt" viewBox="0 0 1815.000000 591.000000"
 preserveAspectRatio="xMidYMid meet">

<g transform="translate(0.000000,591.000000) scale(0.100000,-0.100000)"
fill="#000000" stroke="none">
<path d="M4370 3335 c0 -1236 -1 -1201 56 -1354 60 -158 200 -325 367 -435 89
-59 130 -76 250 -101 102 -22 1382 -22 1489 0 223 45 447 242 558 491 17 38
35 76 40 85 5 9 18 68 30 130 20 107 21 137 17 474 -5 408 -9 435 -82 591 -84
177 -243 341 -410 424 -146 73 -143 73 -850 78 -435 2 -659 0 -722 -8 -79 -10
-193 -39 -256 -65 -17 -7 -18 7 -17 260 1 147 -2 271 -7 274 -9 7 -60 41 -238
156 -66 43 -139 91 -163 106 -24 16 -47 29 -53 29 -5 0 -9 -425 -9 -1135z
m2040 -105 c126 -24 209 -85 259 -193 l32 -67 -3 -403 -3 -402 -31 -65 c-56
-116 -137 -174 -267 -192 -39 -5 -328 -8 -675 -6 l-607 3 -66 32 c-80 39 -119
77 -167 163 l-37 65 0 405 c0 375 1 409 19 455 23 60 65 107 132 151 99 63 87
63 755 63 369 1 627 -3 659 -9z"/>
<path d="M12702 4233 l3 -238 210 -3 c211 -3 259 1 253 18 -5 15 -450 460
-460 460 -5 0 -7 -107 -6 -237z"/>
<path d="M1320 3706 c0 -8 8 -21 18 -28 9 -7 44 -43 77 -78 61 -66 345 -367
510 -540 90 -94 200 -208 375 -389 l91 -95 -78 -80 c-43 -44 -87 -90 -98 -101
-11 -12 -61 -64 -110 -116 -50 -52 -153 -161 -230 -243 -77 -82 -160 -170
-183 -195 -45 -47 -263 -277 -341 -360 l-44 -46 324 -3 324 -2 34 37 c19 21
84 90 145 153 126 131 434 454 522 548 l59 62 160 -167 c88 -93 210 -220 272
-283 61 -63 163 -168 225 -233 l113 -117 319 2 319 3 -74 80 c-41 43 -94 100
-119 126 -25 25 -102 106 -171 180 -70 74 -155 164 -190 200 -35 37 -131 138
-214 225 -82 88 -187 197 -232 244 l-82 85 142 146 c78 80 178 183 221 230 44
46 129 136 190 200 309 322 511 540 514 555 3 12 -44 14 -306 14 l-310 0 -285
-292 c-157 -161 -330 -339 -385 -395 -54 -57 -102 -103 -106 -103 -4 0 -41 36
-84 79 -131 135 -555 572 -624 644 l-66 67 -311 0 c-264 0 -311 -2 -311 -14z"/>
<path d="M8114 3709 c-183 -31 -414 -188 -521 -355 -7 -10 -24 -37 -38 -58
-36 -54 -83 -175 -103 -265 -14 -64 -17 -136 -17 -441 0 -415 5 -460 66 -617
86 -220 282 -424 489 -508 l75 -30 765 0 c726 0 768 1 820 19 170 59 349 194
439 331 14 22 29 42 32 45 13 11 72 136 90 193 34 106 39 176 39 542 0 371 -6
446 -41 550 -20 55 -98 212 -120 239 -5 6 -23 29 -40 51 -114 150 -248 246
-404 292 -54 16 -126 18 -770 19 -390 1 -733 -2 -761 -7z m1447 -497 c75 -32
147 -88 175 -139 41 -74 46 -133 42 -533 l-3 -375 -33 -61 c-47 -86 -82 -125
-143 -159 l-54 -30 -685 -3 -684 -3 -46 23 c-91 46 -155 103 -193 173 -22 39
-22 47 -22 455 l0 415 31 65 c41 88 97 145 170 175 l59 25 665 -3 665 -2 56
-23z"/>
<path d="M10210 3715 c0 -3 26 -49 58 -103 90 -148 196 -330 207 -352 9 -19
20 -20 312 -20 262 0 303 -2 304 -15 1 -8 3 -19 4 -25 1 -5 3 -406 4 -890 l1
-880 235 0 235 0 0 905 0 905 299 0 300 0 34 58 c19 31 80 134 135 228 56 94
102 176 102 182 0 9 -267 12 -1115 12 -613 0 -1115 -2 -1115 -5z"/>
<path d="M12707 3714 c-4 -4 -7 -520 -7 -1146 l0 -1138 233 2 232 3 0 1140 0
1140 -226 3 c-124 1 -228 -1 -232 -4z"/>
<path d="M14230 3709 c-138 -23 -283 -105 -409 -230 -158 -156 -240 -329 -261
-544 -15 -164 -12 -655 5 -762 34 -211 114 -361 280 -528 117 -117 236 -185
363 -206 31 -5 299 -9 595 -9 l537 0 -2 238 -3 237 -525 5 c-289 3 -534 9
-545 14 -57 26 -154 100 -181 138 -56 79 -55 72 -52 509 l3 404 38 77 c43 89
94 138 175 168 53 20 71 20 736 18 l681 -3 45 -24 c72 -38 146 -128 175 -216
6 -17 10 -14 25 20 41 93 116 139 220 133 53 -3 73 -9 107 -33 23 -17 50 -43
59 -60 50 -83 12 109 -43 220 -45 91 -98 159 -193 248 -90 84 -160 128 -262
165 l-73 27 -720 2 c-400 0 -744 -3 -775 -8z"/>
<path d="M16039 3064 c-47 -30 -74 -82 -73 -141 1 -115 118 -187 220 -135 49
25 68 47 83 94 21 63 -18 151 -79 183 -38 20 -118 19 -151 -1z"/>
<path d="M15710 2958 c-47 -38 -105 -87 -129 -107 -24 -20 -49 -41 -55 -46 -6
-6 -31 -26 -56 -45 -25 -19 -56 -45 -70 -57 -14 -13 -29 -23 -33 -23 -9 0 1
-41 12 -50 6 -5 12 -16 83 -150 22 -41 44 -82 49 -90 5 -8 40 -73 77 -145 144
-274 143 -272 257 -253 l55 10 0 118 c0 135 4 130 -103 130 l-57 0 2 248 3
247 45 11 c35 9 44 15 43 30 -2 10 -6 70 -9 132 -5 71 -11 112 -18 112 -6 -1
-49 -33 -96 -72z"/>
<path d="M16369 2908 c-8 -68 -14 -127 -14 -133 0 -5 23 -15 50 -20 l50 -11 3
-247 2 -247 -67 -1 c-38 0 -75 -3 -83 -7 -12 -6 -15 -31 -15 -135 0 -144 -9
-133 95 -116 66 10 91 25 113 66 7 12 40 71 73 130 34 60 81 146 105 193 24
47 50 91 57 98 6 7 12 17 12 22 0 4 18 40 40 79 22 39 40 77 40 84 0 14 -403
351 -433 363 -11 4 -17 -21 -28 -118z"/>
</g>
</svg>
