<?xml version="1.0" standalone="no"?>
<!DOCTYPE svg PUBLIC "-//W3C//DTD SVG 20010904//EN"
 "http://www.w3.org/TR/2001/REC-SVG-20010904/DTD/svg10.dtd">
<svg version="1.0" xmlns="http://www.w3.org/2000/svg"
 width="1815.000000pt" height="591.000000pt" viewBox="0 0 1815.000000 591.000000"
 preserveAspectRatio="xMidYMid meet">
<metadata>
Created by potrace 1.16, written by Peter Selinger 2001-2019
</metadata>
<g transform="translate(0.000000,591.000000) scale(0.100000,-0.100000)"
fill="#000000" stroke="none">
<path d="M0 2955 l0 -2955 9075 0 9075 0 0 2955 0 2955 -9075 0 -9075 0 0
-2955z m4497 1439 c65 -42 169 -110 231 -152 l112 -75 0 -268 c0 -148 2 -269
5 -269 4 0 20 7 38 17 18 9 64 25 102 37 67 19 101 20 754 23 566 3 697 1 760
-11 167 -31 263 -87 416 -241 109 -109 166 -196 210 -323 41 -118 47 -197 42
-602 -3 -370 -4 -376 -30 -463 -73 -245 -277 -492 -474 -575 -135 -57 -115
-56 -828 -60 -690 -4 -738 -2 -880 40 -103 30 -258 136 -353 240 -39 43 -102
125 -102 132 0 3 -13 28 -29 55 -38 64 -76 185 -90 285 -11 75 -17 2286 -7
2286 3 0 58 -34 123 -76z m8439 -154 c121 -121 221 -225 222 -230 3 -7 -74 -9
-225 -8 l-228 3 -3 228 c-1 132 1 227 7 227 5 0 107 -99 227 -220z m-10936
-588 c30 -31 191 -197 358 -369 166 -171 312 -323 323 -337 11 -14 25 -26 30
-26 10 0 16 6 284 281 94 97 243 251 333 343 l163 167 307 0 c169 -1 309 -1
311 -1 5 0 -61 -71 -183 -200 -50 -53 -129 -136 -175 -185 -86 -92 -384 -404
-548 -575 -131 -137 -164 -173 -161 -181 2 -4 41 -47 87 -96 130 -135 456
-477 547 -573 76 -81 170 -180 350 -368 43 -46 81 -88 82 -93 2 -5 -124 -9
-305 -9 l-309 0 -95 98 c-226 233 -542 563 -605 630 -37 39 -73 72 -80 72 -6
0 -29 -19 -49 -42 -21 -24 -84 -90 -139 -148 -99 -104 -418 -438 -526 -552
l-55 -58 -312 2 -313 3 25 29 c24 28 103 112 259 276 45 47 151 159 236 250
85 90 196 207 245 260 50 52 124 131 165 175 41 43 90 94 108 112 17 18 32 36
32 41 0 8 -60 72 -275 294 -104 107 -317 331 -546 573 -37 39 -107 113 -157
165 -50 52 -89 97 -87 100 2 3 142 4 312 2 l308 -2 55 -58z m10433 50 c-1 -4
-60 -106 -131 -227 l-130 -220 -301 -5 -301 -5 0 -891 c0 -491 -3 -899 -6
-908 -5 -14 -34 -16 -235 -16 l-229 0 0 910 0 910 -307 0 -308 0 -32 58 c-17
31 -76 133 -132 226 -55 93 -98 172 -96 175 5 9 2210 2 2208 -7z m-2804 -8
c262 -65 512 -336 593 -644 22 -82 23 -101 23 -490 -1 -388 -1 -408 -23 -485
-53 -189 -173 -364 -332 -484 -95 -71 -148 -100 -246 -133 l-69 -23 -730 0
c-809 0 -783 -2 -915 66 -100 52 -175 112 -255 205 -113 133 -164 226 -208
381 -21 75 -22 94 -22 493 0 433 1 440 46 568 90 251 326 477 569 543 59 16
128 18 784 18 633 1 728 -1 785 -15z m3531 -1124 l0 -1140 -227 2 -228 3 -2
1129 c-2 620 0 1132 3 1137 3 5 106 9 230 9 l224 0 0 -1140z m2593 1125 c118
-31 236 -105 345 -217 97 -100 139 -164 180 -273 11 -29 42 -147 42 -159 0 -3
-18 14 -41 38 -69 75 -164 95 -254 52 -56 -26 -84 -53 -112 -109 l-19 -38 -28
58 c-51 107 -127 172 -226 193 -39 8 -240 10 -705 8 l-650 -3 -60 -28 c-93
-44 -130 -86 -177 -207 -16 -41 -18 -86 -18 -453 0 -426 2 -451 44 -493 9 -8
21 -23 28 -32 19 -25 75 -65 138 -98 l55 -29 518 -3 517 -3 0 -235 0 -235
-557 4 c-611 4 -598 2 -724 66 -114 59 -216 150 -316 283 -60 79 -104 167
-140 286 l-27 87 -4 384 c-2 240 1 410 8 453 50 324 311 619 622 702 81 22
1478 23 1561 1z m434 -635 c69 -42 102 -135 69 -198 -28 -54 -62 -75 -126 -80
-51 -4 -65 -1 -95 19 -50 35 -69 75 -63 136 3 29 14 63 26 80 43 60 129 80
189 43z m-373 -85 c3 -27 9 -84 12 -126 l7 -76 -52 -13 -51 -12 2 -252 3 -251
78 -3 77 -3 0 -118 0 -118 -37 -7 c-83 -13 -99 -9 -137 38 -20 23 -36 46 -36
49 0 4 -25 53 -56 109 -31 57 -75 137 -97 178 -22 41 -66 123 -98 182 -33 59
-59 109 -59 112 0 7 433 367 436 363 1 -1 4 -24 8 -52z m632 10 c6 -5 90 -74
187 -153 96 -79 180 -149 186 -156 9 -11 4 -28 -22 -72 -19 -33 -60 -108 -92
-169 -32 -60 -77 -145 -101 -187 -24 -43 -44 -82 -44 -88 0 -5 -4 -10 -10 -10
-5 0 -10 -4 -10 -10 0 -13 -61 -113 -74 -123 -14 -9 -69 -23 -123 -31 l-43 -6
0 130 0 130 68 2 c37 0 73 1 80 1 18 -1 13 511 -5 513 -7 1 -23 2 -35 3 -54 3
-55 18 -22 234 7 42 2 43 60 -8z"/>
<path d="M5150 3240 c-111 -14 -234 -96 -280 -186 l-25 -49 0 -425 0 -425 34
-63 c41 -75 94 -125 170 -161 l56 -26 665 0 c515 0 675 3 708 13 58 18 142 88
174 147 52 95 58 150 58 542 l0 358 -29 61 c-37 78 -91 139 -152 170 -97 49
-174 54 -773 53 -303 -1 -576 -5 -606 -9z"/>
<path d="M8195 3245 c-5 -2 -28 -9 -51 -14 -93 -24 -171 -103 -213 -214 -20
-55 -21 -73 -21 -456 0 -275 4 -409 12 -432 20 -59 70 -118 132 -158 123 -77
74 -72 811 -69 748 4 715 0 799 85 26 25 61 75 79 112 l32 66 3 399 c3 440 0
464 -58 544 -35 49 -110 95 -201 122 -63 19 -94 20 -690 19 -343 0 -628 -2
-634 -4z"/>
</g>
</svg>
