<?xml version="1.0" standalone="no"?>
<!DOCTYPE svg PUBLIC "-//W3C//DTD SVG 20010904//EN"
 "http://www.w3.org/TR/2001/REC-SVG-20010904/DTD/svg10.dtd">
<svg version="1.0" xmlns="http://www.w3.org/2000/svg"
 width="640.000000pt" height="360.000000pt" viewBox="0 0 640.000000 360.000000"
 preserveAspectRatio="xMidYMid meet">

<g transform="translate(0.000000,360.000000) scale(0.100000,-0.100000)"
fill="#000000" stroke="none">
<path d="M2679 2930 c-9 -31 -17 -39 -40 -42 -24 -4 -33 1 -51 28 -20 29 -24
31 -51 22 -27 -10 -29 -14 -25 -52 3 -32 0 -45 -16 -57 -18 -15 -23 -15 -53
-1 -30 14 -34 14 -53 -3 -25 -23 -25 -33 2 -62 18 -19 20 -28 12 -51 -8 -22
-17 -28 -49 -32 -36 -5 -40 -8 -43 -37 -3 -28 1 -33 32 -44 50 -18 55 -55 13
-90 -29 -25 -30 -29 -19 -54 11 -25 17 -27 52 -22 33 4 41 1 55 -19 14 -22 14
-27 0 -55 -15 -29 -15 -32 1 -50 22 -24 35 -24 67 1 40 32 71 19 83 -33 8 -36
13 -42 37 -45 23 -3 30 2 42 32 9 20 22 36 29 36 8 0 20 2 28 5 8 3 21 -7 31
-25 20 -33 24 -34 60 -21 21 8 23 14 18 48 -6 32 -3 41 16 56 21 17 24 17 54
1 31 -15 32 -15 56 8 l24 25 -25 30 c-37 43 -24 78 32 87 35 5 40 10 44 37 5
32 5 31 -59 54 -25 9 -15 60 17 83 29 22 29 24 16 50 -13 25 -19 28 -51 24
-27 -3 -41 1 -55 16 -18 19 -18 23 -5 49 20 38 19 49 -7 67 -20 14 -24 14 -54
-9 -28 -22 -36 -23 -58 -14 -19 9 -26 21 -28 48 -3 31 -7 36 -35 42 -31 6 -34
5 -44 -31z m92 -153 c128 -68 146 -237 35 -334 -92 -81 -222 -64 -296 39 -122
168 77 392 261 295z"/>
<path d="M2566 2679 c-28 -22 -34 -56 -16 -90 13 -24 80 -28 80 -4 0 21 18 19
22 -2 2 -10 8 4 12 32 7 44 5 51 -14 67 -29 23 -51 23 -84 -3z"/>
<path d="M2707 2680 c-14 -11 -24 -28 -22 -37 15 -76 13 -73 50 -67 24 4 35 1
35 -7 0 -7 11 -2 25 11 32 30 32 64 0 95 -29 30 -54 32 -88 5z"/>
<path d="M2670 2538 c0 -32 -15 -37 -23 -8 -3 13 -14 20 -31 20 -24 0 -23 -2
20 -42 l45 -41 40 39 c39 38 39 39 18 48 -16 8 -24 6 -34 -8 -13 -17 -14 -17
-24 1 -9 16 -10 15 -11 -9z"/>
<path d="M4903 2810 c-13 -36 -45 -40 -67 -9 -23 33 -50 21 -54 -24 -4 -43
-21 -55 -57 -39 -19 9 -26 7 -41 -9 -17 -19 -17 -20 3 -41 29 -29 13 -68 -29
-68 -23 0 -28 -4 -28 -25 0 -18 7 -28 24 -35 34 -13 37 -41 8 -66 -21 -17 -23
-23 -13 -42 9 -18 17 -21 38 -16 35 9 56 -18 41 -52 -8 -17 -8 -27 2 -39 16
-19 29 -19 51 1 27 24 59 10 59 -27 0 -16 4 -29 9 -29 5 0 17 -3 25 -6 12 -5
19 2 27 25 13 37 49 42 71 10 21 -32 60 -18 56 21 -1 15 3 35 11 43 12 15 16
15 41 2 27 -14 30 -13 44 7 14 20 14 24 -5 44 -26 28 -12 61 28 66 41 4 42 38
3 60 -36 21 -38 40 -6 65 19 14 22 23 15 40 -7 18 -14 22 -37 17 -39 -8 -60
17 -43 52 9 20 9 30 0 40 -15 18 -28 18 -50 -2 -21 -19 -59 -10 -59 14 0 24
-12 38 -35 46 -16 5 -23 0 -32 -24z m60 -109 c35 -14 76 -60 88 -101 15 -50
-2 -108 -46 -150 -30 -29 -43 -34 -92 -38 -48 -3 -64 0 -92 20 -73 50 -91 148
-41 218 37 52 119 75 183 51z"/>
<path d="M4859 2658 c-8 -27 -2 -52 23 -102 35 -70 47 -81 67 -61 13 13 11 23
-15 76 -30 64 -48 89 -65 89 -5 0 -9 -1 -10 -2z m46 -49 c16 -30 14 -59 -3
-59 -4 0 -16 16 -26 37 -14 29 -15 38 -4 44 17 12 15 13 33 -22z"/>
<path d="M1252 2767 c-18 -49 -33 -64 -73 -71 -33 -6 -37 -4 -57 33 -33 59
-41 63 -88 42 l-41 -19 7 -53 c4 -30 7 -54 6 -55 0 0 -15 -10 -33 -23 l-32
-22 -50 25 -49 26 -32 -36 -31 -35 35 -47 34 -47 -18 -36 c-17 -33 -22 -36
-72 -38 -29 -1 -54 -4 -56 -6 -3 -2 -7 -24 -9 -48 l-5 -43 51 -22 c49 -20 51
-22 51 -61 0 -34 -5 -42 -32 -60 -18 -11 -39 -24 -46 -29 -19 -13 13 -101 36
-97 80 16 90 14 116 -20 l26 -33 -25 -44 c-14 -24 -24 -47 -24 -53 0 -5 16
-23 35 -39 l34 -28 44 35 43 36 35 -17 c33 -16 36 -21 40 -69 3 -29 7 -56 10
-59 4 -3 25 -8 47 -11 l42 -6 21 52 c21 50 23 51 64 51 39 0 44 -3 69 -45 28
-48 27 -48 94 -23 22 8 23 12 17 66 -6 56 -6 57 27 78 l33 21 48 -24 48 -25
29 28 c16 15 29 33 29 39 0 6 -14 30 -30 52 -30 41 -30 42 -14 76 15 32 21 35
70 39 30 3 56 7 59 9 2 3 7 24 11 47 l7 42 -51 21 c-47 20 -50 23 -54 61 -4
38 -2 41 43 71 l47 30 -16 45 -15 45 -58 -6 c-57 -7 -58 -6 -79 28 l-21 34 27
46 27 46 -23 24 c-37 39 -57 41 -100 6 -37 -30 -40 -30 -73 -16 -40 16 -47 30
-47 90 0 41 -1 43 -37 49 -57 9 -58 8 -71 -27z m102 -237 c175 -89 212 -336
70 -472 -117 -112 -300 -112 -411 -1 -62 62 -88 124 -87 213 0 92 26 150 90
210 70 65 115 81 209 78 61 -3 91 -9 129 -28z"/>
<path d="M1197 2433 c-4 -3 -7 -15 -7 -25 0 -14 8 -18 35 -18 35 0 40 5 29 34
-6 16 -45 22 -57 9z"/>
<path d="M1020 2344 c-6 -14 -10 -57 -10 -95 0 -56 4 -73 21 -90 l20 -20 24
25 c31 33 68 33 93 1 15 -19 29 -25 57 -25 28 0 42 6 57 25 25 32 62 32 93 -1
15 -16 32 -24 47 -22 56 8 6 153 -71 205 -31 21 -45 23 -178 23 l-143 0 -10
-26z m344 -36 l41 -42 -55 -8 c-73 -11 -80 -7 -80 47 0 42 2 45 26 45 18 0 40
-14 68 -42z m-184 -3 c0 -8 7 -15 15 -15 8 0 15 -5 15 -10 0 -6 -7 -13 -15
-16 -8 -4 -15 -12 -15 -20 0 -8 -7 -14 -15 -14 -8 0 -15 7 -15 15 0 8 -7 15
-15 15 -8 0 -15 7 -15 15 0 8 7 15 15 15 8 0 15 7 15 15 0 8 7 15 15 15 8 0
15 -7 15 -15z"/>
<path d="M1092 2158 c-30 -30 -1 -75 43 -64 22 6 26 11 23 39 -2 26 -8 33 -28
35 -14 2 -31 -3 -38 -10z"/>
<path d="M1302 2158 c-7 -7 -12 -22 -12 -35 0 -28 36 -46 63 -31 33 17 15 78
-23 78 -9 0 -21 -5 -28 -12z"/>
<path d="M3862 2639 c-19 -50 -57 -54 -90 -9 -20 27 -25 28 -48 18 -23 -11
-25 -16 -20 -50 5 -32 3 -40 -17 -53 -21 -14 -28 -14 -59 0 -35 14 -37 14 -53
-11 -16 -25 -16 -27 10 -54 23 -24 25 -30 14 -53 -9 -20 -20 -27 -48 -29 -32
-3 -36 -6 -39 -35 -3 -28 1 -32 32 -43 30 -10 36 -16 36 -40 0 -20 -9 -35 -30
-50 -17 -12 -27 -27 -24 -35 5 -11 9 -12 19 -2 7 7 11 15 9 19 -9 14 17 19 31
5 17 -17 2 -42 -30 -51 -11 -3 -1 -4 22 -2 36 3 44 0 58 -20 14 -22 14 -27 0
-54 -16 -31 -13 -50 7 -50 7 0 6 6 -2 15 -12 15 -11 16 13 19 6 1 11 11 9 22
-4 27 23 52 32 29 3 -9 2 -13 -3 -10 -5 3 -12 2 -15 -3 -7 -12 26 -12 41 0 8
6 19 6 30 -1 10 -6 14 -11 8 -11 -5 0 -3 -5 5 -10 12 -8 10 -10 -8 -10 -13 0
-21 -4 -17 -10 3 -5 11 -7 19 -4 7 3 25 0 40 -6 17 -6 25 -6 21 0 -8 13 8 13
22 -1 8 -8 13 -7 18 1 12 20 -9 32 -38 21 -22 -9 -27 -8 -27 4 0 8 6 15 13 16
91 8 135 0 122 -20 -3 -5 2 -12 11 -15 24 -9 29 -7 16 6 -15 15 -15 28 -1 28
5 0 8 -4 5 -9 -3 -5 0 -13 7 -19 9 -8 13 -7 13 6 1 9 3 23 5 31 2 7 -2 16 -10
19 -8 3 -11 0 -7 -7 4 -6 3 -11 -3 -11 -23 0 -17 17 11 33 22 12 27 13 19 4
-9 -12 -8 -16 5 -21 9 -4 19 -4 22 -1 3 3 0 5 -6 5 -7 0 -12 4 -12 10 0 5 8 7
18 3 15 -5 15 -4 -1 9 -17 13 -17 15 -3 27 16 13 21 6 17 -21 0 -5 4 -8 10 -8
6 0 3 -7 -5 -16 -9 -8 -14 -20 -10 -25 3 -5 -3 -13 -13 -17 -12 -4 -19 -19
-20 -40 -1 -18 3 -30 8 -27 5 4 9 2 9 -3 0 -6 -7 -12 -15 -16 -8 -3 -15 0 -15
6 0 6 -3 8 -7 5 -3 -4 -12 -2 -20 4 -18 16 -16 -1 3 -22 13 -15 20 -16 41 -6
22 10 24 16 20 49 -4 31 -1 40 18 52 21 14 28 14 56 2 31 -13 34 -12 52 10 19
24 19 24 -12 60 -31 35 -39 50 -22 39 5 -3 12 4 16 15 5 15 15 20 40 20 37 0
56 17 34 31 -23 15 -35 9 -15 -6 11 -8 15 -15 9 -15 -6 0 -16 6 -23 14 -6 8
-24 17 -38 19 -26 4 -25 4 3 4 52 1 56 3 49 15 -4 7 -3 8 5 4 6 -4 9 -12 6
-17 -4 -5 -1 -9 4 -9 26 0 8 29 -24 40 -29 10 -35 16 -35 40 0 20 9 35 30 50
26 19 29 24 18 38 -7 8 -13 18 -13 21 0 3 -17 6 -37 6 -28 0 -42 6 -53 22 -14
20 -14 25 1 54 16 31 16 33 -7 50 -31 24 -31 24 -58 -5 -20 -21 -27 -23 -51
-14 -24 8 -29 16 -32 46 -2 30 -8 37 -32 43 -26 7 -29 5 -44 -32z m65 15 c-3
-3 -12 -4 -19 -1 -8 3 -5 6 6 6 11 1 17 -2 13 -5z m-27 -30 l-35 -14 35 4 c19
3 29 2 21 -1 -9 -4 3 -16 33 -34 25 -16 50 -29 54 -29 13 0 43 36 36 42 -3 3
-1 9 4 12 14 9 35 -21 26 -36 -5 -7 -10 -22 -11 -32 -4 -26 -6 -26 -21 -10
-11 12 -10 14 3 14 9 0 14 4 11 9 -7 10 -66 -8 -89 -27 -10 -9 -21 -9 -38 -2
-22 10 -22 10 -2 6 12 -2 30 3 40 11 17 13 16 14 -7 9 -14 -3 -19 -3 -12 0 6
3 12 10 12 15 0 6 -4 8 -9 5 -5 -4 -11 -1 -13 4 -2 6 -11 4 -23 -5 -20 -17
-20 -17 0 -11 20 6 20 6 1 -9 -11 -8 -27 -15 -35 -14 -12 0 -10 3 4 9 l20 9
-20 1 c-19 1 -19 2 -1 9 16 6 17 8 4 13 -9 4 -21 1 -28 -5 -10 -10 -10 -7 -1
10 6 12 11 26 10 30 -4 22 4 29 34 30 l32 2 -35 -15z m-114 -24 c5 -5 22 -11
36 -12 22 -2 25 -5 17 -20 -8 -14 -6 -18 8 -18 15 0 16 -2 3 -10 -20 -13 -33
-13 -25 0 7 12 3 12 -20 4 -13 -6 -14 -9 -3 -16 9 -7 8 -8 -6 -4 -11 4 -23 1
-28 -6 -6 -10 -8 -10 -8 -1 0 7 11 18 25 26 22 11 24 15 12 31 -13 17 -14 17
-28 0 -8 -11 -9 -15 -1 -10 16 10 15 -2 -2 -19 -20 -20 -25 -9 -13 31 11 36
17 40 33 24z m-47 -27 c0 -25 -1 -25 -8 -8 -5 11 -7 23 -4 28 8 14 13 7 12
-20z m11 -53 c7 -13 6 -20 -5 -24 -8 -3 -17 -1 -20 4 -3 4 1 10 7 13 7 3 1 4
-15 3 -15 -2 -30 -6 -35 -11 -4 -4 -2 -6 3 -2 6 3 17 1 25 -4 12 -8 11 -9 -5
-7 -13 2 -19 -2 -17 -11 2 -7 -4 -21 -13 -31 -9 -10 -13 -25 -9 -36 4 -10 4
-16 -1 -12 -4 4 -14 3 -22 -4 -10 -8 -17 -8 -26 1 -9 10 -8 11 8 6 20 -7 20
-7 0 10 -16 12 -17 18 -6 24 10 7 8 13 -11 31 -12 13 -16 20 -8 16 8 -4 7 -1
-4 8 -11 9 -16 22 -12 31 8 22 32 13 28 -11 -2 -18 -2 -18 13 1 14 17 17 18
25 5 6 -8 8 -20 6 -26 -2 -6 0 -17 5 -25 7 -11 9 -10 10 6 1 11 1 24 0 28 -2
14 24 34 38 29 8 -3 11 0 7 7 -5 7 -1 9 9 5 8 -4 20 -14 25 -24z m284 -5 c8
-8 19 -15 24 -15 11 0 10 -25 0 -36 -4 -3 -18 2 -32 11 -14 10 -26 14 -26 10
0 -4 -7 -2 -15 5 -9 7 -18 10 -21 8 -3 -3 8 -15 25 -27 47 -34 75 -102 68
-167 -11 -104 -78 -170 -189 -184 -35 -4 -71 -11 -80 -15 -13 -5 -18 -2 -18 8
0 11 7 14 23 10 12 -3 2 6 -23 19 -26 14 -58 43 -75 69 -26 38 -30 53 -30 109
0 46 5 72 18 90 21 30 23 53 2 26 -8 -11 -15 -16 -15 -10 0 14 50 65 59 60 4
-3 25 4 47 14 41 22 107 26 149 10 19 -7 33 -6 53 5 34 18 37 18 56 0z m-5
-57 c20 -21 21 -21 41 -3 19 17 20 17 27 -1 3 -11 11 -22 17 -26 7 -5 3 -8 -8
-8 -12 0 -16 -5 -13 -14 3 -8 0 -19 -7 -25 -8 -7 -16 -4 -25 11 -11 18 -11 20
3 15 10 -4 13 -1 9 9 -3 7 0 14 6 14 6 0 11 5 11 12 0 6 -7 5 -18 -5 -17 -16
-20 -15 -47 13 -16 17 -26 30 -22 30 3 0 15 -10 26 -22z m133 0 c-9 -9 -15 -9
-24 0 -9 9 -7 12 12 12 19 0 21 -3 12 -12z m16 -23 c-2 -6 -7 -9 -11 -7 -4 1
-10 -5 -13 -13 -3 -8 -10 -12 -15 -9 -5 3 -10 -1 -10 -8 -1 -7 -2 -20 -3 -28
-1 -8 2 -23 7 -34 7 -14 6 -17 -5 -11 -9 6 -10 5 -3 -3 6 -5 19 -12 30 -15 13
-3 8 -5 -13 -6 -18 0 -42 -6 -53 -11 -21 -12 -25 -1 -6 19 10 11 10 14 0 18
-7 3 -13 12 -13 21 1 15 2 15 11 0 5 -10 15 -18 20 -18 6 0 8 4 4 9 -3 5 -1
12 5 16 5 3 10 11 10 17 0 7 -6 6 -15 -2 -11 -9 -15 -9 -15 -1 0 6 7 14 16 18
13 5 13 7 2 14 -10 7 -9 9 5 9 9 0 17 8 17 18 0 13 2 14 9 4 7 -11 10 -10 15
3 6 17 30 17 24 0z m-584 -72 c-3 -15 -1 -22 6 -18 5 3 10 13 10 20 0 9 6 12
16 8 9 -3 20 0 26 8 8 11 9 10 4 -4 -3 -10 -6 -36 -6 -58 0 -27 -4 -39 -14
-39 -8 0 -17 -6 -19 -12 -4 -9 -6 -8 -6 3 -1 8 6 24 14 35 8 10 14 26 14 34 0
10 -3 8 -9 -5 -5 -11 -9 -14 -9 -7 -1 9 -8 11 -20 7 -23 -7 -39 14 -20 26 8 5
9 9 3 9 -6 0 -17 -7 -24 -15 -7 -8 -9 -15 -5 -15 5 0 6 -2 3 -5 -8 -8 -38 6
-38 17 0 6 6 8 14 5 8 -3 17 1 20 9 5 12 1 14 -17 9 -14 -4 -18 -3 -9 3 7 5
26 9 41 9 25 0 28 -4 25 -24z m3 -95 c-3 -7 -5 -2 -5 12 0 14 2 19 5 13 2 -7
2 -19 0 -25z m503 2 c0 -5 -5 -10 -10 -10 -6 0 -8 -11 -6 -25 3 -14 0 -25 -6
-25 -6 0 -7 8 -3 18 4 12 3 14 -5 6 -13 -13 -2 -47 12 -38 6 4 5 -3 -1 -15
-13 -24 -17 -25 -27 -9 -5 7 -3 8 6 3 8 -5 11 -3 8 6 -3 8 -13 13 -22 11 -15
-3 -15 0 -4 20 7 13 16 25 19 28 3 3 8 13 12 23 7 18 27 24 27 7z m-438 -34
c13 8 -12 -39 -26 -48 -20 -13 -36 -9 -29 8 4 10 0 20 -10 26 -22 12 -22 28 1
28 13 0 14 -2 4 -9 -11 -7 -11 -9 2 -14 10 -4 17 1 22 15 6 19 7 20 16 4 5 -9
14 -14 20 -10z m491 17 c-7 -2 -19 -2 -25 0 -7 3 -2 5 12 5 14 0 19 -2 13 -5z
m-468 -94 c-17 -32 -30 -37 -39 -13 -3 8 -2 12 4 9 5 -3 15 5 21 19 7 14 16
23 20 20 5 -3 2 -18 -6 -35z m433 9 c7 -7 12 -17 12 -22 0 -6 -5 -3 -11 7 -6
9 -14 15 -20 12 -5 -4 -9 -1 -9 4 0 14 13 14 28 -1z m-379 -19 c13 -11 22 -22
19 -24 -3 -3 -13 4 -23 15 -21 23 -44 28 -25 5 8 -9 9 -15 2 -15 -15 0 -25 18
-17 30 9 14 17 12 44 -11z m356 -19 c6 9 4 11 -6 5 -11 -6 -11 -5 -3 4 9 10
16 10 33 -1 12 -7 19 -17 17 -23 -4 -13 -60 -9 -64 5 -3 8 -8 7 -18 -1 -17
-14 -19 -3 -2 15 11 11 15 11 24 -2 9 -12 13 -12 19 -2z"/>
<path d="M3892 2586 c7 -7 19 -11 27 -8 11 4 10 7 -5 13 -29 12 -36 10 -22 -5z"/>
<path d="M4053 2585 c0 -8 4 -15 9 -15 4 0 8 4 8 9 0 6 -4 12 -8 15 -5 3 -9
-1 -9 -9z"/>
<path d="M3810 2569 c0 -5 5 -7 10 -4 6 3 10 8 10 11 0 2 -4 4 -10 4 -5 0 -10
-5 -10 -11z"/>
<path d="M3631 2496 c-8 -10 -9 -21 -3 -33 5 -10 7 -24 5 -30 -3 -7 0 -13 5
-13 14 0 25 34 13 38 -5 2 -7 14 -5 28 5 28 1 30 -15 10z"/>
<path d="M3991 2511 c-8 -5 -9 -11 -3 -15 5 -3 12 1 16 9 6 17 6 18 -13 6z"/>
<path d="M4015 2501 c-3 -6 0 -11 9 -11 8 0 16 -6 19 -12 2 -7 7 -10 11 -7 3
3 -2 14 -13 23 -12 11 -21 14 -26 7z"/>
<path d="M3710 2465 c-7 -9 -8 -15 -2 -15 5 0 12 7 16 15 3 8 4 15 2 15 -2 0
-9 -7 -16 -15z"/>
<path d="M3804 2424 c4 -23 0 -36 -14 -49 -31 -28 -27 -87 10 -125 29 -29 80
-42 80 -19 0 6 10 19 23 30 12 10 17 18 11 19 -6 0 -17 -7 -24 -15 -18 -21
-66 -19 -90 5 -26 26 -26 72 0 95 20 18 21 18 36 -3 18 -26 37 -29 32 -4 -2 9
-9 16 -16 15 -6 -2 -9 3 -7 10 3 6 -7 26 -21 42 l-25 30 5 -31z m24 -29 c-3
-3 -9 2 -12 12 -6 14 -5 15 5 6 7 -7 10 -15 7 -18z"/>
<path d="M3894 2299 c12 -8 25 -8 40 -1 18 9 16 11 -19 11 -33 0 -37 -1 -21
-10z"/>
<path d="M3626 2214 c-8 -22 -4 -25 11 -9 7 8 9 16 4 19 -5 3 -12 -1 -15 -10z"/>
<path d="M4108 2113 c7 -3 16 -2 19 1 4 3 -2 6 -13 5 -11 0 -14 -3 -6 -6z"/>
<path d="M5372 2452 c-10 -33 -17 -40 -43 -44 -20 -3 -33 0 -39 11 -28 47 -37
52 -65 39 -25 -11 -27 -16 -22 -53 5 -34 2 -43 -18 -57 -21 -16 -27 -16 -59
-3 -45 19 -43 19 -62 -10 -16 -25 -16 -27 7 -51 21 -23 36 -80 18 -68 -4 2 -9
-3 -13 -11 -3 -9 -18 -15 -40 -15 -35 0 -46 -12 -46 -50 0 -14 12 -23 40 -31
35 -11 40 -16 41 -43 0 -25 2 -27 8 -12 7 19 8 19 15 1 4 -11 2 -21 -5 -26 -8
-4 -4 -9 10 -14 17 -5 20 -10 11 -20 -7 -8 -8 -20 -4 -26 4 -8 3 -9 -4 -5 -7
4 -12 16 -12 27 0 12 -7 19 -20 19 -27 0 -25 -24 3 -43 22 -16 22 -16 -10 -14
-17 1 -29 4 -27 6 2 2 -2 11 -9 19 -9 13 -9 14 1 8 7 -4 12 -2 12 8 0 8 8 20
18 25 9 6 13 10 7 10 -5 1 -21 -8 -34 -18 -23 -17 -23 -21 -11 -51 7 -17 16
-28 19 -23 12 16 70 8 89 -13 18 -19 18 -24 5 -54 -16 -39 -12 -54 16 -69 16
-9 25 -6 49 14 26 22 34 24 55 14 19 -8 27 -22 32 -50 5 -30 12 -40 31 -45 29
-8 36 -3 50 39 9 26 18 33 47 38 21 3 35 2 34 -4 -1 -5 6 -11 16 -12 9 -2 17
1 17 6 0 5 -6 9 -12 9 -9 0 -8 3 2 9 8 6 17 8 21 5 4 -2 11 1 15 7 4 7 3 9 -4
5 -6 -3 -13 -2 -17 4 -3 5 -12 10 -18 10 -7 0 -6 -4 3 -10 11 -7 11 -10 2 -10
-7 0 -17 10 -21 23 -9 22 -9 22 -20 -5 -11 -29 -25 -36 -36 -17 -4 6 -14 8
-22 5 -8 -3 -11 -1 -8 4 3 6 2 10 -3 10 -13 0 -22 -48 -10 -52 5 -2 5 -15 -2
-32 -8 -22 -13 -26 -24 -17 -7 6 -15 8 -18 5 -3 -3 -9 16 -13 42 -5 34 -3 49
7 55 10 7 9 9 -5 9 -9 0 -26 5 -36 12 -16 10 -17 14 -5 25 12 12 16 12 30 -2
10 -10 24 -13 36 -9 15 4 18 3 13 -6 -5 -9 -1 -10 16 -5 15 4 19 3 12 -2 -9
-6 -2 -14 22 -25 38 -17 49 -8 13 11 -22 11 -22 11 4 6 15 -3 30 -1 33 5 3 5
13 10 21 10 8 0 12 -5 9 -10 -4 -7 3 -9 22 -5 23 5 25 4 13 -5 -13 -10 -13
-11 3 -6 21 7 22 -12 1 -35 -9 -10 -13 -23 -9 -28 10 -17 25 -13 19 4 -4 8 -2
15 4 15 6 0 9 -8 8 -17 -3 -20 -33 -25 -53 -10 -18 13 -17 -7 1 -22 10 -8 21
-8 41 -1 25 9 27 14 20 46 -5 27 -2 41 11 55 21 23 36 24 74 4 27 -14 29 -14
48 12 l20 27 -24 32 c-34 45 -21 79 34 89 35 6 41 10 44 37 5 30 5 30 -59 53
-7 2 -13 16 -13 30 0 15 -4 24 -10 20 -5 -3 -10 -4 -10 -2 0 2 18 17 39 31 37
26 39 29 29 58 -10 29 -13 30 -52 25 -35 -5 -44 -2 -59 19 -16 22 -16 26 -2
53 20 39 19 43 -10 63 -23 17 -25 17 -55 -8 -27 -23 -34 -25 -57 -15 -32 15
-37 10 -17 -15 8 -10 13 -13 9 -6 -7 14 11 17 20 2 3 -6 -4 -14 -16 -18 -16
-6 -18 -10 -8 -14 8 -2 25 1 39 9 14 7 19 13 12 13 -7 0 -1 11 15 24 19 17 30
21 35 13 6 -9 8 -8 8 1 0 7 5 10 10 7 6 -4 7 -11 4 -17 -5 -7 -2 -8 6 -3 9 5
11 4 6 -3 -5 -9 -13 -9 -26 -2 -25 13 -33 13 -24 -2 4 -6 3 -8 -4 -4 -6 3 -13
2 -16 -3 -9 -14 20 -21 33 -8 17 17 13 -4 -4 -23 -13 -15 -13 -19 1 -36 15
-18 15 -18 9 3 -3 12 -1 25 6 29 8 4 9 3 5 -4 -4 -6 -2 -21 5 -33 8 -15 8 -19
0 -15 -6 4 -11 2 -11 -4 0 -16 -20 -1 -31 24 -9 19 -9 19 -4 -4 19 -81 18 -86
-10 -44 -12 18 -13 24 -4 19 8 -3 5 1 -5 9 -11 9 -14 16 -8 16 7 0 12 5 12 12
0 6 -8 4 -19 -6 -18 -17 -20 -16 -26 5 -6 17 -9 19 -16 8 -8 -13 -10 -12 -13
11 0 6 -7 15 -15 20 -11 6 -12 12 -5 22 6 7 12 34 13 61 2 41 0 47 -17 47 -11
0 -27 2 -34 5 -10 4 -18 -6 -26 -33z m68 -12 c0 -17 -6 -31 -12 -31 -13 -1
-24 -4 -43 -9 -5 -1 4 -6 20 -11 28 -8 27 -8 -7 -4 -38 4 -53 -10 -20 -18 10
-3 6 -5 -11 -6 -18 -1 -26 -5 -21 -12 3 -6 16 -8 27 -5 23 6 67 -2 67 -13 0
-3 -39 -5 -86 -3 -85 4 -86 4 -99 35 -9 22 -10 37 -4 50 10 17 29 15 29 -4 0
-6 -4 -7 -10 -4 -13 8 -13 -21 0 -46 6 -11 21 -19 36 -19 15 0 23 4 19 10 -4
6 -16 8 -28 5 -22 -6 -22 -6 -2 11 20 16 20 16 -2 11 -13 -3 -23 -2 -23 3 0 4
17 10 38 13 74 12 77 13 75 36 -2 15 1 20 9 15 8 -5 9 -2 5 9 -5 13 -1 17 18
17 21 0 25 -5 25 -30z m-215 0 c-3 -5 -1 -10 4 -10 6 0 11 5 11 10 0 6 4 10 9
10 5 0 3 -13 -5 -30 -13 -26 -13 -32 1 -60 12 -23 13 -35 6 -44 -6 -7 -8 -15
-5 -18 3 -3 1 -9 -4 -12 -6 -3 -13 1 -16 9 -3 9 1 18 9 21 12 5 11 12 -5 42
-20 37 -26 73 -13 85 10 10 15 8 8 -3z m-104 -106 c17 -8 36 -13 42 -11 7 2
17 5 22 7 6 1 15 6 21 11 12 9 24 2 24 -14 0 -6 -3 -7 -7 -4 -3 4 -14 0 -24
-9 -10 -9 -27 -14 -37 -12 -12 3 -22 -3 -29 -18 -10 -21 -9 -24 9 -24 11 0 26
-7 35 -15 16 -17 37 -10 27 8 -5 8 -3 8 7 0 7 -7 30 -13 51 -13 21 0 38 -4 38
-10 0 -5 -17 -10 -37 -10 l-38 -1 25 -14 c44 -25 120 -15 78 11 -7 5 -8 3 -3
-6 5 -8 4 -11 -3 -7 -5 4 -8 16 -5 27 3 12 2 20 -3 19 -26 -4 -94 2 -94 9 0 5
23 21 51 37 52 28 54 28 191 13 9 -1 14 -6 12 -10 -5 -8 11 -12 29 -9 5 1 6
-3 3 -7 -3 -5 4 -18 16 -28 55 -49 73 -156 39 -229 -60 -129 -207 -166 -325
-82 -37 26 -43 27 -77 11 -17 -9 -30 -9 -40 -2 -11 8 -11 9 4 4 9 -3 17 -1 17
4 0 6 -7 10 -15 10 -8 0 -15 5 -15 10 0 15 16 12 34 -5 13 -13 15 -13 21 6 7
19 7 20 21 2 21 -28 17 -8 -7 32 -26 44 -28 129 -5 176 19 37 19 39 7 39 -5 0
-15 -17 -22 -37 -7 -21 -14 -33 -16 -26 -2 6 3 25 11 41 13 26 13 28 -2 27
-10 0 -22 -4 -27 -7 -6 -4 -11 6 -11 23 -1 16 3 29 8 29 5 0 7 4 3 10 -8 13
-36 0 -28 -14 3 -6 -4 -1 -16 12 -21 21 -21 49 0 36 5 -3 7 -9 5 -13 -3 -4 1
-8 8 -8 15 0 9 27 -8 39 -20 14 5 8 35 -8z m154 -24 c-3 -5 -12 -10 -18 -10
-7 0 -6 4 3 10 19 12 23 12 15 0z m-62 -31 c-17 -17 -37 -1 -22 17 8 10 15 12
23 4 7 -7 7 -13 -1 -21z m438 -29 c19 -11 21 -10 15 6 -6 17 -6 17 12 1 10 -9
22 -14 27 -10 4 5 5 3 2 -4 -4 -6 -1 -14 5 -17 9 -4 8 -5 -2 -4 -8 1 -26 -4
-40 -10 -14 -6 -19 -11 -11 -11 8 -1 12 -3 9 -6 -3 -3 -13 -3 -22 1 -20 8 -11
24 14 24 10 0 21 4 25 9 8 13 -43 7 -57 -7 -8 -8 -15 -7 -24 6 -12 16 -13 15
-22 -7 -7 -19 -11 -21 -17 -11 -5 8 -4 15 3 18 6 2 8 10 5 18 -4 10 0 12 13 7
11 -4 15 -3 10 5 -8 13 23 9 55 -8z m-511 -40 c0 -11 -6 -20 -13 -20 -7 0 -18
-9 -24 -19 -10 -15 -9 -20 2 -25 9 -3 12 0 8 10 -3 7 0 14 6 14 6 0 11 -10 11
-22 0 -19 2 -20 10 -8 8 11 9 7 4 -14 -4 -16 -7 -38 -8 -49 -1 -11 -8 -23 -16
-25 -13 -5 -13 -3 0 13 13 17 13 18 -1 13 -9 -3 -22 -2 -30 3 -10 6 -7 9 14 9
20 0 27 5 27 19 0 10 -9 21 -19 24 -14 3 -18 1 -14 -9 3 -8 9 -11 14 -8 5 3 9
0 9 -5 0 -17 -27 -13 -34 4 -3 8 -11 15 -17 15 -8 0 -8 -4 1 -15 11 -13 10
-14 -4 -9 -9 3 -16 11 -16 16 0 6 -7 8 -15 4 -8 -3 -15 -1 -15 5 0 6 -6 7 -12
3 -7 -4 -2 4 12 18 28 28 60 42 60 27 0 -6 5 -7 10 -4 6 4 8 10 5 15 -3 5 4
11 15 15 11 3 20 11 20 16 0 5 2 9 5 9 3 0 5 -9 5 -20z m157 -6 c-3 -3 -12 -4
-19 -1 -8 3 -5 6 6 6 11 1 17 -2 13 -5z m317 -16 c-4 -6 -1 -9 7 -6 7 2 19 -6
26 -20 16 -29 16 -35 3 -27 -6 4 -10 -5 -10 -19 0 -14 5 -26 11 -26 6 0 9 7 5
15 -3 8 -1 15 4 15 6 0 10 -4 10 -10 0 -5 9 -10 20 -10 11 0 20 -5 20 -11 0
-5 4 -8 8 -5 5 3 9 -1 9 -9 0 -8 -7 -15 -16 -16 -12 0 -11 -3 4 -9 13 -6 15
-9 5 -9 -23 -1 -44 15 -31 23 6 4 9 12 6 17 -11 17 -35 9 -45 -15 -5 -13 -14
-27 -21 -31 -15 -10 -31 16 -19 31 6 6 7 14 3 17 -3 4 -2 7 3 7 13 0 13 43 0
52 -7 5 -7 8 2 8 6 0 12 5 12 12 0 6 -3 8 -7 5 -3 -4 -12 1 -20 11 -13 15 -13
15 -8 -8 5 -20 4 -22 -5 -8 -13 21 -3 48 16 41 8 -3 11 -10 8 -15z m-7 -78 c1
-11 -2 -20 -8 -20 -10 0 -12 23 -2 33 9 9 9 10 10 -13z m-13 -66 c3 -8 2 -12
-4 -9 -6 3 -10 10 -10 16 0 14 7 11 14 -7z m-435 -42 c-5 -2 -7 -8 -3 -13 10
-16 -2 -10 -30 16 -15 14 -25 26 -22 26 4 1 10 2 15 3 5 0 13 5 17 9 4 4 13
-3 20 -15 7 -13 9 -24 3 -26z m516 31 c-28 -7 -46 -23 -38 -36 3 -6 1 -7 -5
-3 -7 4 -10 -3 -9 -19 1 -14 9 -30 17 -35 13 -9 13 -10 0 -10 -24 0 -36 13
-34 38 1 17 -2 20 -12 11 -19 -16 -2 -44 35 -57 16 -6 32 -9 35 -6 3 2 2 -1
-3 -7 -5 -6 -7 -18 -3 -27 4 -12 1 -14 -12 -9 -10 4 -22 7 -27 7 -5 0 -8 3 -8
8 3 19 -2 33 -10 28 -5 -3 -12 6 -15 19 -4 14 -11 23 -16 20 -10 -6 6 -42 25
-58 6 -5 3 -7 -7 -3 -11 3 -26 -3 -39 -17 -18 -19 -22 -20 -32 -7 -9 12 -28
15 -72 14 -42 -1 -51 1 -30 5 17 4 39 12 50 18 11 6 27 8 35 5 8 -2 12 -1 8 3
-4 4 9 28 30 54 20 25 38 48 40 51 2 2 7 -2 12 -10 8 -13 10 -13 10 -1 0 8 3
11 6 8 4 -3 16 0 28 8 11 8 30 14 41 14 20 -1 20 -1 0 -6z m-452 -96 c-2 -4
-6 -7 -10 -8 -5 -1 -17 -5 -28 -11 -19 -9 -19 -8 -2 5 14 11 15 16 5 20 -7 3
-2 4 12 3 14 -2 24 -6 23 -9z m18 -76 c16 -7 29 -18 29 -24 0 -8 -4 -7 -12 1
-15 15 -45 15 -50 0 -3 -9 -6 -9 -12 0 -4 7 -2 12 3 12 6 0 11 5 11 11 0 5 -4
8 -9 5 -5 -3 -8 7 -8 22 0 24 1 25 9 7 5 -11 22 -26 39 -34z m-61 16 c0 -7 -4
-6 -10 3 -8 12 -10 12 -10 1 0 -8 -3 -12 -6 -8 -9 9 6 28 17 22 5 -4 9 -12 9
-18z m-3 -47 c-2 -11 -7 -23 -12 -27 -4 -5 -5 -3 -1 4 3 6 2 14 -4 18 -5 3
-10 0 -10 -7 0 -10 -3 -9 -9 2 -14 21 -2 33 17 18 13 -11 15 -10 9 5 -4 11 -3
16 3 12 5 -3 8 -15 7 -25z m208 -10 c-3 -5 -12 -10 -18 -10 -7 0 -6 4 3 10 19
12 23 12 15 0z"/>
<path d="M5400 2430 c0 -6 7 -10 15 -10 8 0 15 2 15 4 0 2 -7 6 -15 10 -8 3
-15 1 -15 -4z"/>
<path d="M5328 2373 c7 -3 16 -2 19 1 4 3 -2 6 -13 5 -11 0 -14 -3 -6 -6z"/>
<path d="M5117 2315 c3 -8 9 -12 14 -9 12 7 11 11 -5 17 -10 4 -13 1 -9 -8z"/>
<path d="M5357 2198 c7 -76 13 -87 13 -27 0 25 5 50 11 56 13 13 4 33 -16 33
-12 0 -13 -12 -8 -62z"/>
<path d="M5410 2233 c0 -15 2 -16 10 -3 8 13 10 13 10 -2 0 -9 6 -19 13 -22 6
-3 0 -3 -14 0 -16 3 -30 1 -34 -7 -6 -9 3 -11 41 -5 58 8 83 26 36 26 -45 0
-40 18 6 23 30 3 28 4 -15 5 -45 2 -53 -1 -53 -15z"/>
<path d="M5290 2150 c0 -19 27 -40 52 -40 7 1 1 8 -14 16 -32 17 -38 39 -8 31
11 -3 18 -1 14 4 -11 18 -44 10 -44 -11z"/>
<path d="M5394 2159 c-4 -7 0 -9 14 -5 26 9 38 -10 15 -23 -10 -6 -13 -11 -7
-11 6 0 17 7 25 16 10 13 10 17 -2 25 -19 12 -36 11 -45 -2z"/>
<path d="M5383 2098 c18 -6 26 -15 23 -24 -3 -8 -1 -14 4 -14 21 0 9 38 -12
44 -36 9 -46 5 -15 -6z"/>
<path d="M5317 2093 c-4 -3 -7 -10 -7 -14 0 -10 60 -42 66 -36 3 2 -9 10 -26
17 -19 8 -29 18 -26 26 6 15 3 18 -7 7z"/>
<path d="M5394 2020 c0 -13 4 -16 10 -10 7 7 7 13 0 20 -6 6 -10 3 -10 -10z"/>
<path d="M5331 2014 c0 -11 3 -14 6 -6 3 7 2 16 -1 19 -3 4 -6 -2 -5 -13z"/>
<path d="M5362 1995 c0 -16 2 -22 5 -12 2 9 2 23 0 30 -3 6 -5 -1 -5 -18z"/>
<path d="M5613 2245 c0 -8 4 -15 9 -15 4 0 8 4 8 9 0 6 -4 12 -8 15 -5 3 -9
-1 -9 -9z"/>
<path d="M5040 2155 c-10 -12 -9 -15 4 -15 10 0 14 5 11 10 -3 6 -2 10 4 10 5
0 12 -6 14 -12 3 -8 6 -6 6 5 1 21 -22 22 -39 2z"/>
<path d="M5626 2065 c-3 -8 -1 -15 4 -15 6 0 10 7 10 15 0 8 -2 15 -4 15 -2 0
-6 -7 -10 -15z"/>
<path d="M5130 2021 c0 -5 5 -13 10 -16 6 -3 10 -2 10 4 0 5 -4 13 -10 16 -5
3 -10 2 -10 -4z"/>
<path d="M5542 1958 c-22 -23 -28 -35 -19 -40 9 -6 9 -8 0 -8 -7 0 -13 -5 -13
-12 0 -6 9 -3 20 7 11 10 20 13 20 8 0 -6 -7 -16 -15 -23 -9 -7 -13 -15 -11
-17 6 -6 40 30 44 46 1 7 -2 10 -7 7 -20 -13 -18 23 2 37 12 8 19 18 16 22 -4
3 -21 -9 -37 -27z"/>
<path d="M5475 1900 c-3 -5 1 -10 10 -10 9 0 13 5 10 10 -3 6 -8 10 -10 10 -2
0 -7 -4 -10 -10z"/>
<path d="M5620 1906 c0 -2 6 -9 13 -15 10 -8 14 -7 14 4 0 8 -6 15 -14 15 -7
0 -13 -2 -13 -4z"/>
<path d="M4489 2441 c-15 -44 -47 -50 -76 -16 -19 21 -29 26 -49 21 -23 -6
-25 -10 -19 -44 5 -31 2 -39 -15 -50 -15 -9 -26 -10 -40 -2 -29 15 -48 12 -61
-11 -9 -17 -7 -25 10 -43 27 -28 18 -64 -18 -72 -47 -10 -51 -13 -51 -39 0
-16 6 -25 15 -25 18 0 55 -35 55 -52 0 -7 -13 -22 -29 -32 -25 -17 -28 -23
-18 -43 9 -20 17 -24 44 -21 45 4 66 -25 49 -67 -11 -26 -10 -32 8 -46 19 -15
22 -15 47 3 37 27 66 17 75 -27 4 -25 12 -34 31 -38 21 -4 27 1 39 29 18 42
49 45 79 8 19 -24 24 -25 44 -14 19 10 22 18 18 45 -4 27 -1 35 18 45 17 9 28
9 43 1 30 -16 40 -14 53 10 9 17 7 26 -8 48 -28 38 -12 71 34 71 30 0 33 3 33
31 0 24 -6 32 -30 40 -38 14 -40 50 -6 82 20 18 23 26 15 45 -8 20 -14 23 -40
17 -22 -5 -36 -2 -49 10 -17 15 -17 20 -5 50 13 29 12 34 -5 50 -17 16 -20 16
-47 -4 -41 -30 -71 -19 -75 27 -3 30 -7 36 -31 39 -23 3 -29 -1 -38 -26z m52
-122 c72 -24 119 -90 119 -164 0 -192 -248 -249 -331 -77 -43 88 -5 192 85
233 48 22 80 23 127 8z"/>
<path d="M4433 2263 c-18 -7 -16 -88 2 -107 23 -23 52 -28 77 -15 32 17 38 28
38 76 0 33 -4 43 -21 48 -23 8 -34 1 -25 -14 4 -6 13 -8 21 -4 11 4 15 -3 15
-27 0 -50 -16 -70 -55 -70 -39 0 -55 20 -55 70 0 23 4 30 16 28 10 -2 19 3 21
10 5 12 -11 15 -34 5z"/>
<path d="M4455 2109 c-4 -5 -4 -21 -1 -34 5 -18 17 -27 47 -35 46 -13 64 -4
56 26 -4 16 -5 15 -6 -3 -1 -23 -25 -31 -36 -13 -4 6 -10 8 -15 5 -15 -9 -41
26 -35 46 7 20 0 26 -10 8z"/>
<path d="M4515 2080 c-3 -6 1 -7 9 -4 18 7 21 14 7 14 -6 0 -13 -4 -16 -10z"/>
<path d="M5445 2360 c3 -5 8 -10 11 -10 2 0 4 5 4 10 0 6 -5 10 -11 10 -5 0
-7 -4 -4 -10z"/>
<path d="M5521 2341 c-14 -4 -27 -13 -29 -21 -5 -13 -3 -13 11 -2 9 8 21 11
26 8 5 -4 13 -1 16 5 10 14 4 17 -24 10z"/>
<path d="M2914 2236 c-16 -50 -20 -54 -53 -60 -33 -6 -39 -3 -74 39 l-39 45
-31 -16 c-56 -29 -56 -30 -41 -86 l13 -52 -32 -27 -31 -26 -44 18 c-24 11 -49
19 -55 19 -11 0 -57 -61 -57 -75 0 -3 16 -23 36 -45 36 -40 36 -41 22 -78 -12
-33 -18 -37 -60 -44 -64 -9 -68 -13 -68 -63 l0 -44 54 -16 c50 -15 54 -18 60
-53 6 -34 3 -40 -35 -73 -44 -39 -47 -60 -15 -104 13 -18 19 -18 67 -8 54 11
54 11 80 -20 l26 -31 -20 -50 -21 -49 34 -29 c19 -15 38 -28 42 -28 4 0 26 16
48 36 40 36 41 36 78 22 33 -12 37 -18 44 -60 9 -64 13 -68 63 -68 l44 0 16
54 c15 50 18 54 53 60 34 6 40 3 77 -38 l40 -45 38 20 c39 21 43 36 28 104 -6
25 -2 34 23 56 l30 26 44 -18 c24 -11 49 -19 55 -19 11 0 57 61 57 75 0 3 -16
23 -36 45 -36 40 -36 41 -22 78 12 33 18 37 60 44 64 9 68 13 68 63 l0 44 -54
16 c-50 15 -54 18 -60 53 -6 34 -3 40 39 77 47 43 47 41 9 102 -13 21 -15 21
-66 8 l-52 -14 -27 31 -26 32 20 50 21 49 -34 29 c-19 15 -38 28 -42 28 -4 0
-26 -16 -48 -36 -40 -36 -41 -36 -78 -22 -33 12 -37 18 -44 60 -9 64 -13 68
-63 68 l-44 0 -17 -54z m151 -217 c58 -27 117 -87 146 -147 32 -66 32 -178 0
-244 -30 -63 -85 -118 -147 -148 -68 -33 -179 -33 -246 -1 -134 65 -203 211
-163 347 31 108 111 187 220 215 46 12 140 2 190 -22z"/>
<path d="M2870 1890 c-11 -11 -20 -30 -20 -42 0 -20 2 -19 20 10 18 29 24 32
70 32 45 0 52 -3 69 -30 18 -30 34 -32 24 -2 -14 40 -35 52 -90 52 -40 0 -58
-5 -73 -20z"/>
<path d="M2810 1843 c-8 -3 -25 -15 -37 -26 -20 -18 -23 -30 -23 -99 0 -70 3
-82 25 -103 23 -24 29 -25 165 -25 136 0 142 1 165 25 22 21 25 33 25 99 0 91
-4 102 -43 123 -29 14 -31 14 -44 -3 -14 -18 -15 -18 -27 -1 -18 24 -121 24
-148 0 -16 -15 -20 -15 -31 -1 -6 9 -19 13 -27 11z m250 -68 c0 -20 5 -25 25
-25 18 0 25 -5 25 -20 0 -15 -7 -20 -25 -20 -20 0 -25 -5 -25 -24 0 -19 -4
-23 -20 -19 -11 3 -20 14 -20 24 0 12 -7 19 -20 19 -13 0 -20 7 -20 20 0 13 7
20 20 20 15 0 20 7 20 25 0 18 5 25 20 25 15 0 20 -7 20 -25z"/>
<path d="M3562 2215 c4 -4 3 -14 -3 -22 -9 -10 -8 -13 5 -13 19 0 22 26 4 36
-7 4 -10 4 -6 -1z"/>
<path d="M2031 2161 c-22 -41 -32 -73 -19 -65 7 5 8 3 3 -5 -5 -9 -10 -10 -18
-2 -15 15 -30 14 -24 -1 3 -12 -43 -48 -62 -48 -5 0 -11 15 -13 33 -3 29 -1
33 15 29 13 -3 15 -7 7 -12 -7 -4 0 -7 15 -7 22 0 24 2 12 8 -8 5 -25 25 -37
44 -20 32 -23 33 -48 23 -15 -7 -31 -15 -37 -20 -13 -12 10 -32 26 -22 9 5 8
9 -7 15 -13 5 -14 8 -4 8 8 0 22 -4 30 -9 10 -6 11 -10 3 -10 -7 0 -13 -5 -13
-11 0 -5 4 -8 9 -5 5 3 12 -1 15 -9 4 -13 2 -13 -14 -5 -29 15 -40 12 -40 -12
0 -12 -12 -32 -27 -43 l-26 -22 -38 21 -38 21 -26 -25 -25 -25 26 -37 c24 -34
26 -40 14 -68 -11 -27 -17 -30 -57 -30 -27 0 -42 -4 -38 -10 3 -5 1 -10 -4
-10 -6 0 -11 -13 -11 -29 0 -22 7 -31 28 -40 38 -16 85 -23 78 -13 -3 5 -23
12 -45 16 -42 6 -59 20 -40 32 8 5 9 3 4 -6 -5 -8 -3 -11 5 -8 7 2 15 15 17
28 3 19 1 22 -9 12 -6 -6 -17 -12 -22 -12 -6 0 -1 7 10 15 12 8 37 13 57 11
43 -4 62 13 53 48 -4 15 -1 28 6 32 7 4 10 4 6 0 -4 -5 -3 -18 2 -31 6 -15 4
-27 -3 -34 -9 -9 -9 -14 2 -20 19 -12 28 -140 10 -151 -7 -5 -10 -12 -6 -17 5
-4 12 -1 17 7 6 9 10 10 10 3 0 -6 3 -19 6 -28 6 -13 3 -14 -19 -4 -21 9 -26
20 -31 68 -4 31 -4 71 0 89 4 22 3 32 -5 32 -7 0 -9 -4 -6 -10 3 -5 1 -10 -4
-10 -6 0 -11 4 -11 9 0 12 -20 9 -45 -8 -19 -12 -19 -12 3 -8 12 3 22 1 22 -4
0 -5 7 -9 16 -9 11 0 14 -8 12 -27 -2 -20 -8 -28 -20 -27 -14 1 -18 -6 -18
-31 0 -27 -6 -37 -35 -54 -38 -22 -40 -27 -25 -66 10 -25 13 -27 54 -21 40 6
45 4 64 -21 20 -28 20 -28 0 -66 l-19 -39 22 -24 c28 -30 31 -30 67 1 26 22
33 23 61 14 17 -6 31 -14 31 -17 1 -14 12 -87 14 -88 0 -1 15 -4 32 -7 29 -6
33 -3 49 33 21 47 71 66 92 34 36 -55 39 -57 72 -49 31 7 32 8 29 53 -3 42 0
49 27 68 l30 21 34 -23 35 -24 23 22 c29 27 29 39 -2 77 -25 29 -25 31 -10 61
14 26 21 30 59 30 37 0 45 4 50 23 12 46 7 56 -34 68 -29 9 -40 18 -40 32 0
46 -23 94 -49 104 -23 10 -24 11 -5 12 12 1 27 -6 34 -14 10 -12 14 -12 26 0
18 18 19 42 2 27 -9 -6 -21 -6 -38 1 -22 9 -23 11 -6 15 10 2 22 -2 27 -10 8
-11 12 -6 11 12 0 3 7 6 17 6 12 0 16 -7 14 -21 -5 -26 11 -50 27 -40 10 6 9
10 -4 17 -9 5 -16 14 -16 21 0 7 4 6 10 -3 9 -13 10 -13 10 0 0 33 -16 43 -61
36 -41 -6 -45 -4 -60 22 -15 27 -15 31 3 66 l20 38 -23 24 c-28 30 -33 30 -74
-2 -32 -24 -35 -25 -64 -9 -28 14 -31 20 -31 60 0 38 -3 45 -19 45 -11 0 -26
3 -34 6 -9 3 -20 -2 -26 -15z m69 -12 c0 -6 -6 -9 -14 -6 -8 3 -27 -4 -43 -16
-25 -19 -26 -19 -13 -2 8 11 20 23 25 27 15 12 45 9 45 -3z m-205 -10 c11 -16
1 -19 -13 -3 -7 8 -8 14 -3 14 5 0 13 -5 16 -11z m181 -14 c-3 -8 1 -18 8 -22
16 -10 30 -63 16 -63 -5 0 -11 5 -11 10 -5 35 -20 59 -35 53 -8 -3 -14 -9 -14
-14 0 -4 7 -6 15 -3 9 4 15 0 15 -10 0 -9 -3 -16 -7 -17 -5 0 -16 -2 -25 -4
-31 -6 -30 13 3 49 33 38 45 45 35 21z m153 -52 c-4 -26 3 -35 11 -15 8 20 12
21 30 10 16 -11 17 -14 5 -21 -9 -4 -12 -13 -9 -19 5 -7 2 -8 -7 -2 -22 13
-41 14 -36 1 2 -7 10 -12 17 -12 22 0 20 -31 -2 -32 -13 -1 -18 3 -14 12 3 8
1 17 -5 20 -19 12 -21 -26 -3 -47 19 -21 19 -21 -4 -9 -14 8 -28 9 -35 3 -8
-5 -25 -2 -47 9 -39 20 -36 25 5 9 19 -7 24 -7 19 2 -5 7 -1 9 13 6 12 -3 20
0 20 8 0 7 -4 11 -8 8 -4 -2 -9 0 -11 4 -1 5 -16 12 -33 15 -16 3 -24 4 -17 1
13 -6 7 -24 -9 -24 -6 0 -7 5 -4 10 3 6 1 10 -5 10 -7 0 -9 -7 -6 -16 5 -13 1
-14 -27 -9 -35 8 -43 12 -35 20 7 7 62 16 110 19 24 1 46 10 60 24 24 24 29
26 27 15z m-355 -43 c11 2 26 -20 26 -37 0 -7 -5 -13 -11 -13 -5 0 -7 5 -3 11
4 7 1 10 -7 7 -8 -3 -21 -1 -31 3 -11 6 -18 4 -22 -7 -5 -12 -1 -14 17 -9 17
6 20 5 10 -5 -10 -10 -18 -10 -43 0 -17 7 -33 10 -36 7 -3 -3 4 -8 16 -12 12
-4 19 -12 16 -20 -3 -8 0 -15 6 -17 7 -3 5 -9 -4 -18 -8 -8 -19 -24 -26 -35
-6 -11 -12 -14 -12 -7 0 7 -4 11 -9 7 -9 -5 -24 24 -26 50 0 6 -6 9 -12 8 -6
-1 -19 8 -29 20 -11 12 -12 17 -4 11 22 -16 49 -14 43 4 -4 10 -8 11 -13 2 -5
-9 -9 -9 -14 -1 -4 6 -2 11 4 11 6 0 8 5 4 12 -6 9 -9 9 -12 0 -5 -16 -31 -16
-28 1 1 6 5 13 10 14 5 1 13 7 17 15 7 10 9 9 9 -5 0 -14 5 -16 25 -11 15 4
25 2 25 -5 0 -6 -7 -8 -15 -5 -8 4 -15 1 -15 -5 0 -6 4 -11 9 -11 4 0 8 -10 7
-22 -1 -13 5 -29 14 -36 8 -8 9 -11 3 -7 -8 4 -13 0 -13 -9 0 -18 2 -19 25
-10 13 5 14 10 3 28 -7 11 -13 28 -13 37 0 23 31 50 49 43 11 -4 16 -1 16 11
0 9 5 13 10 10 6 -3 10 2 11 12 0 17 1 17 8 0 4 -10 11 -18 15 -17z m91 -22
c3 -3 -6 -8 -20 -10 -23 -5 -32 2 -19 14 6 7 31 4 39 -4z m185 -8 c0 -5 -4
-10 -10 -10 -5 0 -10 5 -10 10 0 6 5 10 10 10 6 0 10 -4 10 -10z m-62 -26 c47
-19 98 -68 125 -119 59 -111 -3 -268 -125 -319 -43 -18 -140 -21 -169 -5 -11
6 -25 8 -32 6 -7 -3 -1 -9 13 -15 22 -9 22 -11 5 -12 -15 -1 -13 -4 11 -14 18
-8 59 -13 99 -11 58 2 65 0 50 -11 -10 -7 -22 -11 -27 -8 -4 3 -34 6 -65 7
-48 2 -58 -1 -61 -15 -2 -10 2 -18 8 -18 6 0 8 5 5 10 -9 15 17 11 39 -5 10
-8 24 -11 30 -8 6 4 4 -2 -4 -13 -22 -29 -24 -30 -17 -11 4 9 2 17 -3 17 -6 0
-10 -8 -11 -17 0 -11 -3 -13 -6 -5 -2 6 -9 12 -14 12 -4 0 -6 -7 -3 -15 4 -8
12 -15 20 -15 8 0 11 -6 7 -15 -3 -9 -8 -13 -11 -11 -3 3 -11 1 -19 -6 -11 -9
-13 -5 -8 23 3 18 3 31 0 28 -3 -4 -8 -17 -10 -29 -6 -32 -14 -37 -13 -9 1 13
9 32 17 43 15 17 14 18 -4 15 -14 -3 -20 2 -20 15 0 11 -6 21 -14 24 -8 3 -11
0 -7 -7 9 -14 5 -14 -30 -1 -19 8 -30 7 -42 -2 -13 -11 -14 -10 -7 12 7 22 6
23 -8 12 -9 -7 -14 -22 -12 -33 2 -11 0 -17 -5 -14 -9 6 -6 37 5 55 3 6 14 10
24 10 10 0 21 9 24 20 3 11 0 18 -7 17 -6 -1 -9 7 -8 17 3 17 2 18 -12 7 -14
-12 -16 -10 -16 8 0 18 3 20 19 12 10 -6 21 -7 25 -3 4 3 4 -1 1 -10 -4 -11 0
-18 14 -23 12 -3 21 -10 21 -15 0 -5 -7 -7 -15 -4 -8 4 -15 1 -15 -5 0 -6 14
-11 31 -11 24 0 29 3 21 13 -6 6 -11 15 -11 20 -1 4 -4 7 -7 6 -3 0 -20 18
-37 40 -27 35 -33 39 -46 27 -20 -16 -42 -10 -34 10 4 11 9 12 18 4 21 -18 26
5 10 44 -43 102 10 237 113 291 56 29 143 33 200 9z m-228 -14 c-27 -21 -40
-25 -40 -12 0 8 38 29 55 31 6 0 -1 -8 -15 -19z m420 -32 c0 -15 -27 -38 -46
-38 -16 0 -16 -2 1 -20 14 -15 15 -19 4 -15 -20 8 -52 62 -44 75 11 17 26 0
20 -23 -2 -12 -2 -16 1 -9 3 6 10 10 14 7 5 -3 12 0 16 6 5 8 3 9 -7 4 -8 -5
-7 0 3 11 14 16 15 23 5 34 -6 8 -2 6 11 -4 12 -11 22 -23 22 -28z m-578 -50
c-8 -8 -9 -4 -5 13 4 13 8 18 11 10 2 -7 -1 -18 -6 -23z m68 -27 c0 -12 -20
-36 -20 -24 0 6 -3 19 -6 27 -5 12 -2 15 10 10 9 -3 16 -9 16 -13z m547 -52
c6 -28 7 -47 3 -42 -5 4 -10 19 -12 33 -3 15 -8 0 -13 -38 -4 -34 -12 -65 -17
-68 -8 -5 -6 23 8 115 4 22 1 37 -8 42 -9 6 -7 9 8 9 18 0 23 -9 31 -51z m-54
-43 c-5 -65 -3 -77 16 -104 11 -17 21 -34 21 -39 0 -4 -5 -1 -11 7 -8 12 -9
10 -7 -10 2 -16 -2 -24 -9 -22 -7 1 -13 -5 -13 -14 0 -10 6 -14 15 -10 15 5
33 -19 40 -55 3 -13 0 -17 -8 -12 -7 4 -19 6 -28 5 -9 -2 -16 3 -17 10 -8 69
-8 96 -1 111 7 11 5 25 -3 40 -11 20 -12 141 -1 160 11 18 12 2 6 -67z m73
-32 c-5 -14 -1 -16 22 -11 31 6 62 -6 43 -17 -6 -4 -11 -12 -11 -17 0 -6 4 -7
10 -4 6 3 7 -1 4 -9 -4 -10 -17 -16 -33 -15 l-26 1 25 8 c24 8 24 8 3 9 -13 1
-23 5 -23 11 0 5 7 6 17 3 11 -4 14 -3 9 5 -11 18 -34 14 -46 -8 -8 -15 -8
-20 2 -21 7 0 4 -4 -7 -9 -29 -11 -34 -1 -24 45 l8 40 -4 -45 c-3 -42 -3 -44
10 -20 7 14 11 28 8 33 -6 9 4 37 13 37 3 0 3 -7 0 -16z m-626 -21 c0 -22 -2
-25 -10 -13 -13 20 -13 40 0 40 6 0 10 -12 10 -27z m-27 -28 c-3 -8 0 -15 6
-15 6 0 11 -4 11 -10 0 -5 -6 -10 -14 -10 -20 0 -29 -17 -15 -26 8 -4 9 -3 5
4 -4 7 -3 12 3 12 5 0 13 -5 16 -10 4 -6 11 -7 17 -4 7 4 8 2 4 -4 -9 -15 -56
-16 -56 -2 0 6 -4 10 -10 10 -5 0 -8 -6 -6 -12 1 -7 1 -10 -1 -5 -3 4 -9 7
-14 7 -6 0 -7 -4 -4 -10 3 -5 1 -10 -4 -10 -18 0 -12 38 7 49 10 6 12 11 4 11
-7 0 -10 5 -6 11 4 8 9 7 15 -2 5 -8 9 -11 10 -6 1 4 2 10 3 15 1 4 5 13 9 20
11 16 28 6 20 -13z m567 -9 c0 -2 3 -13 7 -23 6 -16 5 -17 -12 -3 -17 14 -18
13 -12 -2 3 -10 2 -18 -3 -18 -6 0 -10 -8 -10 -18 0 -10 -7 -28 -16 -40 -8
-12 -11 -22 -7 -22 5 0 17 12 27 28 10 15 15 19 10 7 -4 -11 -7 -28 -8 -37 0
-9 -4 -14 -9 -11 -4 2 -15 -1 -23 -8 -12 -10 -13 -9 -8 5 5 12 0 16 -19 16
-14 0 -29 -4 -32 -10 -4 -6 1 -7 11 -3 11 4 15 3 10 -5 -3 -6 -2 -13 4 -17 6
-4 8 -11 5 -16 -11 -17 12 -9 30 11 10 11 20 18 23 15 8 -8 -42 -44 -60 -45
-10 0 -18 -7 -18 -15 0 -20 -10 -19 -26 3 -12 15 -13 15 -14 1 0 -18 26 -33
41 -23 19 11 20 -26 2 -50 l-19 -24 -12 30 c-9 26 -9 28 4 17 12 -10 17 -9 27
1 10 10 9 12 -5 7 -10 -4 -18 -3 -18 1 0 7 -48 32 -63 32 -4 0 -5 -5 -2 -10 4
-6 10 -8 14 -6 9 6 47 -62 39 -69 -3 -3 -11 8 -18 24 -12 30 -41 47 -70 43
-13 -2 -13 -1 -1 7 12 7 9 10 -10 14 -16 3 -14 3 6 2 39 -3 75 11 75 29 0 8 5
18 12 22 7 5 8 3 3 -6 -6 -9 -4 -11 4 -6 7 5 10 14 7 21 -2 7 8 18 22 25 52
24 56 27 60 41 2 9 -1 8 -11 -3 -8 -10 -20 -18 -28 -18 -7 0 -2 8 11 17 14 10
28 17 31 16 3 -1 11 16 18 37 6 22 16 40 21 40 6 0 10 -2 10 -4z m-439 -73
c13 -16 12 -17 -4 -4 -16 12 -20 12 -34 -2 -14 -14 -13 -18 11 -42 31 -31 31
-32 -9 -37 -30 -3 -45 -14 -45 -33 0 -5 4 -3 10 5 5 8 12 11 17 7 4 -5 3 -11
-2 -15 -16 -11 -17 -34 -3 -43 7 -5 8 -9 2 -9 -6 0 -19 9 -29 20 -18 20 -18
21 1 14 17 -7 17 -6 6 8 -17 21 1 60 23 52 22 -9 18 2 -15 40 -24 27 -27 35
-15 40 8 3 21 3 29 0 8 -3 17 -1 21 5 9 16 21 14 36 -6z m443 -68 c3 -8 0 -15
-7 -16 -7 0 2 -7 18 -14 17 -8 23 -14 15 -14 -24 -1 -45 17 -46 39 -1 23 11
27 20 5z m-281 -22 c-7 -2 -21 -2 -30 0 -10 3 -4 5 12 5 17 0 24 -2 18 -5z
m77 -3 c-19 -13 -30 -13 -30 0 0 6 10 10 23 10 18 0 19 -2 7 -10z"/>
<path d="M2250 2054 c0 -8 5 -12 10 -9 6 4 8 11 5 16 -9 14 -15 11 -15 -7z"/>
<path d="M2191 2039 c-13 -10 -18 -19 -12 -19 6 0 13 0 16 0 3 0 5 3 4 6 0 4
5 10 12 15 8 4 11 10 9 13 -3 2 -16 -4 -29 -15z"/>
<path d="M1800 2000 c0 -5 5 -10 11 -10 5 0 7 5 4 10 -3 6 -8 10 -11 10 -2 0
-4 -4 -4 -10z"/>
<path d="M1778 1964 c-4 -5 0 -18 8 -29 15 -20 17 -12 5 19 -4 11 -10 15 -13
10z"/>
<path d="M2090 1924 c0 -5 9 -17 20 -27 11 -9 20 -13 20 -8 0 4 -9 16 -20 26
-11 10 -20 14 -20 9z"/>
<path d="M1918 1853 c-52 -54 -51 -49 -49 -161 l1 -83 113 3 112 3 3 105 c2
77 0 102 -8 94 -7 -7 -10 -45 -8 -103 l3 -92 -103 2 -103 1 3 92 3 91 40 5
c39 5 40 6 39 42 0 35 0 36 32 31 18 -3 34 0 38 6 5 7 -6 11 -31 11 -33 0 -46
-7 -85 -47z m39 -5 c1 -18 -1 -25 -4 -15 -2 9 -9 14 -15 11 -6 -4 -5 2 1 15
15 28 17 27 18 -11z"/>
<path d="M2050 1875 c-21 -22 -21 -25 -6 -40 17 -17 41 -11 30 7 -4 6 -2 8 3
5 6 -4 16 0 23 8 9 11 7 13 -12 11 -13 -1 -30 -6 -38 -11 -13 -7 -13 -6 -2 7
8 9 20 14 28 11 8 -3 14 0 14 5 0 22 -18 21 -40 -3z"/>
<path d="M2004 1806 c-8 -21 -4 -25 19 -17 17 6 17 8 3 20 -13 11 -17 11 -22
-3z"/>
<path d="M1948 1713 c12 -2 32 -2 45 0 12 2 2 4 -23 4 -25 0 -35 -2 -22 -4z"/>
<path d="M1930 1668 c0 -5 28 -7 63 -7 67 1 60 6 -15 11 -27 2 -48 0 -48 -4z"/>
<path d="M1825 1490 c-8 -12 -9 -12 40 -15 49 -2 69 7 35 16 -38 11 -68 10
-75 -1z"/>
<path d="M1940 1440 c0 -5 5 -10 11 -10 5 0 7 5 4 10 -3 6 -8 10 -11 10 -2 0
-4 -4 -4 -10z"/>
<path d="M2275 1550 c-3 -5 -2 -17 3 -26 8 -15 10 -15 15 0 5 12 3 15 -5 10
-8 -5 -9 -2 -5 9 7 19 2 23 -8 7z"/>
<path d="M1641 1640 c-13 -11 -19 -20 -13 -20 5 0 20 9 33 20 13 10 20 19 14
19 -5 0 -21 -9 -34 -19z"/>
<path d="M2125 1489 c-11 -17 1 -21 15 -4 8 9 8 15 2 15 -6 0 -14 -5 -17 -11z"/>
<path d="M1736 1577 c3 -10 9 -15 12 -12 3 3 0 11 -7 18 -10 9 -11 8 -5 -6z"/>
<path d="M1766 1535 c4 -8 11 -15 16 -15 6 0 5 6 -2 15 -7 8 -14 15 -16 15 -2
0 -1 -7 2 -15z"/>
<path d="M3710 2095 c-7 -8 -8 -15 -2 -15 5 0 15 7 22 15 7 8 8 15 2 15 -5 0
-15 -7 -22 -15z"/>
<path d="M3998 2103 c7 -3 16 -2 19 1 4 3 -2 6 -13 5 -11 0 -14 -3 -6 -6z"/>
<path d="M3870 2079 c0 -17 3 -19 13 -10 8 6 17 8 20 4 14 -13 6 -23 -18 -23
-16 0 -25 -6 -25 -15 0 -8 -5 -15 -11 -15 -5 0 -8 4 -5 8 3 5 -1 9 -9 9 -20 0
-19 -13 2 -21 15 -6 15 -8 1 -23 -9 -9 -24 -13 -32 -10 -18 7 -22 27 -5 27 5
0 7 -4 4 -10 -3 -5 -1 -10 5 -10 15 0 2 42 -18 58 -9 6 -21 12 -26 12 -7 0 -6
-3 1 -8 6 -4 13 -23 15 -42 3 -31 7 -35 35 -38 28 -3 32 1 43 33 11 34 15 36
48 34 21 -2 42 -6 47 -10 6 -4 16 -1 23 7 14 15 11 16 -35 17 -21 0 -25 4 -22
23 1 9 -23 24 -38 24 -7 0 -13 -10 -13 -21z"/>
<path d="M3680 2080 c-1 -8 -2 -19 -1 -23 1 -4 -9 -2 -21 4 -20 10 -21 10 -11
-2 6 -8 11 -18 11 -24 1 -19 19 -15 43 11 17 20 19 25 7 21 -11 -4 -18 0 -21
11 -4 13 -5 14 -7 2z"/>
<path d="M3870 1970 c0 -5 8 -6 18 -3 15 6 15 4 4 -9 -11 -14 -10 -18 6 -27
14 -7 19 -7 19 4 0 7 -7 11 -16 8 -10 -3 -6 4 8 16 l23 21 -31 0 c-17 0 -31
-4 -31 -10z"/>
<path d="M3938 1947 c-3 -19 -2 -25 4 -19 6 6 8 18 6 28 -3 14 -5 12 -10 -9z"/>
<path d="M3713 1945 c0 -8 4 -12 8 -9 4 2 17 -9 29 -26 12 -16 30 -30 41 -30
10 0 19 -5 19 -10 0 -19 48 34 54 60 5 22 4 22 -7 -3 -8 -16 -19 -32 -26 -36
-23 -15 -60 1 -83 35 -25 37 -35 42 -35 19z"/>
<path d="M3669 1940 c-14 -8 -15 -18 -8 -56 5 -26 8 -48 7 -49 -2 0 -15 -9
-30 -18 -25 -16 -30 -16 -62 -1 -40 20 -62 14 -77 -20 -10 -21 -8 -29 15 -57
19 -22 25 -37 20 -53 -14 -43 -14 -50 -1 -22 10 20 16 24 19 15 3 -8 5 0 4 18
0 17 -4 29 -8 27 -3 -2 -9 0 -13 6 -3 5 0 10 7 10 10 0 9 3 -2 9 -8 6 -18 7
-22 5 -4 -3 -8 -1 -8 5 0 5 3 11 8 14 4 2 1 2 -7 0 -9 -2 -11 2 -7 13 3 8 6
18 6 20 0 3 5 2 12 -2 7 -4 8 -3 4 4 -5 8 1 12 15 12 19 0 20 -2 8 -17 -12
-16 -12 -17 2 -5 19 14 52 5 42 -12 -4 -6 5 -3 20 7 15 10 33 15 40 11 7 -4 9
-4 5 1 -4 4 -1 13 7 19 12 9 14 20 6 59 -7 40 -6 47 6 43 8 -3 12 -2 8 3 -3 5
1 12 7 14 7 3 9 6 3 6 -5 0 -17 -4 -26 -9z"/>
<path d="M3950 1897 c0 -14 5 -29 10 -32 7 -4 8 3 4 22 -9 38 -14 42 -14 10z"/>
<path d="M4071 1897 c-8 -10 -7 -14 4 -14 8 0 12 4 9 9 -3 4 2 8 10 8 9 0 15
-5 14 -12 -2 -7 3 -13 10 -14 26 -3 27 -5 12 -14 -13 -8 -12 -10 3 -10 24 0
21 18 -5 41 -27 22 -42 24 -57 6z"/>
<path d="M5270 1880 c8 -5 20 -10 25 -10 6 0 3 5 -5 10 -8 5 -19 10 -25 10 -5
0 -3 -5 5 -10z"/>
<path d="M791 1872 c20 -6 26 -13 25 -34 -1 -16 2 -28 7 -28 4 0 7 15 5 33 -3
28 -7 32 -33 34 -29 1 -29 1 -4 -5z"/>
<path d="M623 1863 c-7 -2 -13 -22 -13 -42 0 -29 -5 -40 -24 -50 -13 -8 -30
-10 -38 -6 -7 3 -5 0 4 -8 22 -17 12 -30 -13 -16 -14 7 -17 6 -13 -4 3 -8 13
-14 22 -13 9 0 17 -3 17 -9 0 -5 -8 -9 -19 -7 -13 1 -16 -2 -12 -13 3 -8 1
-15 -4 -15 -6 0 -10 7 -10 15 0 26 -1 30 -16 46 -12 14 -12 18 -1 27 8 7 18 8
22 4 5 -4 5 -1 1 6 -6 11 -13 9 -31 -8 l-24 -22 21 -29 c18 -24 20 -33 10 -54
-9 -20 -19 -25 -46 -25 -28 0 -34 -4 -39 -26 -4 -22 0 -28 29 -40 46 -19 48
-62 4 -87 -24 -15 -28 -21 -21 -40 6 -17 17 -22 44 -23 25 0 42 -8 56 -25 18
-22 19 -22 17 -4 -2 11 1 23 6 26 5 3 2 9 -7 12 -9 4 -13 3 -10 -3 3 -6 2 -10
-4 -10 -5 0 -13 5 -16 10 -4 6 -21 8 -39 4 -28 -5 -34 -2 -39 15 -3 12 1 22
10 25 21 9 25 7 17 -6 -4 -7 -3 -8 5 -4 6 4 9 12 6 17 -4 5 -1 9 4 9 6 0 11
17 11 39 0 34 -4 40 -30 51 -26 11 -28 15 -18 28 10 12 10 14 1 8 -8 -4 -13
-2 -13 4 0 6 10 11 23 10 38 -3 45 -1 51 18 4 10 13 19 21 19 18 0 19 -8 3
-27 -7 -8 -3 -6 10 4 25 22 38 16 24 -11 -11 -21 -24 -83 -17 -83 2 0 9 19 16
43 14 54 50 102 97 128 20 11 29 18 20 15 -10 -3 -28 -1 -40 4 -13 5 -17 10
-10 11 6 1 16 2 21 3 5 0 13 4 17 8 3 4 -4 5 -17 3 -12 -3 -30 -12 -38 -20 -9
-9 -11 -15 -6 -14 6 1 19 1 29 0 23 -1 16 -11 -11 -15 -10 -2 -16 -5 -13 -8
11 -12 -32 -46 -50 -41 -23 6 -16 25 7 21 18 -3 27 28 11 38 -5 4 0 16 13 30
12 13 25 21 29 19 4 -3 14 3 21 13 13 15 12 16 -3 3 -16 -12 -18 -10 -18 23 0
23 4 35 10 31 6 -4 7 -11 4 -17 -4 -7 -2 -8 4 -4 6 4 18 -6 27 -24 8 -16 18
-30 21 -30 2 0 -2 14 -11 30 -9 17 -11 30 -6 30 5 0 11 -6 14 -14 4 -9 15 -12
33 -8 16 3 25 1 21 -5 -3 -5 0 -10 8 -10 8 0 12 4 10 8 -8 11 6 40 16 33 5 -3
6 3 2 12 -6 16 -8 15 -16 -4 -14 -31 -60 -30 -81 3 -16 24 -28 29 -53 18z m42
-12 c10 -17 -12 -21 -25 -6 -10 12 -10 15 3 15 9 0 18 -4 22 -9z"/>
<path d="M2346 1851 c-20 -22 -7 -36 17 -18 10 7 13 17 9 25 -7 10 -13 8 -26
-7z"/>
<path d="M3769 1853 c-13 -16 -12 -17 4 -4 16 13 21 21 13 21 -2 0 -10 -8 -17
-17z"/>
<path d="M3985 1860 c3 -5 11 -10 16 -10 6 0 7 5 4 10 -3 6 -11 10 -16 10 -6
0 -7 -4 -4 -10z"/>
<path d="M4030 1860 c-9 -6 -10 -10 -3 -10 6 0 15 5 18 10 8 12 4 12 -15 0z"/>
<path d="M5312 1863 c0 -5 -2 -16 -6 -25 -4 -9 -2 -27 5 -40 7 -13 13 -26 14
-30 0 -3 3 -9 7 -13 4 -4 5 16 4 44 -2 32 1 51 8 51 6 0 4 5 -4 10 -18 12 -31
13 -28 3z m5 -45 c-3 -8 -6 -5 -6 6 -1 11 2 17 5 13 3 -3 4 -12 1 -19z"/>
<path d="M4116 1812 c-13 -25 -12 -29 10 -55 13 -16 21 -34 17 -43 -5 -13 -8
-13 -15 -2 -7 10 -8 9 -4 -4 3 -10 1 -18 -5 -18 -6 0 -7 -5 -3 -11 5 -8 10 -6
16 5 5 9 13 14 19 11 5 -3 6 1 3 9 -4 12 0 16 17 17 19 1 20 2 5 6 -25 7 -66
56 -57 68 11 13 21 45 16 45 -2 0 -11 -12 -19 -28z"/>
<path d="M4764 1788 c-18 -51 -21 -53 -59 -56 -38 -3 -43 0 -73 43 l-32 45
-43 -21 -44 -21 8 -42 c12 -63 11 -69 -23 -93 l-31 -22 -47 24 -47 24 -20 -22
c-46 -53 -46 -52 -8 -97 19 -23 35 -43 35 -45 0 -1 -7 -18 -15 -37 -13 -33
-18 -36 -65 -40 -28 -3 -53 -8 -57 -12 -3 -3 -7 -25 -7 -48 -1 -40 1 -43 39
-58 60 -23 65 -28 65 -68 -1 -32 -7 -41 -40 -64 -44 -30 -48 -44 -25 -88 16
-32 28 -35 87 -21 35 8 39 7 62 -24 l25 -33 -24 -48 -24 -49 32 -27 c18 -15
37 -28 42 -28 6 0 28 14 48 31 37 30 40 31 77 19 37 -12 38 -14 42 -66 3 -30
7 -56 9 -58 2 -2 24 -6 49 -7 l45 -4 18 52 c17 47 22 51 55 56 30 4 40 0 55
-18 10 -13 26 -34 36 -46 l19 -23 41 18 c43 20 46 27 32 88 -7 31 -5 40 13 56
35 32 42 33 87 12 58 -26 60 -26 88 15 26 38 28 30 -25 102 -13 19 -14 27 -3
57 12 32 16 35 69 41 l58 7 6 45 c3 26 5 47 4 48 -2 1 -25 10 -53 21 -45 18
-51 24 -56 58 -6 35 -4 39 38 68 23 17 43 35 43 40 0 5 -7 25 -15 45 l-15 36
-58 -7 c-56 -6 -59 -5 -80 23 l-22 30 20 46 c11 26 20 51 20 55 0 5 -16 20
-36 34 l-37 25 -43 -35 c-41 -34 -43 -35 -77 -20 -33 13 -36 18 -42 69 -7 51
-9 55 -37 61 -59 12 -65 9 -84 -46z m132 -221 c101 -51 158 -146 158 -262 0
-118 -66 -220 -173 -268 -71 -32 -170 -29 -243 6 -134 65 -199 219 -153 358
24 73 112 161 181 183 70 23 166 16 230 -17z"/>
<path d="M4808 1539 c-13 -7 -18 -23 -18 -59 0 -39 -5 -54 -25 -74 -24 -24
-25 -30 -25 -149 0 -82 4 -127 12 -135 8 -8 46 -12 104 -12 124 0 124 0 124
141 0 108 -8 145 -36 162 -9 5 -14 27 -14 62 0 30 -5 57 -11 61 -19 12 -93 14
-111 3z m116 -150 c15 -12 26 -30 26 -45 0 -24 -1 -24 -95 -24 -54 0 -95 4
-95 10 0 21 24 59 44 68 36 18 91 14 120 -9z m26 -223 c0 -30 -16 -36 -95 -36
-44 0 -68 5 -79 16 -36 35 -19 44 86 44 86 0 88 0 88 -24z"/>
<path d="M4557 1443 c-13 -12 -8 -308 5 -321 7 -7 41 -12 84 -12 68 0 72 1 67
20 -3 11 -14 25 -24 31 -23 12 -25 47 -4 55 8 4 15 12 15 19 0 7 -7 15 -15 19
-20 7 -19 35 2 59 17 18 17 19 0 28 -9 6 -17 18 -17 28 0 21 27 48 37 37 7 -7
43 22 43 36 0 9 -184 11 -193 1z m71 -45 c18 -18 14 -46 -7 -58 -34 -18 -67
30 -39 58 7 7 17 12 23 12 6 0 16 -5 23 -12z m10 -121 c-2 -17 -10 -22 -33
-22 -35 0 -47 31 -20 51 25 18 57 0 53 -29z m2 -87 c0 -25 -30 -41 -53 -29
-39 22 -4 79 35 58 10 -5 18 -18 18 -29z"/>
<path d="M900 1801 c-17 -14 -29 -17 -42 -10 -23 12 -25 12 -30 -9 -4 -12 1
-18 13 -18 10 0 16 4 13 8 -6 10 38 6 53 -4 7 -6 14 -4 19 3 4 8 3 9 -4 5 -7
-4 -12 -1 -12 7 0 9 9 13 26 11 26 -2 47 -14 26 -14 -7 0 -12 -7 -12 -16 0 -8
-3 -13 -7 -11 -5 3 -8 -10 -9 -28 0 -19 3 -32 7 -29 5 3 14 -4 20 -14 10 -17
17 -18 41 -10 31 11 53 3 24 -8 -15 -6 -15 -7 1 -21 17 -13 17 -14 -3 -8 -24
6 -63 -28 -44 -40 6 -4 14 -4 17 -1 4 3 1 6 -7 6 -10 0 -10 3 0 15 15 18 35
20 24 3 -5 -7 -2 -8 7 -3 30 17 38 28 32 39 -4 6 -8 16 -8 21 0 6 -17 10 -37
9 -29 -1 -39 4 -49 23 -11 21 -11 29 3 54 16 28 16 29 -5 44 -27 19 -27 19
-57 -4z"/>
<path d="M1635 1800 c-3 -5 1 -10 9 -10 9 0 16 5 16 10 0 6 -4 10 -9 10 -6 0
-13 -4 -16 -10z"/>
<path d="M1724 1796 c-3 -7 -1 -29 4 -47 l10 -34 1 48 c1 47 -5 60 -15 33z"/>
<path d="M3797 1797 c3 -5 -4 -7 -15 -5 -11 2 -31 -7 -45 -20 -14 -13 -33 -25
-43 -26 -11 -2 -19 -7 -19 -12 0 -5 -10 -23 -23 -41 -37 -52 -52 -99 -51 -155
l2 -53 7 66 c13 136 95 218 235 238 l50 7 -52 5 c-28 2 -49 0 -46 -4z"/>
<path d="M3920 1790 c-18 -6 -20 -8 -7 -9 10 -1 31 -8 47 -16 19 -10 31 -11
35 -5 4 6 3 9 -2 8 -4 -1 -19 2 -32 6 -18 6 -21 10 -10 17 17 10 3 10 -31 -1z"/>
<path d="M730 1776 c0 -2 7 -7 16 -10 8 -3 12 -2 9 4 -6 10 -25 14 -25 6z"/>
<path d="M800 1760 c0 -5 -24 -10 -52 -11 -60 -1 -55 -5 12 -12 39 -3 46 -1
47 14 1 11 0 19 -3 19 -2 0 -4 -4 -4 -10z"/>
<path d="M3565 1751 c-3 -5 -1 -12 5 -16 6 -4 7 -11 4 -17 -4 -7 -2 -8 5 -4 8
6 9 12 2 20 -6 7 -8 16 -4 19 3 4 4 7 0 7 -3 0 -8 -4 -12 -9z"/>
<path d="M855 1740 c-3 -6 1 -7 9 -4 18 7 21 14 7 14 -6 0 -13 -4 -16 -10z"/>
<path d="M3605 1730 c10 -11 20 -20 23 -20 3 0 -3 9 -13 20 -10 11 -20 20 -23
20 -3 0 3 -9 13 -20z"/>
<path d="M4034 1711 c42 -48 65 -96 67 -138 l1 -28 7 25 c4 15 2 35 -6 50 -7
14 -10 34 -7 45 4 16 3 17 -5 5 -9 -13 -12 -12 -17 8 -4 12 -11 22 -16 22 -5
0 -6 6 -2 13 4 6 3 9 -1 4 -5 -4 -20 3 -34 15 -14 13 -8 3 13 -21z"/>
<path d="M4074 1729 c-5 -8 -3 -9 6 -4 10 6 12 4 7 -8 -3 -9 -3 -18 1 -21 4
-3 8 4 9 14 2 23 -13 35 -23 19z"/>
<path d="M4223 1733 c30 -5 33 -12 15 -33 -11 -12 -10 -12 5 -1 14 11 17 11
17 1 0 -8 3 -11 6 -8 3 4 1 16 -6 27 -7 14 -20 21 -38 20 l-27 -2 28 -4z"/>
<path d="M871 1681 c54 -57 70 -112 49 -176 -14 -44 -62 -100 -101 -121 -61
-31 -150 -13 -213 45 -16 14 -26 20 -22 14 4 -7 2 -13 -3 -13 -6 0 -3 -8 7
-18 11 -12 20 -14 24 -8 4 6 8 8 9 4 1 -5 3 -12 4 -18 1 -5 3 -15 4 -22 1 -9
4 -9 13 0 13 13 32 16 24 4 -2 -4 28 -9 67 -11 39 -1 75 -5 79 -7 5 -3 7 0 6
7 -2 6 3 14 11 17 10 3 11 0 5 -9 -6 -12 -5 -12 9 0 10 8 16 16 13 18 -6 6 48
59 57 55 4 -2 7 0 6 5 -4 21 2 44 10 39 5 -3 8 4 8 17 -1 12 2 39 7 60 4 24 4
37 -2 33 -5 -3 -12 7 -15 22 -3 15 -25 47 -48 70 -60 59 -66 53 -8 -7z"/>
<path d="M5616 1715 c-3 -9 -6 -27 -6 -40 0 -18 -7 -25 -31 -30 -25 -6 -36 -2
-60 21 -26 24 -31 26 -55 15 -26 -12 -29 -30 -10 -81 3 -9 -5 -23 -20 -34 -22
-16 -32 -17 -60 -8 -32 10 -35 8 -49 -17 -13 -27 -12 -30 14 -55 18 -18 31
-24 35 -17 4 6 0 11 -9 11 -11 0 -15 5 -12 14 3 8 -1 17 -9 20 -8 3 -14 10
-14 16 0 6 5 8 10 5 6 -3 10 -1 10 4 0 6 7 11 16 11 9 0 12 -5 8 -12 -4 -7 -3
-8 4 -4 7 4 12 2 12 -3 0 -6 5 -11 11 -11 5 0 7 5 4 10 -3 6 0 10 9 10 8 0 25
13 39 29 14 17 28 27 31 23 4 -3 4 2 0 12 -5 12 -9 14 -14 6 -5 -7 -10 -1 -14
16 -6 21 -3 31 10 41 21 15 38 7 21 -11 -9 -10 -14 -11 -19 -2 -6 8 -8 8 -8
-1 0 -19 17 -24 30 -8 14 17 35 21 25 5 -4 -6 -3 -10 2 -9 20 3 27 -2 13 -11
-13 -8 -12 -10 3 -10 10 0 16 -4 13 -8 -3 -5 1 -9 9 -9 11 0 12 4 4 14 -9 10
-8 13 4 13 8 0 20 -7 27 -15 7 -8 18 -15 24 -15 6 0 0 10 -14 21 -14 11 -19
18 -11 14 16 -9 31 11 31 43 0 13 4 20 10 17 6 -3 13 1 16 9 7 18 34 22 34 5
0 -5 -4 -8 -9 -5 -5 3 -12 -1 -15 -10 -4 -9 -2 -13 5 -8 6 4 15 0 20 -7 12
-19 11 -32 -1 -24 -5 3 -10 2 -10 -4 0 -5 4 -12 9 -16 14 -8 22 26 13 60 -7
24 -14 31 -39 33 -21 2 -32 -2 -37 -13z"/>
<path d="M3803 1706 c21 -16 24 -104 5 -126 -11 -12 -10 -12 5 0 15 11 18 25
15 72 -3 51 -1 58 16 58 12 0 16 -5 12 -16 -3 -8 -2 -13 3 -10 5 3 11 -18 13
-47 4 -46 43 -135 55 -124 2 3 -6 22 -19 43 -13 22 -25 63 -28 96 -5 52 -4 57
12 52 10 -3 18 -1 18 5 0 7 -25 11 -62 11 -55 -1 -61 -2 -45 -14z"/>
<path d="M5782 1659 c-20 -24 -27 -27 -44 -18 -11 6 -22 8 -25 6 -2 -3 5 -8
16 -12 23 -7 27 -20 11 -30 -6 -4 -8 -11 -5 -16 4 -5 -1 -9 -9 -9 -10 0 -13 6
-10 18 5 14 4 14 -4 2 -6 -8 -8 -18 -6 -22 3 -4 -19 -7 -48 -7 -29 1 -66 -4
-81 -10 -16 -6 -33 -8 -39 -5 -6 4 -8 2 -4 -4 12 -20 -11 -22 -29 -2 -15 17
-15 20 -3 25 8 3 15 13 15 22 0 13 -2 13 -11 2 -6 -8 -20 -23 -31 -33 -17 -17
-17 -19 -2 -13 19 7 24 -8 5 -17 -7 -3 -3 -3 10 0 27 7 27 3 3 -24 -10 -12
-21 -18 -25 -15 -4 4 -4 -1 0 -11 5 -13 4 -17 -4 -12 -6 3 -13 2 -17 -4 -3 -5
-2 -10 4 -10 5 0 4 -12 -5 -27 -7 -16 -14 -38 -14 -51 0 -16 -4 -21 -12 -16
-7 4 -10 4 -6 -1 4 -4 3 -16 -3 -26 -6 -12 -6 -19 0 -19 5 0 12 8 14 18 3 10
5 5 6 -12 1 -39 22 -94 36 -100 7 -2 3 12 -7 32 -31 59 -22 154 20 214 88 127
286 115 360 -22 19 -37 23 -56 20 -111 -4 -77 -30 -123 -93 -167 -35 -24 -50
-27 -116 -27 -67 0 -80 3 -120 30 -49 33 -70 37 -76 15 -4 -12 -3 -12 5 -2 7
11 10 9 15 -7 3 -12 16 -25 29 -30 13 -6 16 -10 8 -11 -13 0 -13 -2 0 -9 20
-13 34 -2 19 15 -14 17 -10 17 28 1 26 -10 29 -15 22 -35 -5 -12 -13 -22 -19
-22 -6 0 -8 -4 -5 -10 3 -5 1 -10 -6 -10 -7 0 -21 -8 -31 -17 -10 -9 -28 -18
-39 -20 -17 -3 -19 1 -14 18 5 15 4 19 -4 15 -6 -4 -11 -3 -11 3 0 5 4 12 10
16 5 3 6 13 3 22 -5 12 -3 14 8 8 8 -4 -1 6 -18 23 -18 17 -29 32 -25 35 8 4
-8 0 -35 -9 -15 -5 -15 -3 1 10 11 9 14 16 8 16 -7 0 -12 7 -12 17 0 14 -2 14
-20 -2 -11 -10 -22 -16 -25 -13 -8 7 5 38 16 38 5 0 9 16 9 35 0 19 -4 35 -8
35 -11 0 -10 43 2 51 11 9 -56 5 -70 -4 -6 -3 -11 0 -11 8 0 8 4 12 9 9 4 -3
8 -1 8 5 0 6 8 8 18 4 13 -5 14 -3 6 6 -21 23 -49 9 -52 -26 -3 -28 0 -33 25
-38 49 -11 52 -14 59 -40 5 -21 0 -33 -22 -56 -25 -26 -26 -31 -14 -54 15 -27
26 -30 65 -15 21 8 29 6 47 -12 19 -19 20 -26 11 -60 -9 -34 -8 -40 11 -53 28
-20 35 -19 58 10 19 24 52 32 75 17 6 -4 15 -23 20 -42 8 -30 14 -35 41 -38
27 -3 32 0 37 25 11 49 14 52 40 59 21 5 33 0 55 -21 27 -25 32 -27 56 -16 23
10 26 16 19 44 -4 18 -8 38 -8 45 -2 16 80 65 88 52 3 -4 0 -10 -7 -12 -7 -3
-2 -7 10 -10 17 -5 27 0 39 18 15 24 15 26 -14 57 -26 27 -29 36 -21 59 7 19
19 29 46 35 32 7 37 13 40 40 3 28 0 33 -25 38 -49 11 -52 14 -59 40 -5 21 0
33 22 56 25 27 26 31 14 55 -12 22 -19 25 -45 20 -16 -4 -31 -11 -33 -16 -2
-5 -11 -6 -20 -3 -15 4 -15 3 -2 -6 12 -9 13 -11 1 -11 -8 0 -11 -3 -8 -6 4
-4 13 -2 21 5 11 9 15 8 20 -4 3 -8 13 -15 23 -15 16 -1 16 -2 3 -13 -14 -11
-22 -80 -9 -71 4 2 9 -4 11 -14 7 -24 4 -37 -5 -34 -5 1 -5 -2 -2 -8 5 -8 12
-7 23 2 28 23 57 17 57 -12 0 -18 -5 -25 -17 -24 -10 1 -18 -2 -18 -6 0 -5
-15 -12 -32 -16 -18 -4 -28 -9 -21 -11 8 -3 9 -12 3 -28 -6 -17 -5 -27 6 -36
12 -9 12 -15 2 -28 -12 -14 -11 -15 6 -1 18 14 19 13 14 -7 -5 -17 -2 -20 11
-15 14 5 14 4 2 -11 -12 -16 -16 -16 -31 -2 -12 11 -19 12 -28 3 -7 -7 -12 -8
-12 -2 0 6 5 15 11 21 8 8 7 13 -2 18 -7 5 -10 4 -6 -1 8 -13 -18 -45 -40 -49
-10 -1 -17 -8 -15 -14 3 -15 -15 -14 -22 2 -2 6 -4 3 -3 -8 2 -11 5 -24 8 -30
3 -5 9 -18 12 -27 10 -27 -22 -22 -33 5 -8 20 -9 20 -9 3 -1 -16 -4 -17 -13
-8 -24 24 -31 12 -8 -13 13 -14 19 -25 13 -25 -6 0 -13 7 -17 15 -3 8 -16 15
-29 15 -13 0 -27 3 -31 7 -16 17 -31 9 -32 -18 -3 -58 -13 -79 -39 -79 -22 0
-25 3 -19 25 4 16 2 25 -6 25 -6 0 -8 5 -5 10 3 6 -5 14 -19 20 -14 5 -26 15
-26 21 0 8 4 8 15 -1 10 -9 15 -9 15 -1 0 6 -4 11 -9 11 -5 0 -7 9 -4 20 4 17
14 20 57 20 28 0 61 3 73 6 16 4 21 2 20 -12 -2 -20 39 -29 63 -14 13 8 13 11
1 22 -11 10 -12 10 -7 0 8 -14 -17 -27 -34 -17 -8 5 -8 11 1 21 10 12 8 13 -7
8 -14 -4 -13 -1 6 15 29 24 48 28 30 6 -7 -9 -8 -15 -2 -15 5 0 13 8 16 17 6
15 8 15 17 3 7 -11 8 -8 5 13 -5 32 9 36 24 7 13 -24 26 -26 34 -4 6 15 4 15
-11 3 -15 -12 -16 -12 -10 4 4 10 3 16 -2 13 -5 -3 -14 1 -20 8 -8 10 -9 16
-1 21 5 3 10 1 10 -5 0 -6 5 -8 10 -5 6 3 10 11 10 16 0 6 -4 7 -10 4 -13 -8
-13 5 0 25 6 10 10 11 10 3 0 -7 5 -13 11 -13 8 0 8 4 0 13 -6 8 -10 41 -10
74 1 42 -5 72 -20 101 -12 23 -17 42 -11 42 5 0 10 5 10 11 0 5 -5 7 -12 3 -8
-5 -9 -1 -5 12 7 18 6 18 -6 2 -15 -19 -29 -14 -21 7 3 7 1 16 -5 20 -6 3 -11
2 -11 -3 0 -6 -9 -8 -20 -5 -11 3 -17 9 -14 14 3 5 9 7 13 5 4 -3 13 5 20 16
l13 21 -29 -20 c-19 -14 -34 -18 -48 -12 -19 7 -19 8 3 8 15 1 22 7 22 22 0
15 4 19 16 15 13 -5 14 -4 6 7 -18 21 -2 29 17 9 9 -10 13 -13 9 -7 -4 7 -5
15 -1 18 3 4 1 7 -6 7 -7 0 -9 5 -6 10 4 6 11 8 16 4 5 -3 8 -1 7 4 -3 10 1
12 28 12 8 0 12 -5 9 -10 -4 -6 -11 -8 -16 -5 -5 4 -9 4 -9 1 0 -3 9 -10 20
-16 16 -9 19 -8 13 6 -5 13 -3 15 8 10 8 -4 3 2 -10 13 -30 27 -41 26 -69 -10z
m186 -126 c14 -26 4 -47 -14 -32 -10 8 -11 15 -4 24 7 8 5 12 -5 12 -8 0 -12
-4 -9 -8 2 -4 0 -10 -5 -13 -5 -3 -11 1 -14 8 -11 27 38 35 51 9z m-625 -192
c4 -1 7 -5 7 -10 0 -5 -13 -8 -29 -7 -17 0 -27 5 -24 12 2 7 12 11 21 9 9 -2
20 -4 25 -4z m20 -152 c19 15 28 3 14 -20 -15 -24 -34 -24 -47 0 -14 28 -12
36 5 21 11 -9 18 -10 28 -1z m152 -27 c-6 -7 -35 18 -35 31 0 5 9 2 20 -8 11
-10 18 -20 15 -23z m200 -92 c3 -5 1 -10 -4 -10 -6 0 -11 5 -11 10 0 6 2 10 4
10 3 0 8 -4 11 -10z m125 -34 c-19 -19 -37 -14 -37 9 0 19 2 21 23 11 14 -7
19 -15 14 -20z"/>
<path d="M640 1661 c-23 -44 -5 -157 35 -214 15 -21 15 -20 15 16 0 23 -4 36
-10 32 -6 -4 -7 -11 -4 -17 4 -7 2 -8 -4 -4 -15 9 -5 32 16 40 9 4 28 13 42
21 21 13 22 15 6 15 -11 0 -27 -7 -37 -16 -16 -14 -19 -14 -37 4 -15 15 -17
24 -9 37 7 13 6 16 -2 11 -7 -5 -11 2 -11 19 0 38 17 65 36 58 13 -5 13 -7 2
-14 -10 -7 -9 -9 3 -9 9 0 20 -7 23 -16 9 -22 8 -24 -8 -18 -8 3 -17 0 -22 -7
-5 -8 -2 -11 8 -6 9 3 20 1 26 -5 16 -16 26 10 10 29 -11 14 -10 15 12 10 20
-6 19 -4 -5 7 l-30 14 44 0 c28 0 39 -3 30 -9 -8 -5 -9 -9 -4 -9 6 0 19 10 30
23 18 21 20 21 23 3 4 -20 -25 -49 -65 -66 -13 -5 -23 -15 -22 -22 0 -10 2
-10 6 0 2 6 9 12 15 12 5 0 21 9 35 20 20 15 29 17 39 9 8 -6 14 -16 14 -21 0
-6 -7 -5 -15 2 -10 8 -15 9 -15 2 0 -6 7 -15 16 -20 11 -6 13 -16 9 -35 -4
-15 -11 -25 -15 -22 -5 3 -6 -3 -3 -14 3 -10 -1 -22 -8 -27 -9 -5 -11 -2 -6 9
3 9 2 19 -3 22 -5 3 -7 12 -4 19 3 8 -2 16 -13 19 -14 4 -12 5 6 6 18 1 21 4
12 14 -6 8 -7 18 -3 22 4 5 1 5 -6 1 -7 -4 -9 -12 -6 -18 4 -6 -1 -8 -14 -4
-17 6 -19 3 -15 -14 3 -11 11 -20 17 -20 8 0 13 -19 15 -47 1 -26 4 -49 5 -51
2 -2 14 19 27 45 25 52 41 182 20 169 -6 -4 -9 -2 -5 7 6 17 -24 31 -40 19
-15 -12 -104 -13 -112 -1 -9 15 -33 10 -44 -10z m200 -41 c0 -5 -2 -10 -4 -10
-3 0 -8 5 -11 10 -3 6 -1 10 4 10 6 0 11 -4 11 -10z m-176 -95 c3 -8 1 -15 -4
-15 -6 0 -10 7 -10 15 0 8 2 15 4 15 2 0 6 -7 10 -15z"/>
<path d="M4140 1659 c-7 -11 -10 -23 -7 -25 2 -2 9 7 15 21 14 30 7 33 -8 4z"/>
<path d="M4234 1654 c-17 -15 -21 -22 -9 -16 32 16 61 41 49 42 -6 0 -24 -12
-40 -26z"/>
<path d="M5630 1673 c0 -4 5 -15 10 -23 8 -13 10 -13 10 2 0 9 -4 20 -10 23
-5 3 -10 3 -10 -2z"/>
<path d="M3536 1633 c-6 -14 -5 -15 5 -6 7 7 10 15 7 18 -3 3 -9 -2 -12 -12z"/>
<path d="M3438 1633 c-13 -3 -18 -14 -17 -36 2 -32 2 -32 6 -4 3 20 9 27 19
23 8 -3 12 -2 9 3 -3 6 9 12 27 14 32 4 32 4 3 4 -16 0 -38 -1 -47 -4z"/>
<path d="M650 1614 c0 -8 5 -12 10 -9 6 4 8 11 5 16 -9 14 -15 11 -15 -7z"/>
<path d="M5490 1619 c0 -5 5 -7 10 -4 6 3 10 8 10 11 0 2 -4 4 -10 4 -5 0 -10
-5 -10 -11z"/>
<path d="M500 1613 c8 -3 22 -11 30 -17 13 -10 13 -9 1 7 -7 9 -21 17 -30 16
-13 0 -14 -1 -1 -6z"/>
<path d="M5640 1611 c0 -6 4 -13 10 -16 6 -3 7 1 4 9 -7 18 -14 21 -14 7z"/>
<path d="M5685 1609 c-4 -6 -5 -12 -2 -15 2 -3 7 2 10 11 7 17 1 20 -8 4z"/>
<path d="M5839 1608 c-1 -7 -1 -17 0 -22 1 -4 -4 -14 -10 -22 -7 -8 -9 -17 -5
-21 3 -3 6 -1 6 6 0 9 9 11 28 7 25 -6 26 -5 8 8 -12 10 -17 23 -13 36 3 11 1
20 -4 20 -5 0 -10 -6 -10 -12z"/>
<path d="M4205 1568 c2 -32 1 -32 -28 -17 -18 9 -20 9 -10 -1 6 -7 29 -14 50
-15 33 -3 35 -1 16 7 -12 6 -24 20 -26 32 -2 12 -3 9 -2 -6z"/>
<path d="M966 1577 c3 -10 9 -15 12 -12 3 3 0 11 -7 18 -10 9 -11 8 -5 -6z"/>
<path d="M667 1573 c-15 -14 -6 -25 9 -12 15 12 16 11 9 -11 -7 -25 -7 -25 12
-5 14 14 17 22 9 27 -14 10 -31 10 -39 1z"/>
<path d="M995 1571 c3 -6 -1 -14 -10 -18 -12 -7 -11 -11 8 -22 20 -13 21 -13
9 2 -9 10 -10 17 -2 22 13 8 13 25 -1 25 -5 0 -8 -4 -4 -9z"/>
<path d="M3440 1550 c8 -5 20 -10 25 -10 6 0 3 5 -5 10 -8 5 -19 10 -25 10 -5
0 -3 -5 5 -10z"/>
<path d="M3790 1556 c0 -2 11 -6 25 -8 13 -3 22 -1 19 3 -5 9 -44 13 -44 5z"/>
<path d="M1022 1537 c14 -11 15 -16 5 -27 -10 -12 -9 -12 5 -1 9 7 22 10 28 6
5 -3 10 -2 10 3 0 6 -15 15 -32 21 -28 9 -30 9 -16 -2z"/>
<path d="M551 1519 c-1 -14 6 -34 15 -45 8 -10 12 -13 8 -5 -4 8 -11 28 -15
45 -6 29 -7 29 -8 5z"/>
<path d="M3494 1524 c28 -27 20 -66 -19 -92 -32 -21 -48 -52 -25 -52 5 0 6 7
3 17 -5 12 -3 14 7 8 9 -6 11 -4 5 5 -5 8 -3 11 6 8 8 -3 13 -11 11 -17 -1 -7
2 -10 8 -6 6 3 8 10 5 14 -2 5 2 17 10 27 24 32 13 104 -16 104 -6 0 -3 -7 5
-16z"/>
<path d="M958 1520 c15 -18 16 -54 0 -44 -7 4 -8 3 -4 -5 4 -6 12 -9 17 -6 12
8 11 -2 -1 -26 -9 -15 -7 -26 9 -47 11 -16 16 -33 12 -40 -7 -11 -38 -10 -64
3 -6 4 -3 0 7 -9 10 -8 23 -13 27 -10 5 3 9 -1 9 -8 1 -7 9 -3 20 11 20 23 20
23 0 51 -27 38 -11 77 34 83 24 3 23 4 -6 3 -29 -1 -38 2 -38 15 0 9 -8 23
-17 30 -15 11 -16 11 -5 -1z"/>
<path d="M3778 1523 c6 -2 18 -2 25 0 6 3 1 5 -13 5 -14 0 -19 -2 -12 -5z"/>
<path d="M4102 1505 c0 -16 2 -22 5 -12 2 9 2 23 0 30 -3 6 -5 -1 -5 -18z"/>
<path d="M4276 1516 c3 -9 11 -16 16 -16 13 0 5 23 -10 28 -7 2 -10 -2 -6 -12z"/>
<path d="M5445 1509 c-4 -6 -5 -12 -2 -15 2 -3 7 2 10 11 7 17 1 20 -8 4z"/>
<path d="M5580 1510 c0 -31 33 -181 39 -173 11 16 100 3 106 -15 11 -35 41
-63 58 -56 9 3 17 10 17 16 0 5 -5 6 -11 3 -6 -4 -19 2 -30 14 -11 12 -17 21
-14 21 3 0 -2 11 -11 25 -15 24 -44 35 -44 17 0 -4 -15 -6 -34 -4 -33 4 -34 5
-46 70 -13 68 -29 113 -30 82z"/>
<path d="M3790 1503 c-14 -3 -29 -9 -35 -15 -7 -7 0 -9 23 -4 29 5 31 4 18 -9
-8 -8 -24 -15 -35 -15 -11 0 -22 -4 -25 -9 -4 -5 3 -7 14 -4 15 4 20 0 21 -13
0 -14 2 -15 6 -4 3 8 15 25 26 38 11 12 16 22 11 22 -5 0 -2 5 6 10 16 10 12
10 -30 3z"/>
<path d="M1048 1493 c7 -3 16 -2 19 1 4 3 -2 6 -13 5 -11 0 -14 -3 -6 -6z"/>
<path d="M3955 1451 c15 -27 24 -54 21 -60 -4 -6 -2 -11 3 -11 6 0 11 6 11 14
0 15 -49 106 -56 106 -3 0 7 -22 21 -49z"/>
<path d="M4228 1493 c7 -3 16 -2 19 1 4 3 -2 6 -13 5 -11 0 -14 -3 -6 -6z"/>
<path d="M5525 1479 c-17 -6 -17 -8 -2 -8 11 -1 17 -9 17 -26 0 -14 5 -25 10
-25 11 0 11 14 2 46 -6 16 -12 19 -27 13z"/>
<path d="M3612 1456 c1 -14 5 -23 9 -20 7 4 0 44 -7 44 -2 0 -3 -11 -2 -24z"/>
<path d="M4272 1464 c-7 -8 -26 -14 -42 -14 -16 0 -32 -5 -35 -10 -4 -6 -10
-8 -15 -5 -5 3 -12 0 -16 -6 -4 -8 -3 -9 4 -5 7 4 12 3 12 -3 0 -5 -4 -13 -10
-16 -5 -3 -10 -14 -10 -23 1 -10 10 0 21 21 16 31 25 37 52 37 36 0 61 13 56
28 -2 6 -9 4 -17 -4z"/>
<path d="M3810 1455 c-7 -9 -10 -18 -6 -22 3 -3 6 -1 6 6 0 7 4 10 9 6 5 -3
12 -1 15 4 11 17 -11 21 -24 6z"/>
<path d="M3920 1465 c0 -5 5 -17 10 -25 5 -8 10 -10 10 -5 0 6 -5 17 -10 25
-5 8 -10 11 -10 5z"/>
<path d="M5360 1436 c0 -8 -7 -22 -16 -30 -8 -9 -11 -16 -6 -16 5 0 14 6 19
13 16 20 23 47 13 47 -6 0 -10 -6 -10 -14z"/>
<path d="M4080 1433 c0 -6 -19 -32 -42 -59 -24 -27 -35 -42 -24 -34 16 13 20
12 38 -10 15 -20 17 -21 9 -4 -7 15 -7 25 2 34 10 12 9 12 -5 1 -26 -19 -22
-5 8 35 15 19 24 37 20 41 -3 3 -6 2 -6 -4z"/>
<path d="M5386 1423 c-6 -14 -5 -15 5 -6 7 7 10 15 7 18 -3 3 -9 -2 -12 -12z"/>
<path d="M3620 1420 c-12 -7 -12 -10 -1 -10 7 0 11 -6 8 -15 -4 -8 -1 -17 5
-21 7 -5 8 -2 3 6 -5 8 -3 11 6 8 8 -3 13 -12 11 -19 -2 -8 0 -11 4 -6 4 4 16
-1 28 -10 11 -10 6 -1 -10 19 -16 21 -33 38 -37 38 -5 0 -5 5 -2 10 8 12 4 12
-15 0z"/>
<path d="M3716 1423 c-3 -3 -6 -14 -6 -24 0 -13 8 -17 33 -17 17 1 26 3 19 5
-6 3 -10 9 -7 13 7 11 -30 32 -39 23z m34 -17 c0 -2 -7 -6 -15 -10 -8 -3 -15
-1 -15 4 0 6 7 10 15 10 8 0 15 -2 15 -4z"/>
<path d="M3922 1408 c2 -10 -14 -13 -60 -15 -35 -1 -66 -4 -70 -7 -3 -3 35 -5
84 -5 49 1 81 3 71 6 -9 2 -15 8 -12 13 3 5 1 12 -5 15 -6 4 -9 1 -8 -7z"/>
<path d="M5535 1375 c-45 -44 -26 -127 32 -138 49 -9 103 25 103 66 -1 19 -3
17 -14 -8 -32 -75 -136 -59 -136 21 0 25 8 39 33 58 17 14 26 26 19 26 -7 0
-24 -11 -37 -25z"/>
<path d="M1591 1366 c-14 -34 -42 -42 -62 -15 -13 18 -19 20 -37 10 -18 -9
-20 -16 -12 -35 12 -33 -11 -53 -44 -38 -39 18 -60 -16 -31 -48 21 -23 10 -46
-26 -59 -36 -12 -38 -38 -4 -51 36 -14 43 -39 15 -60 -18 -14 -20 -20 -12 -37
8 -15 18 -19 38 -15 32 6 45 -11 37 -50 -7 -35 19 -48 46 -24 24 21 47 12 60
-25 12 -35 38 -38 50 -5 14 34 42 42 62 15 13 -17 20 -19 36 -11 15 8 19 18
15 40 -4 33 18 48 47 32 12 -6 22 -5 29 2 16 16 15 28 -3 48 -21 23 -9 47 26
55 37 8 40 41 4 55 -37 14 -43 39 -15 60 32 24 15 54 -31 54 -34 1 -40 13 -28
54 2 8 -4 19 -13 25 -13 9 -21 7 -36 -6 -25 -23 -51 -12 -59 24 -7 36 -40 39
-52 5z m92 -118 c116 -83 28 -270 -114 -241 -45 9 -96 63 -104 111 -7 41 17
105 47 129 46 36 121 36 171 1z"/>
<path d="M1583 1233 c-7 -2 -13 -13 -13 -23 0 -12 -8 -20 -22 -22 -21 -3 -23
-8 -23 -68 l0 -65 75 0 75 0 0 60 c0 53 -3 61 -23 70 -12 5 -22 17 -22 26 0
13 -24 33 -33 28 -1 0 -8 -3 -14 -6z m27 -18 c0 -8 -7 -15 -15 -15 -16 0 -20
12 -8 23 11 12 23 8 23 -8z m14 -86 c13 -32 14 -44 5 -55 -15 -18 -43 -18 -59
1 -10 13 -10 23 5 55 10 22 21 40 25 40 5 0 15 -18 24 -41z"/>
<path d="M5893 1375 c-3 -9 -3 -18 -1 -21 3 -3 8 4 11 16 6 23 -1 27 -10 5z"/>
<path d="M1138 1355 c-14 -31 -42 -32 -62 -3 -13 18 -18 20 -38 10 l-23 -12
22 6 c18 4 25 0 32 -19 8 -19 15 -23 35 -20 20 4 26 1 26 -12 0 -12 -6 -16
-20 -12 -10 3 -24 -1 -31 -9 -14 -17 -33 -19 -23 -2 5 8 0 9 -14 6 -12 -4 -20
-3 -17 1 2 5 -8 8 -23 8 -15 0 -34 3 -44 7 -22 10 -33 -26 -17 -52 17 -27 5
-50 -28 -54 -37 -4 -43 -34 -9 -49 32 -15 36 -55 6 -64 -21 -7 -24 -14 -15
-37 4 -10 16 -13 35 -10 17 2 27 9 23 15 -3 5 -1 7 4 4 13 -8 14 -56 1 -80
-14 -28 20 -52 44 -30 25 22 52 12 58 -22 7 -39 36 -45 51 -11 15 31 43 34 63
5 22 -32 52 -21 48 18 -3 24 1 33 17 38 11 3 29 1 40 -4 28 -15 50 12 32 40
-17 29 -5 57 27 61 36 4 41 34 8 49 -14 7 -26 20 -26 29 0 10 -7 23 -15 30
-15 12 -22 0 -8 -14 13 -13 11 -33 -4 -33 -9 0 -13 7 -10 19 3 10 1 18 -4 18
-5 0 -9 5 -9 12 0 6 -8 20 -17 31 -10 11 -13 17 -6 14 6 -4 13 -4 16 0 2 5 2
3 1 -4 -2 -6 4 -17 13 -25 14 -11 15 -10 9 10 -5 14 -3 22 4 22 6 0 8 -4 5
-10 -3 -5 0 -7 8 -4 8 3 20 -2 27 -11 15 -18 0 -20 -19 -2 -11 10 -13 9 -9 -3
6 -18 28 -23 47 -11 22 14 5 49 -22 44 -34 -7 -53 20 -38 53 10 22 9 28 -6 39
-15 12 -21 11 -39 -6 -14 -13 -24 -17 -29 -10 -10 17 -23 13 -30 -9 -3 -11
-11 -20 -17 -20 -6 0 -6 6 2 15 7 9 10 18 6 22 -3 3 -6 1 -6 -6 0 -7 -5 -9
-12 -5 -7 4 -8 3 -4 -4 4 -7 2 -12 -3 -12 -16 0 -13 20 4 26 8 4 12 10 9 16
-3 5 -13 4 -22 -4 -15 -12 -16 -11 -3 5 13 16 15 16 32 1 18 -16 19 -16 19 14
0 25 -4 32 -20 32 -12 0 -25 -10 -32 -25z m42 5 c0 -5 -2 -10 -4 -10 -3 0 -8
5 -11 10 -3 6 -1 10 4 10 6 0 11 -4 11 -10z m89 -81 c-25 -36 -36 -42 -45 -28
-4 8 -3 9 4 5 7 -4 12 -3 12 3 0 5 -5 11 -12 13 -8 3 -4 12 10 26 12 12 28 19
37 16 13 -5 12 -10 -6 -35z m-52 1 c-1 -22 -18 -22 -25 0 -3 7 0 10 7 6 6 -4
11 -2 11 3 0 6 2 11 4 11 3 0 4 -9 3 -20z m-241 -15 c-5 -29 -1 -31 20 -11 11
11 11 16 1 19 -7 3 -5 6 6 6 9 1 17 -5 18 -11 0 -10 2 -10 6 0 3 9 9 10 18 2
9 -7 21 -7 41 0 94 36 207 -76 175 -173 -14 -41 -72 -97 -102 -97 -13 0 -18
-4 -13 -12 5 -8 2 -9 -12 -4 -10 5 -32 12 -48 17 -69 21 -119 108 -97 171 6
17 8 35 4 41 -3 5 -2 7 4 4 6 -4 21 5 33 18 24 26 23 29 -4 19 -9 -3 -13 -10
-10 -15 3 -5 -2 -6 -10 -3 -19 7 -37 -26 -29 -57 5 -24 5 -24 -11 -4 -15 19
-15 18 -5 -13 6 -18 9 -36 5 -39 -3 -3 -9 8 -12 25 -4 18 -10 32 -15 32 -4 0
-2 -17 6 -39 10 -28 10 -42 2 -50 -8 -8 -7 -11 5 -11 9 0 19 8 21 18 4 13 5
11 6 -5 1 -16 -5 -23 -18 -23 -11 0 -22 -6 -25 -12 -5 -10 -7 -10 -12 0 -3 6
-11 9 -16 6 -7 -4 -8 -2 -4 4 4 6 14 8 24 5 9 -3 14 -3 10 2 -4 4 -4 13 1 19
13 15 -14 77 -31 73 -7 -2 -10 -2 -5 0 4 3 4 10 0 16 -4 6 0 8 10 4 22 -8 53
23 54 56 1 39 2 47 8 47 3 0 3 -11 1 -25z m374 -55 c0 -5 -2 -10 -4 -10 -3 0
-8 5 -11 10 -3 6 -1 10 4 10 6 0 11 -4 11 -10z m-18 -98 c8 -6 18 -9 22 -5 4
4 4 0 0 -10 -8 -22 -33 -22 -51 1 -14 16 -14 16 -9 0 3 -12 0 -18 -9 -18 -8 0
-15 -7 -15 -15 0 -8 -5 -15 -11 -15 -5 0 -8 -4 -5 -9 4 -5 0 -12 -6 -14 -9 -4
-9 -6 -1 -6 6 -1 21 11 32 25 12 15 21 23 21 19 0 -5 -7 -17 -17 -27 -9 -11
-11 -18 -5 -18 7 0 11 -6 10 -12 -2 -7 2 -12 9 -11 7 2 10 -4 7 -11 -7 -18
-34 -9 -34 10 0 16 -26 19 -35 4 -4 -6 1 -7 12 -3 10 3 15 3 11 -1 -3 -4 -12
-9 -20 -10 -7 -1 -24 -6 -37 -10 -24 -8 -24 -9 -5 -23 14 -12 16 -16 5 -20
-11 -5 -11 -7 0 -15 11 -8 11 -9 -1 -5 -8 2 -15 10 -15 18 0 8 -6 14 -14 14
-8 0 -16 6 -18 13 -3 6 3 12 14 12 14 0 15 2 5 9 -11 7 -10 9 3 14 9 4 13 3
10 -3 -7 -12 -3 -12 20 -4 13 5 14 8 3 15 -10 7 -10 9 2 9 9 0 30 27 48 59 32
58 46 67 74 43z m-323 -80 c0 -14 -2 -13 -9 3 -9 21 -14 8 -11 -27 1 -9 -2
-19 -7 -21 -9 -7 -7 46 3 62 9 15 25 4 24 -17z m40 -26 c11 -13 58 -31 73 -28
3 1 9 -5 12 -13 3 -8 1 -16 -4 -16 -6 -1 -14 -2 -19 -3 -5 0 -13 -4 -17 -8
-13 -14 -21 -9 -20 13 1 12 -5 23 -12 25 -7 1 -8 0 -2 -3 5 -2 10 -9 10 -14 0
-6 -10 -3 -21 5 -12 8 -29 12 -38 8 -14 -5 -14 -4 -2 11 11 14 11 17 0 17 -11
0 -11 2 1 10 20 13 26 12 39 -4z m-53 -48 c3 -4 -1 -5 -10 -4 -8 1 -18 5 -22
8 -3 4 1 5 10 4 8 -1 18 -5 22 -8z m99 -48 c3 -5 2 -10 -4 -10 -5 0 -13 5 -16
10 -3 6 -2 10 4 10 5 0 13 -4 16 -10z"/>
<path d="M1252 1298 c-14 -14 -16 -28 -3 -28 5 0 11 9 14 20 6 23 5 24 -11 8z"/>
<path d="M1145 1200 c3 -5 8 -10 11 -10 2 0 4 5 4 10 0 6 -5 10 -11 10 -5 0
-7 -4 -4 -10z"/>
<path d="M1086 1165 c4 -8 18 -15 34 -15 16 0 30 7 34 15 4 12 -3 15 -34 15
-31 0 -38 -3 -34 -15z m47 -2 c-7 -2 -19 -2 -25 0 -7 3 -2 5 12 5 14 0 19 -2
13 -5z"/>
<path d="M1059 1114 c-25 -30 1 -49 67 -49 48 0 59 3 62 18 2 9 -2 17 -8 17
-7 0 -9 -7 -6 -16 4 -11 1 -14 -12 -12 -11 2 -17 12 -16 31 0 25 -3 27 -37 27
-21 0 -42 -7 -50 -16z m26 -4 c-3 -5 0 -10 7 -11 7 0 4 -4 -7 -9 -19 -8 -19
-9 3 -9 12 -1 22 4 22 9 0 16 17 12 24 -6 5 -12 -1 -15 -32 -12 -24 2 -37 8
-38 18 -1 20 5 30 17 30 6 0 7 -4 4 -10z m42 4 c-3 -3 -12 -4 -19 -1 -8 3 -5
6 6 6 11 1 17 -2 13 -5z"/>
<path d="M1310 1116 c0 -2 8 -10 18 -17 15 -13 16 -12 3 4 -13 16 -21 21 -21
13z"/>
<path d="M1030 995 c7 -9 15 -13 17 -11 7 7 -7 26 -19 26 -6 0 -6 -6 2 -15z"/>
<path d="M1090 962 c0 -5 7 -9 15 -9 8 0 12 4 9 9 -3 4 -9 8 -15 8 -5 0 -9 -4
-9 -8z"/>
<path d="M3474 1368 c6 -19 -9 -25 -17 -8 -3 6 -4 5 -3 -2 2 -9 21 -13 53 -13
41 0 54 -5 72 -25 l22 -25 -15 26 c-9 14 -13 28 -10 32 3 3 -15 4 -40 3 -34
-2 -50 2 -57 13 -9 14 -10 14 -5 -1z"/>
<path d="M521 1349 c-10 -18 -10 -24 5 -40 22 -24 27 -24 60 4 26 23 28 23 46
5 10 -10 18 -26 18 -35 0 -16 2 -16 11 -3 8 11 9 7 4 -17 -6 -30 -5 -33 19
-33 18 0 30 9 41 30 11 21 23 30 40 30 14 0 25 4 25 10 0 5 -7 7 -15 4 -8 -4
-22 0 -31 7 -8 7 -14 8 -13 3 5 -22 -24 -74 -41 -74 -13 0 -17 5 -13 20 3 11
0 26 -6 34 -6 7 -10 20 -8 27 2 8 2 11 0 7 -2 -4 -11 -4 -19 -1 -13 5 -13 7
-2 15 9 6 8 8 -7 6 -12 -2 -19 2 -17 10 1 8 -2 11 -8 7 -6 -3 -8 -10 -5 -14
13 -22 -44 -43 -83 -32 -1 1 2 10 8 22 15 27 8 34 -9 8z"/>
<path d="M846 1354 c-11 -8 -16 -14 -10 -14 13 0 39 18 34 24 -3 2 -14 -2 -24
-10z"/>
<path d="M5381 1354 c0 -11 3 -14 6 -6 3 7 2 16 -1 19 -3 4 -6 -2 -5 -13z"/>
<path d="M5978 1356 c-10 -7 -18 -19 -18 -27 0 -8 8 -4 20 11 12 15 18 18 14
8 -3 -10 -2 -18 3 -18 5 0 9 9 10 20 2 23 -5 25 -29 6z"/>
<path d="M567 1346 c-4 -10 -1 -13 8 -9 8 3 12 9 9 14 -7 12 -11 11 -17 -5z"/>
<path d="M886 1348 c3 -4 -1 -8 -9 -8 -9 0 -17 -12 -19 -29 -2 -17 -1 -28 4
-25 4 3 8 12 8 20 0 9 10 24 22 33 17 14 18 18 5 18 -9 0 -14 -4 -11 -9z"/>
<path d="M4174 1336 c1 -14 5 -29 10 -33 4 -4 6 -3 4 4 -1 6 1 12 6 12 11 2
17 -28 9 -42 -3 -5 -10 -3 -15 4 -8 11 -9 10 -4 -3 4 -13 0 -18 -12 -18 -15 0
-15 -2 -2 -10 11 -7 19 -5 28 8 32 41 32 48 3 76 l-28 27 1 -25z"/>
<path d="M750 1340 c-9 -6 -10 -10 -3 -10 6 0 15 5 18 10 8 12 4 12 -15 0z"/>
<path d="M1043 1343 c-15 -5 -18 -43 -4 -43 5 0 16 -3 25 -6 9 -3 16 -1 16 6
0 6 -4 9 -9 5 -5 -3 -11 5 -13 18 -2 14 -8 22 -15 20z"/>
<path d="M5915 1340 c3 -5 8 -10 11 -10 2 0 4 5 4 10 0 6 -5 10 -11 10 -5 0
-7 -4 -4 -10z"/>
<path d="M3695 1330 c-17 -8 -17 -9 7 -7 15 1 24 5 22 9 -3 4 -6 8 -7 7 -1 0
-11 -4 -22 -9z"/>
<path d="M3961 1316 c-21 -12 -21 -14 -6 -20 10 -3 20 -4 23 -1 3 3 -1 5 -8 5
-9 0 -7 5 6 15 24 18 17 19 -15 1z"/>
<path d="M5370 1321 c0 -5 5 -13 10 -16 6 -3 10 -2 10 4 0 5 -4 13 -10 16 -5
3 -10 2 -10 -4z"/>
<path d="M836 1303 c-6 -14 -5 -15 5 -6 7 7 10 15 7 18 -3 3 -9 -2 -12 -12z"/>
<path d="M3743 1306 c0 -8 7 -12 15 -8 9 3 13 1 10 -4 -4 -5 23 -10 60 -11
l67 -1 -65 11 c-36 7 -70 15 -76 19 -6 4 -11 1 -11 -6z"/>
<path d="M3908 1293 c7 -3 16 -2 19 1 4 3 -2 6 -13 5 -11 0 -14 -3 -6 -6z"/>
<path d="M5895 1291 c-3 -5 -1 -12 5 -16 5 -3 10 1 10 9 0 18 -6 21 -15 7z"/>
<path d="M800 1282 c0 -5 6 -16 13 -26 15 -21 67 -13 67 11 0 10 -4 13 -12 7
-19 -13 -53 -10 -50 4 1 7 -2 12 -8 12 -5 0 -10 -4 -10 -8z"/>
<path d="M3581 1264 c-17 -38 -6 -42 14 -5 8 17 12 31 7 31 -5 0 -14 -12 -21
-26z"/>
<path d="M4085 1279 c-4 -6 -13 -8 -19 -6 -7 3 -13 -1 -13 -9 0 -18 6 -18 28
2 14 13 22 13 39 4 17 -9 25 -9 34 0 8 8 7 10 -5 5 -10 -4 -20 -2 -24 4 -8 14
-32 14 -40 0z"/>
<path d="M3629 1243 c-13 -16 -12 -17 4 -4 9 7 17 15 17 17 0 8 -8 3 -21 -13z"/>
<path d="M4027 1248 c4 -7 8 -18 9 -24 1 -6 5 -25 9 -42 5 -25 3 -31 -15 -37
-28 -9 -21 -16 9 -8 20 5 22 10 16 47 -9 59 -15 76 -26 76 -6 0 -7 -6 -2 -12z"/>
<path d="M3639 1221 c-19 -26 -57 -36 -52 -14 1 5 -5 10 -13 10 -12 0 -11 -4
2 -18 9 -10 20 -16 24 -14 5 3 10 -1 12 -7 3 -9 17 -4 42 16 21 15 35 31 32
34 -3 3 -15 -3 -26 -13 -11 -10 -20 -13 -20 -7 0 6 10 18 22 26 12 9 17 16 11
16 -7 0 -22 -13 -34 -29z"/>
<path d="M5410 1241 c0 -5 -3 -16 -6 -24 -3 -8 1 -17 9 -20 10 -4 12 3 9 24
-4 27 -12 40 -12 20z"/>
<path d="M3712 1231 c-11 -6 -10 -10 4 -15 9 -4 22 -2 28 4 8 8 6 9 -8 4 -13
-5 -17 -4 -12 4 8 14 6 15 -12 3z"/>
<path d="M4006 1225 c4 -8 8 -15 10 -15 2 0 4 7 4 15 0 8 -4 15 -10 15 -5 0
-7 -7 -4 -15z"/>
<path d="M3759 1162 c2 -26 8 -50 15 -54 20 -14 64 -8 70 8 9 25 7 29 -6 12
-7 -9 -24 -16 -38 -15 -22 2 -25 7 -28 42 -2 22 -6 43 -10 47 -4 4 -5 -14 -3
-40z"/>
<path d="M3863 1188 c-19 -25 -24 -38 -15 -38 5 0 12 9 15 20 7 26 62 27 91 3
16 -14 18 -14 8 -2 -6 9 -9 19 -5 22 3 4 -14 7 -39 7 -25 0 -50 -6 -55 -12z"/>
<path d="M4005 1160 c-16 -7 -17 -9 -3 -9 9 -1 20 4 23 9 7 11 7 11 -20 0z"/>
<path d="M3970 1146 c0 -2 8 -10 18 -17 15 -13 16 -12 3 4 -13 16 -21 21 -21
13z"/>
<path d="M5553 1115 c0 -8 4 -12 9 -9 5 3 6 10 3 15 -9 13 -12 11 -12 -6z"/>
<path d="M5490 1098 c-12 -22 -12 -22 6 -6 10 10 15 20 12 24 -4 3 -12 -5 -18
-18z"/>
<path d="M5520 1095 c-7 -9 -10 -18 -6 -22 3 -3 6 -1 6 6 0 7 4 10 8 7 5 -3 9
1 9 9 0 19 -2 19 -17 0z"/>
<path d="M5638 993 c7 -3 16 -2 19 1 4 3 -2 6 -13 5 -11 0 -14 -3 -6 -6z"/>
</g>
</svg>
